<svg xmlns="http://www.w3.org/2000/svg" xmlns:xlink="http://www.w3.org/1999/xlink" width="500" zoomAndPan="magnify" viewBox="0 0 375 374.999991" height="500" preserveAspectRatio="xMidYMid meet" version="1.0"><defs><clipPath id="ef9837889b"><path d="M 5.480469 2 L 369 2 L 369 373 L 5.480469 373 Z M 5.480469 2 " clip-rule="nonzero"/></clipPath></defs><g clip-path="url(#ef9837889b)"><path fill="#fffad7" d="M 354.042969 306.097656 L 349.511719 316.84375 C 342.6875 317.339844 330.777344 319.410156 322.738281 327.363281 C 314.632812 335.351562 312.398438 347.382812 311.808594 353.988281 L 300.980469 358.394531 C 295.925781 354.023438 285.949219 346.953125 274.433594 346.855469 C 263.144531 346.855469 253.167969 353.726562 248.113281 357.964844 L 237.351562 353.398438 C 236.859375 346.757812 234.824219 334.726562 226.851562 326.609375 C 218.875 318.488281 206.867188 316.253906 200.238281 315.628906 L 195.871094 304.78125 C 200.171875 299.753906 207.226562 289.792969 207.359375 278.386719 C 207.421875 267.015625 200.53125 256.957031 196.300781 251.859375 L 200.828125 241.078125 C 207.652344 240.554688 219.53125 238.480469 227.605469 230.527344 C 235.710938 222.539062 237.941406 210.507812 238.53125 203.871094 L 249.363281 199.496094 C 254.382812 203.835938 264.324219 210.9375 275.679688 211.003906 L 275.941406 211.003906 C 287.199219 211.003906 297.171875 204.164062 302.226562 199.925781 L 312.957031 204.460938 C 313.449219 211.101562 315.515625 223.164062 323.492188 231.285156 C 331.464844 239.402344 343.476562 241.636719 350.105469 242.230469 L 354.46875 253.078125 C 350.136719 258.105469 343.082031 268.097656 342.984375 279.472656 C 342.917969 290.878906 349.808594 300.96875 354.042969 306.097656 Z M 61.558594 228.359375 C 87.976562 201.964844 124.335938 185.625 164.601562 185.625 C 186.324219 185.625 206.929688 190.425781 225.4375 198.972656 C 225.40625 199.203125 225.339844 199.398438 225.339844 199.597656 C 225.339844 199.597656 225.242188 213.992188 218.1875 220.960938 C 211.363281 227.699219 197.808594 227.800781 196.792969 227.800781 L 196.691406 227.800781 C 194.230469 227.800781 191.34375 229.542969 190.230469 231.742188 L 182.1875 250.710938 C 181.433594 253.042969 182.1875 256.398438 183.929688 258.140625 C 183.929688 258.140625 194.003906 268.363281 193.9375 278.320312 C 193.839844 288.25 183.601562 298.304688 183.601562 298.304688 C 181.859375 300.046875 181.039062 303.367188 181.761719 305.734375 L 189.507812 324.832031 L 19.0625 324.832031 C 20.769531 287.230469 36.652344 253.308594 61.558594 228.359375 Z M 109.46875 149.304688 C 95.359375 135.136719 86.632812 115.679688 86.632812 94.082031 C 86.632812 72.484375 95.359375 53.027344 109.46875 38.859375 C 123.613281 24.726562 143.039062 15.980469 164.601562 15.980469 C 186.160156 15.980469 205.585938 24.726562 219.730469 38.859375 C 233.839844 53.027344 242.570312 72.484375 242.570312 94.082031 C 242.570312 115.679688 233.839844 135.171875 219.730469 149.304688 C 205.585938 163.4375 186.160156 172.183594 164.601562 172.183594 C 143.039062 172.183594 123.582031 163.4375 109.46875 149.304688 Z M 356.40625 279.570312 C 356.46875 269.644531 366.742188 259.550781 366.742188 259.550781 C 368.511719 257.84375 369.332031 254.523438 368.578125 252.15625 L 360.867188 233.058594 C 359.75 230.855469 356.863281 229.046875 354.402344 229.015625 C 354.402344 229.015625 339.996094 228.949219 333.074219 221.882812 C 326.082031 214.78125 326.214844 200.386719 326.214844 200.386719 C 326.246094 197.917969 324.476562 194.960938 322.308594 193.84375 L 303.375 185.824219 C 302.75 185.625 302.0625 185.527344 301.339844 185.527344 C 299.371094 185.527344 297.238281 186.285156 295.960938 187.53125 C 295.960938 187.53125 285.820312 197.558594 275.941406 197.558594 L 275.8125 197.558594 C 265.867188 197.492188 255.824219 187.203125 255.824219 187.203125 C 254.546875 185.890625 252.347656 185.101562 250.347656 185.101562 C 249.691406 185.101562 249.035156 185.199219 248.441406 185.394531 L 237.351562 189.867188 C 226.621094 184.3125 215.136719 179.972656 203.15625 176.980469 C 234.332031 162.417969 255.988281 130.832031 255.988281 94.082031 C 255.988281 43.527344 215.070312 2.539062 164.601562 2.539062 C 114.128906 2.539062 73.242188 43.527344 73.210938 94.082031 C 73.210938 130.765625 94.835938 162.355469 125.945312 176.914062 C 56.769531 194.238281 5.480469 256.890625 5.480469 331.570312 C 5.480469 333.347656 6.199219 335.089844 7.449219 336.335938 C 8.695312 337.554688 10.402344 338.277344 12.171875 338.277344 L 219.074219 338.277344 C 224.191406 345.773438 224.09375 357.507812 224.09375 357.507812 C 224.0625 359.972656 225.832031 362.898438 228 364.046875 L 246.964844 372.066406 C 247.589844 372.265625 248.277344 372.363281 249 372.363281 C 250.96875 372.363281 253.101562 371.609375 254.382812 370.324219 C 254.382812 370.324219 264.554688 360.300781 274.433594 360.300781 L 274.53125 360.300781 C 284.441406 360.398438 294.515625 370.6875 294.515625 370.6875 C 295.796875 372.003906 297.992188 372.792969 299.996094 372.792969 C 300.652344 372.792969 301.308594 372.691406 301.898438 372.527344 L 320.964844 364.769531 C 323.164062 363.6875 324.96875 360.761719 325 358.296875 C 325 358.296875 325.097656 343.929688 332.15625 336.929688 C 338.945312 330.257812 352.367188 330.09375 353.515625 330.09375 L 353.679688 330.09375 C 356.109375 330.09375 359.03125 328.351562 360.144531 326.179688 L 368.152344 307.214844 C 368.941406 304.878906 368.152344 301.527344 366.445312 299.785156 C 366.445312 299.785156 356.339844 289.53125 356.40625 279.570312 " fill-opacity="1" fill-rule="nonzero"/></g><path fill="#fffad7" d="M 275.449219 240.949219 L 275.21875 240.949219 L 275.320312 254.390625 C 288.839844 254.523438 299.765625 265.632812 299.667969 279.109375 C 299.570312 292.554688 288.574219 303.46875 274.988281 303.46875 C 261.46875 303.367188 250.574219 292.257812 250.675781 278.75 C 250.773438 265.304688 261.765625 254.390625 275.1875 254.390625 L 275.1875 240.949219 C 254.414062 240.949219 237.417969 257.777344 237.253906 278.648438 C 237.089844 299.589844 253.921875 316.746094 274.859375 316.945312 L 275.15625 316.945312 C 295.960938 316.945312 312.890625 300.113281 313.089844 279.242188 C 313.253906 258.269531 296.417969 241.144531 275.449219 240.949219 " fill-opacity="1" fill-rule="nonzero"/></svg>