<svg xmlns="http://www.w3.org/2000/svg" xmlns:xlink="http://www.w3.org/1999/xlink" width="500" zoomAndPan="magnify" viewBox="0 0 375 374.999991" height="500" preserveAspectRatio="xMidYMid meet" version="1.0"><defs><clipPath id="1577a44d21"><path d="M 3.128906 87.152344 L 371.859375 87.152344 L 371.859375 288 L 3.128906 288 Z M 3.128906 87.152344 " clip-rule="nonzero"/></clipPath></defs><g clip-path="url(#1577a44d21)"><path fill="#fffad7" d="M 356.960938 87.164062 L 353.996094 87.164062 C 350.082031 88.382812 345.96875 89.867188 343.683594 93.492188 C 306.378906 94.289062 268.945312 93.730469 231.601562 93.800781 C 228.542969 93.921875 229.085938 88.570312 225.671875 89.511719 C 186.230469 89.484375 146.773438 89.566406 107.339844 89.464844 C 101.558594 90.53125 97.410156 95.082031 93.429688 99.058594 C 90.390625 99.476562 87.757812 97.578125 84.980469 96.699219 C 81.570312 97.042969 81.53125 102.96875 77.617188 101.6875 C 72.753906 99.453125 68.457031 93.5625 62.523438 95.683594 C 60.394531 95.800781 57.871094 98.6875 59.625 100.582031 C 62.277344 102.871094 65.886719 99.566406 68.257812 102.285156 C 71.484375 103.988281 73.796875 107.371094 73.535156 111.101562 C 69.003906 112.390625 66.082031 116.722656 66.238281 121.4375 C 61.425781 121.914062 55.800781 120.09375 52.046875 124.128906 C 47.554688 128.605469 48.875 135.363281 48.691406 141.101562 C 46.0625 156.242188 32.28125 165.082031 24.792969 177.574219 C 8.445312 206.960938 7.074219 241.757812 3.128906 274.382812 L 3.128906 278 C 4.234375 284.734375 12.722656 284.738281 17.804688 286.238281 C 40.519531 287.828125 63.382812 288.125 85.988281 285.890625 C 89.746094 285.089844 95.417969 283.84375 93.546875 278.421875 C 88.058594 255.917969 83.792969 233.042969 81.90625 209.949219 C 80.445312 198.222656 79.3125 183.429688 89.699219 175.285156 C 93.679688 174.855469 97.832031 174.207031 101.726562 175.402344 C 109.910156 179.820312 107.960938 190.503906 110.839844 198.007812 C 116.375 209.957031 129.144531 217.539062 142.070312 218.328125 C 160.664062 220.367188 180.902344 207.707031 184.3125 188.703125 C 187.140625 180.742188 189.988281 172.585938 194.976562 165.699219 C 204.449219 165.234375 213.960938 165.71875 223.421875 165.261719 C 226.496094 164.15625 223.769531 160.382812 224.671875 158.105469 C 225.855469 146.945312 226.273438 134.527344 233.785156 125.492188 C 270.460938 124.605469 307.1875 124.761719 343.867188 124.808594 C 349.195312 124.488281 345.316406 117.691406 346.53125 114.425781 C 354.203125 113.507812 361.949219 114.761719 369.65625 114.300781 C 371.761719 112.929688 370.753906 109.710938 371.863281 107.710938 L 371.863281 100.085938 C 371.046875 98.160156 372.125 95.625 370.632812 94.03125 C 368.367188 92.925781 365.582031 93.957031 363.179688 93.320312 C 361.765625 90.671875 359.175781 89.066406 356.960938 87.164062 M 158.445312 169.804688 C 163.800781 170.472656 170.914062 170.789062 173.921875 175.992188 C 181.746094 185.929688 172.890625 199.230469 163.75 204.605469 C 158.410156 207.878906 152.265625 209.175781 146.34375 211 C 134.941406 211.8125 121.222656 205.378906 118.914062 193.226562 C 116.96875 184.484375 124.339844 177.238281 132.035156 175.441406 C 133.398438 180.179688 140.597656 179 141.964844 183.925781 C 143.550781 191.792969 148.007812 199.390625 155.570312 202.777344 C 157.992188 204.464844 161.882812 203.316406 162.949219 200.75 C 161.90625 197.609375 157.574219 198.972656 155.566406 196.71875 C 150.019531 192.746094 144.722656 184.148438 149.582031 177.675781 C 151.929688 176.089844 152.101562 172.855469 151.601562 170.308594 C 153.824219 169.644531 156.160156 169.722656 158.445312 169.804688 Z M 158.445312 169.804688 " fill-opacity="1" fill-rule="nonzero"/></g></svg>