<svg xmlns="http://www.w3.org/2000/svg" xmlns:xlink="http://www.w3.org/1999/xlink" width="500" zoomAndPan="magnify" viewBox="0 0 375 374.999991" height="500" preserveAspectRatio="xMidYMid meet" version="1.0"><defs><clipPath id="7ef6e3feb9"><path d="M 167.441406 57.488281 L 370.6875 57.488281 L 370.6875 281.675781 L 167.441406 281.675781 Z M 167.441406 57.488281 " clip-rule="nonzero"/></clipPath><clipPath id="94dd243e1e"><path d="M 4.242188 108.039062 L 209.605469 108.039062 L 209.605469 331.988281 L 4.242188 331.988281 Z M 4.242188 108.039062 " clip-rule="nonzero"/></clipPath></defs><g clip-path="url(#7ef6e3feb9)"><path fill="#fffad7" d="M 330.847656 149.234375 C 328.007812 151.691406 316.113281 159.101562 300.589844 152.074219 C 281.402344 143.40625 281.605469 124.488281 282.28125 120.683594 C 282.6875 118.398438 285.53125 117.578125 286.878906 119.308594 C 289.28125 122.324219 292.09375 125.484375 295.433594 128.558594 C 300.675781 133.449219 307.269531 139.570312 317.871094 142.734375 C 322.089844 143.992188 326.105469 144.519531 329.589844 144.664062 C 331.902344 144.78125 332.664062 147.652344 330.847656 149.234375 Z M 315.03125 189.292969 C 310.578125 189.292969 306.972656 185.691406 306.972656 181.238281 C 306.972656 176.789062 315.03125 165.867188 315.03125 165.867188 C 315.03125 165.867188 323.085938 176.789062 323.085938 181.238281 C 323.085938 185.691406 319.484375 189.292969 315.03125 189.292969 Z M 341.597656 78.546875 C 322.089844 82.554688 296.195312 84.929688 266.609375 79.980469 C 242.410156 75.9375 222.34375 68.089844 206.964844 60.214844 C 193.078125 53.097656 176.234375 60.503906 172.367188 75.617188 C 170.332031 83.476562 168.644531 92.175781 167.535156 101.53125 C 171.261719 100.117188 175.15625 99.394531 179.167969 99.394531 C 193.925781 99.394531 206.980469 109.3125 210.917969 123.503906 C 211.332031 124.988281 211.707031 126.410156 212.054688 127.796875 C 212.71875 127.769531 213.378906 127.753906 214.050781 127.710938 C 221.230469 127.300781 230.222656 126.773438 239.890625 121.679688 C 243.757812 119.628906 246.921875 117.285156 249.5 115.03125 C 251.167969 113.539062 253.777344 114.855469 253.628906 117.082031 C 253.394531 120.566406 252.457031 125.015625 249.675781 129.351562 C 245.453125 135.910156 239.449219 138.429688 236.171875 139.804688 C 233.847656 140.800781 225.058594 144.476562 215.082031 141.980469 C 215.234375 142.828125 215.402344 143.648438 215.542969 144.503906 C 217.074219 153.648438 217.980469 162.941406 218.238281 172.117188 C 218.523438 182.035156 218.324219 191.972656 217.722656 201.816406 C 226.988281 194.070312 236.71875 190.78125 242.261719 189.320312 C 255.121094 187.535156 265.054688 192.101562 268.863281 193.917969 C 271.148438 195.03125 283.976562 201.386719 291.507812 215.882812 C 295.726562 224.050781 298.421875 235.003906 295.667969 236.585938 C 293.675781 237.753906 289.984375 233.15625 283.246094 228.328125 C 283.246094 228.328125 271.324219 219.660156 253.425781 216.085938 C 238.324219 213.058594 225.160156 217.679688 215.957031 221.242188 C 215.546875 224.636719 215.109375 227.972656 214.617188 231.148438 C 212.796875 242.523438 210.339844 253.207031 207.351562 263.03125 C 217.917969 272.351562 231.027344 278.792969 247.332031 281.007812 C 310.722656 289.585938 349.65625 210.523438 364.976562 148.882812 C 369.195312 131.867188 370.632812 115.996094 370.691406 102.175781 C 370.71875 86.832031 356.628906 75.46875 341.597656 78.546875 " fill-opacity="1" fill-rule="nonzero"/></g><g clip-path="url(#94dd243e1e)"><path fill="#fffad7" d="M 36.03125 195.941406 C 37.054688 192.632812 39.019531 188.53125 42.738281 184.988281 C 48.394531 179.601562 54.808594 178.546875 58.324219 177.988281 C 59.40625 177.816406 61.769531 177.4375 64.835938 177.4375 C 70.15625 177.4375 77.601562 178.585938 84.160156 183.992188 C 88.292969 187.417969 90.78125 191.429688 92.277344 194.738281 C 93.035156 196.457031 91.699219 198.21875 89.984375 198.21875 C 89.710938 198.21875 89.425781 198.175781 89.140625 198.078125 C 85.507812 196.847656 81.4375 195.765625 76.953125 194.945312 C 72.707031 194.167969 67.808594 193.277344 62.269531 193.277344 C 58.609375 193.277344 54.664062 193.667969 50.441406 194.738281 C 46.195312 195.792969 42.5625 197.347656 39.546875 198.925781 C 39.152344 199.136719 38.75 199.230469 38.363281 199.230469 C 36.796875 199.230469 35.488281 197.679688 36.03125 195.941406 Z M 113.375 259.210938 C 115.34375 259.210938 117.386719 259.140625 119.488281 258.984375 C 144.289062 257.15625 158.917969 237.511719 164.875 237.511719 C 165.398438 237.511719 165.855469 237.660156 166.246094 237.992188 C 170.050781 241.242188 161.703125 256.554688 160.914062 258.019531 C 153.703125 271.195312 143.1875 278.402344 137.445312 281.769531 C 130.984375 284.578125 124.851562 285.347656 119.925781 285.347656 C 115.761719 285.347656 112.460938 284.796875 110.554688 284.460938 C 108.066406 284.023438 94.003906 281.328125 82.84375 269.382812 C 76.601562 262.648438 71.097656 252.808594 73.292969 250.523438 C 73.582031 250.226562 73.972656 250.097656 74.46875 250.097656 C 76.71875 250.097656 81.085938 252.824219 87.5 255.179688 C 87.5 255.179688 98.292969 259.210938 113.375 259.210938 Z M 128.71875 190.84375 C 129.566406 187.183594 134.839844 174.210938 151.539062 170.757812 C 153.996094 170.246094 156.316406 170.015625 158.5 170.015625 C 160.820312 170.015625 162.992188 170.273438 165.015625 170.726562 C 176.992188 173.390625 183.527344 182.792969 184.816406 185.425781 C 185.703125 187.277344 184.363281 189.335938 182.574219 189.335938 C 182.351562 189.335938 182.121094 189.300781 181.886719 189.234375 C 178.195312 188.179688 174.066406 187.300781 169.523438 186.746094 C 168.734375 186.65625 167.886719 186.542969 167.035156 186.453125 C 164.398438 186.164062 161.546875 185.910156 158.496094 185.910156 C 153.808594 185.910156 148.648438 186.503906 143.042969 188.472656 C 138.882812 189.9375 135.339844 191.839844 132.410156 193.800781 C 131.976562 194.085938 131.527344 194.210938 131.09375 194.210938 C 129.59375 194.210938 128.308594 192.6875 128.71875 190.84375 Z M 11.246094 201.882812 C 27.0625 259.339844 58.753906 331.988281 120.261719 331.988281 C 123.925781 331.988281 127.683594 331.730469 131.558594 331.195312 C 166.417969 326.394531 187.042969 298.019531 198.230469 262.878906 C 201.601562 252.308594 204.121094 241.125 205.9375 229.761719 C 206.730469 224.667969 207.371094 219.511719 207.898438 214.386719 C 209.394531 200.011719 209.835938 185.660156 209.453125 172.367188 C 209.191406 162.996094 208.25 154.183594 206.875 145.953125 C 206.171875 141.707031 205.351562 137.609375 204.414062 133.714844 C 203.828125 131.019531 203.15625 128.382812 202.453125 125.867188 C 199.425781 114.960938 189.597656 108.179688 179.167969 108.179688 C 175.457031 108.179688 171.671875 109.035156 168.089844 110.875 C 166.773438 111.546875 165.394531 112.21875 163.988281 112.921875 C 146.707031 121.296875 123.855469 129.441406 96.203125 132.367188 C 88.804688 133.148438 81.675781 133.492188 74.863281 133.492188 C 59.238281 133.492188 45.265625 131.691406 33.453125 129.261719 C 31.765625 128.917969 30.089844 128.753906 28.445312 128.753906 C 15.199219 128.75 3.984375 139.507812 4.246094 153.390625 C 4.539062 167.742188 6.386719 184.226562 11.246094 201.882812 " fill-opacity="1" fill-rule="nonzero"/></g></svg>