<svg xmlns="http://www.w3.org/2000/svg" xmlns:xlink="http://www.w3.org/1999/xlink" width="500" zoomAndPan="magnify" viewBox="0 0 375 374.999991" height="500" preserveAspectRatio="xMidYMid meet" version="1.0"><defs><clipPath id="6d23c9990f"><path d="M 1.257812 69.003906 L 374 69.003906 L 374 306.003906 L 1.257812 306.003906 Z M 1.257812 69.003906 " clip-rule="nonzero"/></clipPath></defs><g clip-path="url(#6d23c9990f)"><path fill="#fffad7" d="M 255.394531 170.574219 C 283.429688 170.574219 306.046875 147.808594 306.046875 119.789062 C 306.046875 91.773438 283.429688 69.003906 255.394531 69.003906 C 227.359375 69.003906 204.574219 91.773438 204.574219 119.789062 C 204.574219 147.808594 227.359375 170.574219 255.394531 170.574219 Z M 119.875 170.574219 C 147.910156 170.574219 170.523438 147.808594 170.523438 119.789062 C 170.523438 91.773438 147.910156 69.003906 119.875 69.003906 C 91.839844 69.003906 69.054688 91.773438 69.054688 119.789062 C 69.054688 147.808594 91.839844 170.574219 119.875 170.574219 Z M 119.875 204.433594 C 80.320312 204.433594 1.292969 224.238281 1.292969 263.683594 L 1.292969 306.003906 L 238.453125 306.003906 L 238.453125 263.683594 C 238.453125 224.238281 159.429688 204.433594 119.875 204.433594 Z M 255.394531 204.433594 C 250.480469 204.433594 244.976562 204.773438 239.046875 205.363281 C 258.699219 219.5 272.335938 238.542969 272.335938 263.683594 L 272.335938 306.003906 L 373.972656 306.003906 L 373.972656 263.683594 C 373.972656 224.238281 294.949219 204.433594 255.394531 204.433594 Z M 255.394531 204.433594 " fill-opacity="1" fill-rule="nonzero"/></g></svg>