<svg xmlns="http://www.w3.org/2000/svg" xmlns:xlink="http://www.w3.org/1999/xlink" width="500" zoomAndPan="magnify" viewBox="0 0 375 374.999991" height="500" preserveAspectRatio="xMidYMid meet" version="1.0"><defs><clipPath id="ade46115dd"><path d="M 1.628906 24.628906 L 373.628906 24.628906 L 373.628906 350.128906 L 1.628906 350.128906 Z M 1.628906 24.628906 " clip-rule="nonzero"/></clipPath></defs><g clip-path="url(#ade46115dd)"><path fill="#fffad7" d="M 361.058594 270.320312 L 277.582031 270.320312 C 269.796875 250.214844 255.066406 233.101562 235.644531 222.832031 C 252.351562 208.804688 262.058594 188.367188 262.058594 166.296875 C 262.058594 135.261719 242.894531 108.644531 215.773438 97.535156 C 216.570312 64.164062 243.878906 37.230469 277.484375 37.230469 C 311.59375 37.230469 339.347656 64.9375 339.347656 98.996094 C 339.347656 120.453125 328.289062 140.0625 309.757812 151.453125 C 307.703125 152.710938 306.5625 155.011719 306.785156 157.398438 C 307.019531 159.773438 308.578125 161.820312 310.824219 162.667969 C 340.871094 173.992188 361.058594 203.09375 361.058594 235.082031 Z M 271.203125 337.613281 L 104.054688 337.613281 L 104.054688 302.375 C 104.054688 270.390625 124.246094 241.285156 154.292969 229.960938 C 156.539062 229.117188 158.097656 227.066406 158.332031 224.691406 C 158.550781 222.308594 157.410156 220 155.363281 218.746094 C 136.828125 207.355469 125.765625 187.746094 125.765625 166.296875 C 125.765625 132.234375 153.519531 104.53125 187.628906 104.53125 C 221.738281 104.53125 249.492188 132.234375 249.492188 166.296875 C 249.492188 187.746094 238.429688 207.355469 219.894531 218.746094 C 217.847656 220 216.707031 222.308594 216.925781 224.691406 C 217.160156 227.066406 218.71875 229.117188 220.964844 229.960938 C 251.011719 241.285156 271.203125 270.390625 271.203125 302.375 Z M 97.675781 270.320312 L 14.199219 270.320312 L 14.199219 235.082031 C 14.199219 203.09375 34.386719 173.992188 64.433594 162.667969 C 66.679688 161.820312 68.238281 159.773438 68.472656 157.398438 C 68.695312 155.011719 67.554688 152.710938 65.5 151.453125 C 46.96875 140.0625 35.910156 120.453125 35.910156 98.996094 C 35.910156 64.9375 63.664062 37.230469 97.773438 37.230469 C 131.378906 37.230469 158.6875 64.164062 159.484375 97.535156 C 132.363281 108.644531 113.199219 135.261719 113.199219 166.296875 C 113.199219 188.367188 122.90625 208.804688 139.613281 222.832031 C 120.191406 233.101562 105.460938 250.214844 97.675781 270.320312 Z M 325.503906 155.539062 C 342.207031 141.511719 351.914062 121.070312 351.914062 98.996094 C 351.914062 58.015625 318.53125 24.679688 277.484375 24.679688 C 238.242188 24.679688 206.078125 55.179688 203.328125 93.675781 C 198.261719 92.585938 193.015625 91.980469 187.628906 91.980469 C 182.242188 91.980469 176.996094 92.585938 171.929688 93.675781 C 169.179688 55.179688 137.015625 24.679688 97.773438 24.679688 C 56.726562 24.679688 23.34375 58.015625 23.34375 98.996094 C 23.34375 121.070312 33.050781 141.511719 49.753906 155.539062 C 20.578125 170.964844 1.628906 201.667969 1.628906 235.082031 L 1.628906 276.59375 C 1.628906 280.066406 4.441406 282.871094 7.914062 282.871094 L 93.871094 282.871094 C 92.433594 289.21875 91.488281 295.714844 91.488281 302.375 L 91.488281 343.886719 C 91.488281 347.359375 94.296875 350.164062 97.773438 350.164062 L 277.484375 350.164062 C 280.960938 350.164062 283.769531 347.359375 283.769531 343.886719 L 283.769531 302.375 C 283.769531 295.714844 282.824219 289.21875 281.386719 282.871094 L 367.34375 282.871094 C 370.816406 282.871094 373.628906 280.066406 373.628906 276.59375 L 373.628906 235.082031 C 373.628906 201.667969 354.679688 170.964844 325.503906 155.539062 " fill-opacity="1" fill-rule="nonzero"/></g></svg>