<svg xmlns="http://www.w3.org/2000/svg" xmlns:xlink="http://www.w3.org/1999/xlink" width="500" zoomAndPan="magnify" viewBox="0 0 375 374.999991" height="500" preserveAspectRatio="xMidYMid meet" version="1.0"><defs><clipPath id="f67f2d9cb5"><path d="M 2.183594 46 L 372.683594 46 L 372.683594 329.75 L 2.183594 329.75 Z M 2.183594 46 " clip-rule="nonzero"/></clipPath></defs><g clip-path="url(#f67f2d9cb5)"><path fill="#fffad7" d="M 273.910156 239.332031 C 273.5 238.921875 273.5 238.097656 273.5 237.277344 L 273.5 158.898438 C 273.5 114.171875 239.480469 77.648438 195.628906 73.132812 L 195.628906 54.257812 C 195.628906 49.742188 191.941406 46.050781 187.433594 46.050781 C 182.921875 46.050781 179.234375 49.742188 179.234375 54.257812 L 179.234375 73.132812 C 135.792969 77.238281 101.363281 114.171875 101.363281 158.898438 L 101.363281 237.6875 C 101.363281 238.507812 100.953125 238.921875 100.542969 239.332031 L 80.050781 259.847656 C 76.363281 263.542969 74.722656 268.054688 74.722656 273.390625 L 74.722656 279.546875 C 74.722656 289.804688 83.332031 298.421875 93.578125 298.421875 L 150.957031 298.421875 C 153.824219 315.65625 168.988281 329.199219 187.433594 329.199219 C 205.875 329.199219 221.039062 316.066406 223.90625 298.421875 L 281.285156 298.421875 C 291.53125 298.421875 300.140625 289.804688 300.140625 279.546875 L 300.140625 273.390625 C 300.140625 268.464844 298.089844 263.542969 294.8125 259.847656 Z M 187.433594 312.785156 C 178.414062 312.785156 170.628906 306.628906 168.167969 298.421875 L 207.105469 298.421875 C 204.234375 306.628906 196.449219 312.785156 187.433594 312.785156 Z M 283.746094 279.546875 C 283.746094 280.777344 282.515625 282.007812 281.285156 282.007812 L 93.578125 282.007812 C 92.347656 282.007812 91.117188 280.777344 91.117188 279.546875 L 91.117188 273.390625 C 91.117188 272.570312 91.527344 272.160156 91.9375 271.75 L 112.429688 251.230469 C 116.117188 247.539062 117.757812 243.023438 117.757812 237.6875 L 117.757812 158.898438 C 117.757812 120.734375 148.90625 89.136719 187.433594 89.136719 C 225.957031 89.136719 257.105469 120.324219 257.105469 158.898438 L 257.105469 237.6875 C 257.105469 242.613281 259.15625 247.539062 262.433594 251.230469 L 282.925781 271.75 C 283.335938 272.160156 283.746094 272.980469 283.746094 273.390625 Z M 75.132812 230.710938 C 73.496094 232.355469 71.445312 233.175781 69.398438 233.175781 C 67.347656 233.175781 65.296875 232.355469 63.660156 230.710938 C 50.542969 217.582031 43.167969 199.9375 43.167969 181.46875 C 43.167969 163.003906 50.542969 145.359375 63.660156 132.226562 C 66.9375 128.945312 71.855469 128.945312 75.132812 132.226562 C 78.414062 135.507812 78.414062 140.433594 75.132812 143.714844 C 64.886719 153.976562 59.558594 167.105469 59.558594 181.46875 C 59.558594 195.832031 65.296875 208.964844 75.132812 219.222656 C 78.414062 222.503906 78.414062 227.429688 75.132812 230.710938 Z M 46.035156 248.359375 C 49.3125 251.640625 49.3125 256.566406 46.035156 259.847656 C 44.394531 261.488281 42.347656 262.308594 40.296875 262.308594 C 38.25 262.308594 36.199219 261.488281 34.558594 259.847656 C 13.65625 238.921875 2.183594 211.015625 2.183594 181.46875 C 2.183594 151.921875 13.65625 124.019531 34.558594 103.089844 C 37.839844 99.808594 42.757812 99.808594 46.035156 103.089844 C 49.3125 106.375 49.3125 111.296875 46.035156 114.582031 C 28.410156 132.226562 18.574219 156.027344 18.574219 181.46875 C 18.574219 206.910156 28.410156 230.300781 46.035156 248.359375 Z M 311.207031 230.710938 C 309.566406 232.355469 307.515625 233.175781 305.46875 233.175781 C 303.417969 233.175781 301.367188 232.355469 299.730469 230.710938 C 296.449219 227.429688 296.449219 222.503906 299.730469 219.222656 C 320.632812 198.292969 320.632812 164.644531 299.730469 143.714844 C 296.449219 140.433594 296.449219 135.507812 299.730469 132.226562 C 303.007812 128.945312 307.925781 128.945312 311.207031 132.226562 C 338.253906 159.308594 338.253906 203.628906 311.207031 230.710938 Z M 372.683594 181.46875 C 372.683594 211.015625 361.207031 238.921875 340.304688 259.847656 C 338.664062 261.488281 336.617188 262.308594 334.566406 262.308594 C 332.515625 262.308594 330.46875 261.488281 328.828125 259.847656 C 325.550781 256.566406 325.550781 251.640625 328.828125 248.359375 C 346.453125 230.710938 356.289062 206.910156 356.289062 181.46875 C 356.289062 156.027344 346.453125 132.636719 328.828125 114.582031 C 325.550781 111.296875 325.550781 106.375 328.828125 103.089844 C 332.105469 99.808594 337.023438 99.808594 340.304688 103.089844 C 361.207031 124.019531 372.683594 151.921875 372.683594 181.46875 Z M 372.683594 181.46875 " fill-opacity="1" fill-rule="nonzero"/></g></svg>