<svg xmlns="http://www.w3.org/2000/svg" xmlns:xlink="http://www.w3.org/1999/xlink" width="197" zoomAndPan="magnify" viewBox="0 0 147.75 119.249998" height="159" preserveAspectRatio="xMidYMid meet" version="1.0"><defs><g/><clipPath id="92a5f58da9"><path d="M 61 48 L 136 48 L 136 116 L 61 116 Z M 61 48 " clip-rule="nonzero"/></clipPath><clipPath id="21af9084f9"><path d="M 56.71875 53.152344 L 135.675781 47.78125 L 140.082031 112.582031 L 61.125 117.953125 Z M 56.71875 53.152344 " clip-rule="nonzero"/></clipPath><clipPath id="48a826056f"><path d="M 56.71875 53.152344 L 135.675781 47.78125 L 140.082031 112.582031 L 61.125 117.953125 Z M 56.71875 53.152344 " clip-rule="nonzero"/></clipPath></defs><g clip-path="url(#92a5f58da9)"><g clip-path="url(#21af9084f9)"><g clip-path="url(#48a826056f)"><path fill="#e08264" d="M 126.515625 52.632812 C 126.324219 53.417969 126.09375 54.210938 125.816406 55.007812 C 125.371094 54.871094 124.925781 54.734375 124.476562 54.601562 C 124.785156 53.8125 125.046875 53.027344 125.265625 52.25 C 125.683594 52.378906 126.101562 52.503906 126.515625 52.632812 Z M 133.226562 56.359375 C 132.683594 62.097656 130.023438 68.09375 124.75 73.671875 C 121.507812 72.6875 118.269531 71.703125 115.03125 70.71875 C 121.453125 65.488281 125.21875 59.832031 126.75 54.390625 C 128.910156 55.046875 131.066406 55.703125 133.226562 56.359375 Z M 135.234375 55.277344 C 135.242188 56.125 135.210938 56.976562 135.140625 57.839844 C 134.695312 57.703125 134.25 57.570312 133.804688 57.433594 C 133.902344 56.582031 133.960938 55.734375 133.984375 54.898438 C 134.398438 55.023438 134.816406 55.152344 135.234375 55.277344 Z M 134.933594 59.628906 C 134.804688 60.496094 134.628906 61.367188 134.40625 62.242188 C 133.910156 62.089844 133.410156 61.9375 132.914062 61.785156 C 133.167969 60.921875 133.375 60.0625 133.535156 59.203125 C 134 59.34375 134.46875 59.488281 134.933594 59.628906 Z M 133.875 64.050781 C 133.582031 64.921875 133.242188 65.792969 132.847656 66.664062 C 132.292969 66.496094 131.742188 66.332031 131.191406 66.164062 C 131.617188 65.300781 131.992188 64.4375 132.316406 63.574219 C 132.835938 63.734375 133.355469 63.890625 133.875 64.050781 Z M 131.953125 68.464844 C 131.484375 69.328125 130.964844 70.191406 130.390625 71.046875 C 129.785156 70.863281 129.175781 70.679688 128.570312 70.492188 C 129.175781 69.648438 129.730469 68.796875 130.230469 67.941406 C 130.804688 68.113281 131.378906 68.289062 131.953125 68.464844 Z M 129.128906 72.8125 C 128.484375 73.660156 127.785156 74.5 127.039062 75.335938 C 126.375 75.132812 125.710938 74.929688 125.046875 74.730469 C 125.828125 73.90625 126.558594 73.074219 127.238281 72.238281 C 127.867188 72.429688 128.5 72.621094 129.128906 72.8125 Z M 125.425781 77.050781 C 124.617188 77.875 123.757812 78.6875 122.863281 79.496094 C 122.140625 79.277344 121.417969 79.054688 120.695312 78.835938 C 121.625 78.039062 122.515625 77.234375 123.363281 76.421875 C 124.050781 76.632812 124.738281 76.839844 125.425781 77.050781 Z M 120.953125 81.15625 C 120.003906 81.953125 119.023438 82.738281 118.011719 83.519531 C 117.230469 83.285156 116.449219 83.046875 115.667969 82.808594 C 116.710938 82.039062 117.730469 81.261719 118.710938 80.476562 C 119.457031 80.703125 120.203125 80.929688 120.953125 81.15625 Z M 115.886719 85.128906 C 114.847656 85.898438 113.789062 86.664062 112.71875 87.421875 C 111.878906 87.167969 111.039062 86.914062 110.195312 86.65625 C 111.300781 85.910156 112.394531 85.15625 113.472656 84.394531 C 114.277344 84.636719 115.082031 84.882812 115.886719 85.128906 Z M 110.5 88.988281 C 109.421875 89.742188 108.347656 90.492188 107.285156 91.238281 C 106.386719 90.964844 105.484375 90.691406 104.585938 90.417969 C 105.683594 89.683594 106.792969 88.945312 107.902344 88.203125 C 108.769531 88.464844 109.632812 88.726562 110.5 88.988281 Z M 105.105469 92.78125 C 104.066406 93.527344 103.046875 94.269531 102.0625 95.015625 C 101.105469 94.722656 100.148438 94.433594 99.191406 94.140625 C 100.210938 93.40625 101.261719 92.675781 102.335938 91.941406 C 103.257812 92.21875 104.183594 92.5 105.105469 92.78125 Z M 100.082031 96.5625 C 99.152344 97.308594 98.269531 98.058594 97.441406 98.816406 C 96.425781 98.507812 95.414062 98.199219 94.398438 97.894531 C 95.257812 97.144531 96.175781 96.40625 97.140625 95.667969 C 98.121094 95.964844 99.101562 96.261719 100.082031 96.5625 Z M 95.816406 100.394531 C 95.074219 101.15625 94.402344 101.929688 93.808594 102.710938 C 92.738281 102.386719 91.671875 102.0625 90.601562 101.738281 C 91.226562 100.964844 91.933594 100.203125 92.707031 99.449219 C 93.742188 99.761719 94.78125 100.078125 95.816406 100.394531 Z M 92.695312 104.34375 C 92.214844 105.136719 91.824219 105.945312 91.527344 106.761719 C 90.40625 106.421875 89.285156 106.078125 88.164062 105.738281 C 88.488281 104.929688 88.910156 104.136719 89.421875 103.351562 C 90.511719 103.679688 91.601562 104.011719 92.695312 104.34375 Z M 91.0625 108.472656 C 90.90625 109.304688 90.851562 110.152344 90.914062 111.015625 C 89.742188 110.660156 88.570312 110.304688 87.398438 109.949219 C 87.367188 109.09375 87.449219 108.257812 87.632812 107.429688 C 88.777344 107.777344 89.917969 108.125 91.0625 108.472656 Z M 68.605469 102.550781 C 70.417969 97.195312 77.558594 92.5625 86.058594 87.964844 C 90.683594 89.371094 95.308594 90.773438 99.9375 92.179688 C 92.585938 97.128906 86.550781 102.09375 85.726562 107.75 C 80.019531 106.015625 74.3125 104.285156 68.605469 102.550781 Z M 62.914062 102.511719 C 63.082031 101.71875 63.367188 100.941406 63.757812 100.179688 C 64.902344 100.527344 66.042969 100.875 67.183594 101.21875 C 66.824219 101.992188 66.566406 102.777344 66.429688 103.578125 C 65.257812 103.222656 64.085938 102.867188 62.914062 102.511719 Z M 64.71875 98.621094 C 65.257812 97.875 65.894531 97.144531 66.621094 96.425781 C 67.710938 96.757812 68.804688 97.085938 69.894531 97.417969 C 69.195312 98.148438 68.589844 98.886719 68.085938 99.640625 C 66.964844 99.300781 65.84375 98.960938 64.71875 98.621094 Z M 68.253906 94.949219 C 69.101562 94.246094 70.035156 93.550781 71.03125 92.867188 C 72.070312 93.179688 73.105469 93.496094 74.144531 93.808594 C 73.175781 94.507812 72.277344 95.210938 71.460938 95.925781 C 70.394531 95.601562 69.324219 95.277344 68.253906 94.949219 Z M 73.199219 91.453125 C 74.289062 90.777344 75.4375 90.105469 76.632812 89.441406 C 77.613281 89.738281 78.59375 90.035156 79.574219 90.332031 C 78.414062 91.011719 77.296875 91.691406 76.242188 92.378906 C 75.226562 92.070312 74.210938 91.761719 73.199219 91.453125 Z M 79.171875 88.0625 C 80.425781 87.398438 81.714844 86.738281 83.027344 86.078125 C 83.953125 86.355469 84.875 86.636719 85.800781 86.917969 C 84.519531 87.589844 83.265625 88.261719 82.046875 88.933594 C 81.085938 88.644531 80.128906 88.351562 79.171875 88.0625 Z M 85.777344 84.707031 C 87.113281 84.042969 88.464844 83.378906 89.816406 82.707031 C 90.683594 82.972656 91.546875 83.234375 92.414062 83.496094 C 91.097656 84.175781 89.78125 84.851562 88.476562 85.523438 C 87.578125 85.25 86.675781 84.976562 85.777344 84.707031 Z M 92.613281 81.316406 C 93.960938 80.640625 95.296875 79.960938 96.617188 79.273438 C 97.421875 79.519531 98.230469 79.765625 99.035156 80.011719 C 97.75 80.707031 96.449219 81.398438 95.136719 82.082031 C 94.296875 81.828125 93.457031 81.574219 92.613281 81.316406 Z M 99.320312 77.84375 C 100.605469 77.148438 101.867188 76.441406 103.09375 75.730469 C 103.839844 75.957031 104.585938 76.183594 105.332031 76.414062 C 104.144531 77.136719 102.917969 77.847656 101.664062 78.554688 C 100.882812 78.316406 100.101562 78.082031 99.320312 77.84375 Z M 113.195312 72.171875 C 116.542969 73.1875 119.890625 74.203125 123.234375 75.21875 C 117.65625 80.765625 109.5625 85.855469 102.003906 90.796875 C 97.484375 89.425781 92.96875 88.054688 88.449219 86.679688 C 97.167969 82.089844 106.457031 77.363281 113.195312 72.171875 Z M 105.578125 74.246094 C 106.75 73.523438 107.882812 72.792969 108.96875 72.050781 C 109.65625 72.261719 110.347656 72.46875 111.035156 72.679688 C 109.984375 73.429688 108.886719 74.171875 107.746094 74.90625 C 107.023438 74.683594 106.300781 74.464844 105.578125 74.246094 Z M 111.152344 70.507812 C 112.171875 69.757812 113.140625 69 114.054688 68.234375 C 114.683594 68.425781 115.316406 68.617188 115.945312 68.808594 C 115.066406 69.582031 114.128906 70.351562 113.144531 71.113281 C 112.480469 70.914062 111.816406 70.710938 111.152344 70.507812 Z M 115.875 66.636719 C 116.714844 65.863281 117.5 65.082031 118.230469 64.296875 C 118.804688 64.46875 119.378906 64.644531 119.953125 64.820312 C 119.253906 65.613281 118.503906 66.40625 117.695312 67.191406 C 117.089844 67.007812 116.480469 66.820312 115.875 66.636719 Z M 119.664062 62.660156 C 120.316406 61.871094 120.917969 61.074219 121.460938 60.277344 C 121.980469 60.4375 122.5 60.59375 123.019531 60.75 C 122.503906 61.558594 121.941406 62.363281 121.320312 63.164062 C 120.765625 62.996094 120.214844 62.828125 119.664062 62.660156 Z M 122.511719 58.628906 C 122.984375 57.832031 123.40625 57.035156 123.777344 56.238281 C 124.242188 56.382812 124.710938 56.523438 125.175781 56.664062 C 124.835938 57.46875 124.445312 58.273438 124.007812 59.082031 C 123.507812 58.929688 123.011719 58.777344 122.511719 58.628906 Z M 126.027344 48.628906 C 125.851562 48.578125 125.675781 48.523438 125.503906 48.472656 C 124.765625 53.324219 122.503906 58.664062 117.6875 63.769531 C 112.972656 68.90625 105.53125 73.746094 96.863281 78.222656 C 88.28125 82.726562 78.503906 86.859375 71.382812 91.261719 C 64.214844 95.65625 59.933594 100.382812 61.300781 105.875 C 61.871094 106.046875 62.4375 106.21875 63.007812 106.390625 C 62.820312 105.640625 62.726562 104.902344 62.734375 104.175781 C 63.925781 104.539062 65.113281 104.898438 66.304688 105.261719 C 66.324219 105.996094 66.441406 106.742188 66.652344 107.5 C 67.269531 107.6875 67.886719 107.875 68.503906 108.0625 C 68.097656 106.6875 68.011719 105.351562 68.222656 104.058594 C 74.019531 105.820312 79.816406 107.578125 85.613281 109.339844 C 85.628906 110.703125 85.9375 112.105469 86.554688 113.542969 C 87.171875 113.730469 87.789062 113.917969 88.40625 114.105469 C 88.050781 113.304688 87.792969 112.511719 87.625 111.734375 C 88.816406 112.097656 90.003906 112.457031 91.195312 112.820312 C 91.390625 113.605469 91.671875 114.402344 92.050781 115.214844 C 92.621094 115.386719 93.1875 115.558594 93.757812 115.730469 C 90.835938 109.765625 93.328125 104.496094 98.582031 99.523438 C 103.785156 94.539062 111.527344 89.785156 118.074219 84.664062 C 124.707031 79.570312 130.113281 74.109375 132.917969 68.398438 C 135.820312 62.707031 136.289062 56.824219 135.472656 51.5 C 135.300781 51.445312 135.125 51.394531 134.949219 51.339844 C 135.046875 52.0625 135.121094 52.796875 135.167969 53.539062 C 134.769531 53.417969 134.375 53.300781 133.976562 53.179688 C 133.953125 52.441406 133.902344 51.714844 133.828125 51 C 133.640625 50.941406 133.449219 50.882812 133.261719 50.828125 C 133.371094 52.113281 133.40625 53.429688 133.34375 54.769531 C 131.277344 54.144531 129.207031 53.515625 127.140625 52.886719 C 127.425781 51.613281 127.613281 50.363281 127.714844 49.144531 C 127.527344 49.085938 127.335938 49.027344 127.148438 48.96875 C 127.078125 49.644531 126.980469 50.324219 126.859375 51.015625 C 126.460938 50.894531 126.0625 50.773438 125.667969 50.65625 C 125.8125 49.972656 125.933594 49.296875 126.027344 48.628906 " fill-opacity="1" fill-rule="nonzero"/></g></g></g><g fill="#e08264" fill-opacity="0.7686"><g transform="translate(22.376328, 108.076917)"><g><path d="M 81.492188 -33.507812 C 78.585938 -22.8125 74.207031 -17.792969 70.042969 -17.429688 C 68.273438 -17.277344 67.019531 -18.328125 66.867188 -20.097656 C 66.796875 -20.894531 66.976562 -21.890625 67.238281 -22.984375 L 78.105469 -63.191406 C 78.652344 -65.113281 78.917969 -67.1875 78.703125 -69.667969 C 77.976562 -77.992188 71.328125 -83.660156 62.292969 -82.875 C 56.980469 -82.410156 50.789062 -79.730469 47.003906 -75.027344 C 43.898438 -78.953125 41.039062 -81.023438 35.019531 -80.5 C 29.351562 -80.003906 25.9375 -76.140625 25.625 -75.664062 C 24.722656 -77.816406 22.089844 -79.375 18.722656 -79.082031 C 16.15625 -78.855469 12.707031 -77.484375 11.765625 -73.921875 L -5.441406 -8.179688 C -5.71875 -7.265625 -5.648438 -6.46875 -5.578125 -5.671875 C -5.242188 -1.773438 -1.949219 0.167969 1.503906 -0.132812 C 4.515625 -0.394531 7.640625 -2.449219 8.714844 -6.46875 L 21.660156 -55.601562 C 23.269531 -61.71875 26.277344 -65.105469 30.261719 -65.449219 C 34.867188 -65.851562 36.414062 -62.417969 34.535156 -55.292969 L 22.746094 -11.347656 C 22.410156 -10.070312 22.246094 -8.898438 22.332031 -7.921875 C 22.664062 -4.113281 25.945312 -2.257812 29.3125 -2.550781 C 32.410156 -2.820312 35.535156 -4.878906 36.605469 -8.988281 L 49.125 -56.832031 C 50.726562 -63.039062 53.914062 -67.421875 58.253906 -67.800781 C 61.707031 -68.101562 64.269531 -65.289062 63.054688 -60.8125 L 53.640625 -25.460938 C 53.042969 -23.089844 52.816406 -20.570312 52.992188 -18.535156 C 53.757812 -9.765625 61.191406 -5.328125 69.78125 -6.074219 C 79.523438 -6.921875 88.265625 -14.109375 92.253906 -31.855469 C 92.371094 -32.578125 92.492188 -33.214844 92.4375 -33.835938 C 92.167969 -36.933594 89.359375 -38.472656 86.703125 -38.242188 C 84.398438 -38.042969 82.300781 -36.519531 81.492188 -33.507812 Z M 81.492188 -33.507812 "/></g></g></g><g fill="#e08264" fill-opacity="0.7686"><g transform="translate(103.051352, 101.053147)"><g><path d="M 17.6875 -16.171875 C 13.613281 -15.820312 10.703125 -12.351562 11.058594 -8.28125 C 11.402344 -4.292969 14.878906 -1.296875 18.949219 -1.648438 C 22.9375 -1.996094 25.925781 -5.558594 25.582031 -9.542969 C 25.226562 -13.617188 21.671875 -16.519531 17.6875 -16.171875 Z M 17.6875 -16.171875 "/></g></g></g><g fill="#fffad7" fill-opacity="1"><g transform="translate(20.028177, 105.556695)"><g><path d="M 81.492188 -33.507812 C 78.585938 -22.8125 74.207031 -17.792969 70.042969 -17.429688 C 68.273438 -17.277344 67.019531 -18.328125 66.867188 -20.097656 C 66.796875 -20.894531 66.976562 -21.890625 67.238281 -22.984375 L 78.105469 -63.191406 C 78.652344 -65.113281 78.917969 -67.1875 78.703125 -69.667969 C 77.976562 -77.992188 71.328125 -83.660156 62.292969 -82.875 C 56.980469 -82.410156 50.789062 -79.730469 47.003906 -75.027344 C 43.898438 -78.953125 41.039062 -81.023438 35.019531 -80.5 C 29.351562 -80.003906 25.9375 -76.140625 25.625 -75.664062 C 24.722656 -77.816406 22.089844 -79.375 18.722656 -79.082031 C 16.15625 -78.855469 12.707031 -77.484375 11.765625 -73.921875 L -5.441406 -8.179688 C -5.71875 -7.265625 -5.648438 -6.46875 -5.578125 -5.671875 C -5.242188 -1.773438 -1.949219 0.167969 1.503906 -0.132812 C 4.515625 -0.394531 7.640625 -2.449219 8.714844 -6.46875 L 21.660156 -55.601562 C 23.269531 -61.71875 26.277344 -65.105469 30.261719 -65.449219 C 34.867188 -65.851562 36.414062 -62.417969 34.535156 -55.292969 L 22.746094 -11.347656 C 22.410156 -10.070312 22.246094 -8.898438 22.332031 -7.921875 C 22.664062 -4.113281 25.945312 -2.257812 29.3125 -2.550781 C 32.410156 -2.820312 35.535156 -4.878906 36.605469 -8.988281 L 49.125 -56.832031 C 50.726562 -63.039062 53.914062 -67.421875 58.253906 -67.800781 C 61.707031 -68.101562 64.269531 -65.289062 63.054688 -60.8125 L 53.640625 -25.460938 C 53.042969 -23.089844 52.816406 -20.570312 52.992188 -18.535156 C 53.757812 -9.765625 61.191406 -5.328125 69.78125 -6.074219 C 79.523438 -6.921875 88.265625 -14.109375 92.253906 -31.855469 C 92.371094 -32.578125 92.492188 -33.214844 92.4375 -33.835938 C 92.167969 -36.933594 89.359375 -38.472656 86.703125 -38.242188 C 84.398438 -38.042969 82.300781 -36.519531 81.492188 -33.507812 Z M 81.492188 -33.507812 "/></g></g></g><g fill="#fffad7" fill-opacity="1"><g transform="translate(100.703201, 98.532924)"><g><path d="M 17.6875 -16.171875 C 13.613281 -15.820312 10.703125 -12.351562 11.058594 -8.28125 C 11.402344 -4.292969 14.878906 -1.296875 18.949219 -1.648438 C 22.9375 -1.996094 25.925781 -5.558594 25.582031 -9.542969 C 25.226562 -13.617188 21.671875 -16.519531 17.6875 -16.171875 Z M 17.6875 -16.171875 "/></g></g></g></svg>