<svg xmlns="http://www.w3.org/2000/svg" xmlns:xlink="http://www.w3.org/1999/xlink" width="508" zoomAndPan="magnify" viewBox="0 0 381 119.999999" height="160" preserveAspectRatio="xMidYMid meet" version="1.0"><defs><g/><clipPath id="80fa860b5f"><path d="M 60 49 L 136 49 L 136 117 L 60 117 Z M 60 49 " clip-rule="nonzero"/></clipPath><clipPath id="214b6c202a"><path d="M 56.195312 53.917969 L 135.511719 48.523438 L 139.9375 113.625 L 60.621094 119.019531 Z M 56.195312 53.917969 " clip-rule="nonzero"/></clipPath><clipPath id="7b6b6a845e"><path d="M 56.195312 53.917969 L 135.511719 48.523438 L 139.9375 113.625 L 60.621094 119.019531 Z M 56.195312 53.917969 " clip-rule="nonzero"/></clipPath></defs><g clip-path="url(#80fa860b5f)"><g clip-path="url(#214b6c202a)"><g clip-path="url(#7b6b6a845e)"><path fill="#f6a58b" d="M 126.3125 53.398438 C 126.121094 54.183594 125.886719 54.980469 125.609375 55.78125 C 125.160156 55.648438 124.714844 55.511719 124.265625 55.375 C 124.570312 54.582031 124.835938 53.792969 125.054688 53.015625 C 125.472656 53.140625 125.894531 53.269531 126.3125 53.398438 Z M 133.054688 57.140625 C 132.507812 62.910156 129.835938 68.929688 124.535156 74.53125 C 121.28125 73.542969 118.027344 72.554688 114.773438 71.566406 C 121.226562 66.3125 125.007812 60.632812 126.546875 55.164062 C 128.714844 55.824219 130.882812 56.484375 133.054688 57.140625 Z M 135.070312 56.054688 C 135.078125 56.90625 135.046875 57.765625 134.976562 58.628906 C 134.53125 58.492188 134.082031 58.355469 133.632812 58.21875 C 133.734375 57.363281 133.792969 56.515625 133.8125 55.675781 C 134.230469 55.800781 134.652344 55.929688 135.070312 56.054688 Z M 134.769531 60.425781 C 134.640625 61.296875 134.464844 62.171875 134.238281 63.050781 C 133.738281 62.898438 133.238281 62.746094 132.738281 62.59375 C 132.996094 61.726562 133.203125 60.859375 133.363281 60 C 133.832031 60.140625 134.300781 60.285156 134.769531 60.425781 Z M 133.703125 64.867188 C 133.410156 65.742188 133.066406 66.621094 132.671875 67.496094 C 132.117188 67.328125 131.5625 67.160156 131.007812 66.992188 C 131.4375 66.125 131.8125 65.257812 132.136719 64.390625 C 132.660156 64.550781 133.183594 64.707031 133.703125 64.867188 Z M 131.773438 69.300781 C 131.304688 70.171875 130.78125 71.039062 130.203125 71.898438 C 129.59375 71.710938 128.984375 71.527344 128.375 71.339844 C 128.984375 70.492188 129.542969 69.636719 130.042969 68.777344 C 130.621094 68.953125 131.195312 69.125 131.773438 69.300781 Z M 128.9375 73.671875 C 128.289062 74.523438 127.585938 75.367188 126.839844 76.203125 C 126.171875 76 125.503906 75.796875 124.835938 75.59375 C 125.621094 74.769531 126.355469 73.933594 127.035156 73.09375 C 127.667969 73.285156 128.304688 73.476562 128.9375 73.671875 Z M 125.21875 77.925781 C 124.402344 78.753906 123.542969 79.574219 122.640625 80.382812 C 121.914062 80.164062 121.1875 79.941406 120.460938 79.722656 C 121.398438 78.921875 122.292969 78.113281 123.144531 77.296875 C 123.835938 77.507812 124.527344 77.71875 125.21875 77.925781 Z M 120.722656 82.050781 C 119.769531 82.851562 118.78125 83.644531 117.769531 84.429688 C 116.984375 84.191406 116.199219 83.949219 115.414062 83.710938 C 116.460938 82.9375 117.484375 82.15625 118.46875 81.367188 C 119.222656 81.597656 119.972656 81.824219 120.722656 82.050781 Z M 115.636719 86.042969 C 114.589844 86.816406 113.527344 87.585938 112.453125 88.347656 C 111.609375 88.09375 110.761719 87.835938 109.917969 87.578125 C 111.027344 86.828125 112.125 86.070312 113.207031 85.304688 C 114.015625 85.550781 114.824219 85.796875 115.636719 86.042969 Z M 110.21875 89.921875 C 109.140625 90.679688 108.0625 91.429688 106.992188 92.179688 C 106.089844 91.90625 105.183594 91.632812 104.28125 91.355469 C 105.382812 90.617188 106.5 89.875 107.613281 89.128906 C 108.484375 89.394531 109.351562 89.65625 110.21875 89.921875 Z M 104.804688 93.730469 C 103.757812 94.480469 102.734375 95.226562 101.746094 95.972656 C 100.785156 95.683594 99.824219 95.390625 98.863281 95.097656 C 99.882812 94.359375 100.941406 93.625 102.019531 92.886719 C 102.949219 93.167969 103.875 93.449219 104.804688 93.730469 Z M 99.753906 97.527344 C 98.824219 98.28125 97.933594 99.035156 97.105469 99.792969 C 96.085938 99.484375 95.066406 99.175781 94.046875 98.867188 C 94.910156 98.117188 95.832031 97.371094 96.800781 96.628906 C 97.785156 96.929688 98.769531 97.230469 99.753906 97.527344 Z M 95.472656 101.378906 C 94.726562 102.144531 94.050781 102.921875 93.453125 103.707031 C 92.378906 103.378906 91.304688 103.054688 90.230469 102.726562 C 90.859375 101.953125 91.570312 101.1875 92.347656 100.429688 C 93.386719 100.746094 94.429688 101.0625 95.472656 101.378906 Z M 92.335938 105.347656 C 91.851562 106.144531 91.460938 106.953125 91.164062 107.773438 C 90.035156 107.433594 88.910156 107.089844 87.785156 106.75 C 88.109375 105.9375 88.535156 105.136719 89.046875 104.347656 C 90.144531 104.679688 91.238281 105.011719 92.335938 105.347656 Z M 90.695312 109.492188 C 90.539062 110.332031 90.484375 111.183594 90.546875 112.046875 C 89.367188 111.691406 88.191406 111.332031 87.015625 110.976562 C 86.984375 110.121094 87.066406 109.277344 87.25 108.449219 C 88.398438 108.796875 89.546875 109.144531 90.695312 109.492188 Z M 68.136719 103.546875 C 69.957031 98.164062 77.128906 93.511719 85.667969 88.894531 C 90.316406 90.304688 94.960938 91.714844 99.609375 93.125 C 92.226562 98.097656 86.160156 103.085938 85.332031 108.769531 C 79.601562 107.027344 73.871094 105.285156 68.136719 103.546875 Z M 62.417969 103.507812 C 62.585938 102.710938 62.871094 101.929688 63.265625 101.164062 C 64.414062 101.511719 65.5625 101.859375 66.707031 102.207031 C 66.34375 102.984375 66.089844 103.773438 65.949219 104.578125 C 64.773438 104.222656 63.59375 103.863281 62.417969 103.507812 Z M 64.234375 99.597656 C 64.769531 98.847656 65.410156 98.113281 66.140625 97.390625 C 67.238281 97.722656 68.332031 98.058594 69.429688 98.390625 C 68.730469 99.121094 68.121094 99.867188 67.613281 100.621094 C 66.484375 100.28125 65.359375 99.9375 64.234375 99.597656 Z M 67.785156 95.910156 C 68.632812 95.203125 69.570312 94.503906 70.574219 93.816406 C 71.613281 94.132812 72.65625 94.449219 73.699219 94.765625 C 72.726562 95.464844 71.824219 96.171875 71.003906 96.890625 C 69.929688 96.5625 68.859375 96.238281 67.785156 95.910156 Z M 72.75 92.398438 C 73.84375 91.71875 75 91.042969 76.199219 90.375 C 77.183594 90.671875 78.171875 90.972656 79.15625 91.273438 C 77.988281 91.953125 76.867188 92.636719 75.804688 93.324219 C 74.785156 93.015625 73.769531 92.707031 72.75 92.398438 Z M 78.75 88.992188 C 80.011719 88.324219 81.304688 87.660156 82.625 86.996094 C 83.554688 87.277344 84.480469 87.558594 85.410156 87.839844 C 84.125 88.515625 82.863281 89.191406 81.636719 89.867188 C 80.675781 89.574219 79.714844 89.28125 78.75 88.992188 Z M 85.386719 85.617188 C 86.730469 84.953125 88.085938 84.285156 89.445312 83.613281 C 90.316406 83.875 91.183594 84.140625 92.050781 84.40625 C 90.730469 85.085938 89.40625 85.765625 88.097656 86.441406 C 87.191406 86.167969 86.289062 85.890625 85.386719 85.617188 Z M 92.253906 82.214844 C 93.605469 81.535156 94.949219 80.851562 96.277344 80.164062 C 97.085938 80.410156 97.894531 80.65625 98.707031 80.902344 C 97.414062 81.601562 96.105469 82.296875 94.789062 82.984375 C 93.945312 82.726562 93.097656 82.472656 92.253906 82.214844 Z M 98.988281 78.722656 C 100.28125 78.023438 101.550781 77.316406 102.78125 76.601562 C 103.53125 76.832031 104.28125 77.058594 105.03125 77.285156 C 103.835938 78.011719 102.605469 78.730469 101.347656 79.441406 C 100.5625 79.203125 99.773438 78.964844 98.988281 78.722656 Z M 112.929688 73.027344 C 116.292969 74.046875 119.652344 75.070312 123.015625 76.089844 C 117.414062 81.660156 109.28125 86.773438 101.6875 91.738281 C 97.148438 90.359375 92.609375 88.980469 88.070312 87.601562 C 96.828125 82.992188 106.160156 78.242188 112.929688 73.027344 Z M 105.277344 75.109375 C 106.457031 74.382812 107.59375 73.648438 108.683594 72.90625 C 109.375 73.117188 110.066406 73.328125 110.761719 73.535156 C 109.703125 74.289062 108.601562 75.035156 107.457031 75.773438 C 106.730469 75.550781 106.003906 75.332031 105.277344 75.109375 Z M 110.875 71.355469 C 111.898438 70.601562 112.875 69.839844 113.792969 69.070312 C 114.425781 69.261719 115.058594 69.457031 115.695312 69.648438 C 114.808594 70.425781 113.867188 71.199219 112.878906 71.964844 C 112.210938 71.761719 111.542969 71.558594 110.875 71.355469 Z M 115.621094 67.46875 C 116.464844 66.6875 117.253906 65.902344 117.988281 65.113281 C 118.566406 65.289062 119.140625 65.464844 119.71875 65.640625 C 119.019531 66.441406 118.261719 67.234375 117.449219 68.023438 C 116.839844 67.839844 116.230469 67.652344 115.621094 67.46875 Z M 119.429688 63.472656 C 120.085938 62.679688 120.6875 61.878906 121.234375 61.078125 C 121.753906 61.238281 122.277344 61.394531 122.796875 61.554688 C 122.28125 62.363281 121.714844 63.171875 121.089844 63.976562 C 120.535156 63.808594 119.984375 63.640625 119.429688 63.472656 Z M 122.289062 59.421875 C 122.765625 58.621094 123.1875 57.820312 123.558594 57.023438 C 124.027344 57.164062 124.496094 57.308594 124.964844 57.449219 C 124.625 58.257812 124.230469 59.066406 123.789062 59.875 C 123.289062 59.722656 122.789062 59.574219 122.289062 59.421875 Z M 125.820312 49.378906 C 125.644531 49.324219 125.46875 49.269531 125.292969 49.21875 C 124.554688 54.09375 122.28125 59.457031 117.441406 64.589844 C 112.703125 69.746094 105.230469 74.609375 96.523438 79.105469 C 87.902344 83.628906 78.082031 87.78125 70.925781 92.207031 C 63.726562 96.617188 59.421875 101.367188 60.796875 106.882812 C 61.367188 107.058594 61.9375 107.230469 62.511719 107.40625 C 62.320312 106.648438 62.230469 105.90625 62.238281 105.175781 C 63.433594 105.539062 64.628906 105.902344 65.824219 106.265625 C 65.84375 107.003906 65.960938 107.753906 66.171875 108.515625 C 66.792969 108.703125 67.414062 108.894531 68.03125 109.082031 C 67.625 107.699219 67.539062 106.359375 67.75 105.058594 C 73.574219 106.828125 79.398438 108.597656 85.222656 110.367188 C 85.238281 111.734375 85.546875 113.144531 86.167969 114.589844 C 86.785156 114.777344 87.40625 114.964844 88.027344 115.152344 C 87.671875 114.347656 87.410156 113.554688 87.242188 112.773438 C 88.4375 113.136719 89.632812 113.5 90.828125 113.863281 C 91.023438 114.652344 91.308594 115.453125 91.6875 116.265625 C 92.257812 116.4375 92.832031 116.613281 93.402344 116.785156 C 90.46875 110.792969 92.96875 105.5 98.246094 100.503906 C 103.476562 95.496094 111.253906 90.722656 117.828125 85.578125 C 124.492188 80.460938 129.925781 74.976562 132.742188 69.234375 C 135.660156 63.519531 136.128906 57.609375 135.308594 52.257812 C 135.136719 52.207031 134.957031 52.152344 134.78125 52.097656 C 134.878906 52.828125 134.957031 53.5625 135.003906 54.308594 C 134.605469 54.1875 134.207031 54.066406 133.804688 53.945312 C 133.78125 53.207031 133.730469 52.476562 133.660156 51.757812 C 133.46875 51.699219 133.277344 51.640625 133.085938 51.585938 C 133.195312 52.875 133.234375 54.199219 133.171875 55.546875 C 131.09375 54.914062 129.015625 54.285156 126.9375 53.652344 C 127.226562 52.375 127.414062 51.117188 127.515625 49.890625 C 127.328125 49.835938 127.136719 49.777344 126.945312 49.71875 C 126.875 50.394531 126.78125 51.082031 126.65625 51.773438 C 126.257812 51.652344 125.855469 51.53125 125.457031 51.410156 C 125.605469 50.726562 125.726562 50.046875 125.820312 49.378906 " fill-opacity="1" fill-rule="nonzero"/></g></g></g><g fill="#e08264" fill-opacity="0.7686"><g transform="translate(21.693954, 109.09685)"><g><path d="M 81.867188 -33.660156 C 78.949219 -22.917969 74.546875 -17.875 70.363281 -17.511719 C 68.585938 -17.355469 67.328125 -18.410156 67.171875 -20.191406 C 67.105469 -20.992188 67.285156 -21.992188 67.546875 -23.089844 L 78.464844 -63.480469 C 79.011719 -65.414062 79.277344 -67.496094 79.0625 -69.988281 C 78.335938 -78.351562 71.652344 -84.042969 62.578125 -83.253906 C 57.242188 -82.789062 51.023438 -80.097656 47.21875 -75.371094 C 44.097656 -79.3125 41.226562 -81.394531 35.179688 -80.867188 C 29.484375 -80.371094 26.058594 -76.488281 25.742188 -76.011719 C 24.835938 -78.175781 22.191406 -79.738281 18.808594 -79.441406 C 16.230469 -79.21875 12.765625 -77.839844 11.820312 -74.261719 L -5.464844 -8.21875 C -5.746094 -7.296875 -5.675781 -6.496094 -5.605469 -5.695312 C -5.265625 -1.78125 -1.957031 0.171875 1.511719 -0.132812 C 4.539062 -0.394531 7.675781 -2.460938 8.757812 -6.5 L 21.757812 -55.855469 C 23.375 -62.003906 26.394531 -65.402344 30.398438 -65.75 C 35.027344 -66.152344 36.582031 -62.703125 34.695312 -55.546875 L 22.851562 -11.402344 C 22.515625 -10.117188 22.347656 -8.9375 22.433594 -7.957031 C 22.765625 -4.132812 26.066406 -2.269531 29.445312 -2.5625 C 32.5625 -2.835938 35.699219 -4.902344 36.773438 -9.027344 L 49.351562 -57.09375 C 50.957031 -63.328125 54.160156 -67.730469 58.519531 -68.109375 C 61.988281 -68.414062 64.566406 -65.589844 63.34375 -61.089844 L 53.886719 -25.578125 C 53.285156 -23.195312 53.058594 -20.664062 53.238281 -18.617188 C 54.003906 -9.8125 61.472656 -5.351562 70.101562 -6.101562 C 79.890625 -6.957031 88.671875 -14.175781 92.679688 -32.003906 C 92.792969 -32.730469 92.917969 -33.367188 92.863281 -33.988281 C 92.59375 -37.105469 89.769531 -38.652344 87.097656 -38.417969 C 84.785156 -38.21875 82.679688 -36.6875 81.867188 -33.660156 Z M 81.867188 -33.660156 "/></g></g></g><g fill="#e08264" fill-opacity="0.7686"><g transform="translate(102.739237, 102.040844)"><g><path d="M 17.769531 -16.246094 C 13.675781 -15.890625 10.75 -12.410156 11.109375 -8.316406 C 11.457031 -4.3125 14.945312 -1.300781 19.039062 -1.65625 C 23.042969 -2.007812 26.046875 -5.585938 25.699219 -9.585938 C 25.339844 -13.679688 21.769531 -16.597656 17.769531 -16.246094 Z M 17.769531 -16.246094 "/></g></g></g><g fill="#fffad7" fill-opacity="1"><g transform="translate(19.335025, 106.565062)"><g><path d="M 81.867188 -33.660156 C 78.949219 -22.917969 74.546875 -17.875 70.363281 -17.511719 C 68.585938 -17.355469 67.328125 -18.410156 67.171875 -20.191406 C 67.105469 -20.992188 67.285156 -21.992188 67.546875 -23.089844 L 78.464844 -63.480469 C 79.011719 -65.414062 79.277344 -67.496094 79.0625 -69.988281 C 78.335938 -78.351562 71.652344 -84.042969 62.578125 -83.253906 C 57.242188 -82.789062 51.023438 -80.097656 47.21875 -75.371094 C 44.097656 -79.3125 41.226562 -81.394531 35.179688 -80.867188 C 29.484375 -80.371094 26.058594 -76.488281 25.742188 -76.011719 C 24.835938 -78.175781 22.191406 -79.738281 18.808594 -79.441406 C 16.230469 -79.21875 12.765625 -77.839844 11.820312 -74.261719 L -5.464844 -8.21875 C -5.746094 -7.296875 -5.675781 -6.496094 -5.605469 -5.695312 C -5.265625 -1.78125 -1.957031 0.171875 1.511719 -0.132812 C 4.539062 -0.394531 7.675781 -2.460938 8.757812 -6.5 L 21.757812 -55.855469 C 23.375 -62.003906 26.394531 -65.402344 30.398438 -65.75 C 35.027344 -66.152344 36.582031 -62.703125 34.695312 -55.546875 L 22.851562 -11.402344 C 22.515625 -10.117188 22.347656 -8.9375 22.433594 -7.957031 C 22.765625 -4.132812 26.066406 -2.269531 29.445312 -2.5625 C 32.5625 -2.835938 35.699219 -4.902344 36.773438 -9.027344 L 49.351562 -57.09375 C 50.957031 -63.328125 54.160156 -67.730469 58.519531 -68.109375 C 61.988281 -68.414062 64.566406 -65.589844 63.34375 -61.089844 L 53.886719 -25.578125 C 53.285156 -23.195312 53.058594 -20.664062 53.238281 -18.617188 C 54.003906 -9.8125 61.472656 -5.351562 70.101562 -6.101562 C 79.890625 -6.957031 88.671875 -14.175781 92.679688 -32.003906 C 92.792969 -32.730469 92.917969 -33.367188 92.863281 -33.988281 C 92.59375 -37.105469 89.769531 -38.652344 87.097656 -38.417969 C 84.785156 -38.21875 82.679688 -36.6875 81.867188 -33.660156 Z M 81.867188 -33.660156 "/></g></g></g><g fill="#fffad7" fill-opacity="1"><g transform="translate(100.380308, 99.509056)"><g><path d="M 17.769531 -16.246094 C 13.675781 -15.890625 10.75 -12.410156 11.109375 -8.316406 C 11.457031 -4.3125 14.945312 -1.300781 19.039062 -1.65625 C 23.042969 -2.007812 26.046875 -5.585938 25.699219 -9.585938 C 25.339844 -13.679688 21.769531 -16.597656 17.769531 -16.246094 Z M 17.769531 -16.246094 "/></g></g></g><g fill="#fffad7" fill-opacity="1"><g transform="translate(144.20958, 76.761931)"><g><path d="M 15.953125 0 L 9.34375 0 L 9.34375 -25.671875 L 0.875 -25.671875 L 0.875 -31.171875 L 24.421875 -31.171875 L 24.421875 -25.671875 L 15.953125 -25.671875 Z M 15.953125 0 "/></g></g><g transform="translate(169.501781, 76.761931)"><g><path d="M 21.703125 -31.171875 L 28.375 -31.171875 L 17.78125 0 L 10.578125 0 L 0 -31.171875 L 6.671875 -31.171875 L 12.53125 -12.625 C 12.863281 -11.53125 13.203125 -10.253906 13.546875 -8.796875 C 13.898438 -7.335938 14.117188 -6.320312 14.203125 -5.75 C 14.359375 -7.0625 14.890625 -9.351562 15.796875 -12.625 Z M 21.703125 -31.171875 "/></g></g><g transform="translate(197.886199, 76.761931)"><g/></g><g transform="translate(209.231436, 76.761931)"><g><path d="M 22.328125 -8.65625 C 22.328125 -5.84375 21.3125 -3.625 19.28125 -2 C 17.257812 -0.382812 14.441406 0.421875 10.828125 0.421875 C 7.503906 0.421875 4.5625 -0.203125 2 -1.453125 L 2 -7.59375 C 4.101562 -6.65625 5.882812 -5.992188 7.34375 -5.609375 C 8.800781 -5.222656 10.132812 -5.03125 11.34375 -5.03125 C 12.789062 -5.03125 13.898438 -5.304688 14.671875 -5.859375 C 15.453125 -6.421875 15.84375 -7.25 15.84375 -8.34375 C 15.84375 -8.945312 15.671875 -9.488281 15.328125 -9.96875 C 14.984375 -10.445312 14.484375 -10.90625 13.828125 -11.34375 C 13.171875 -11.78125 11.820312 -12.484375 9.78125 -13.453125 C 7.882812 -14.347656 6.457031 -15.207031 5.5 -16.03125 C 4.550781 -16.851562 3.789062 -17.8125 3.21875 -18.90625 C 2.644531 -20.007812 2.359375 -21.289062 2.359375 -22.75 C 2.359375 -25.507812 3.289062 -27.675781 5.15625 -29.25 C 7.03125 -30.832031 9.617188 -31.625 12.921875 -31.625 C 14.546875 -31.625 16.09375 -31.429688 17.5625 -31.046875 C 19.03125 -30.660156 20.566406 -30.117188 22.171875 -29.421875 L 20.046875 -24.28125 C 18.378906 -24.96875 17 -25.445312 15.90625 -25.71875 C 14.820312 -25.988281 13.753906 -26.125 12.703125 -26.125 C 11.453125 -26.125 10.492188 -25.832031 9.828125 -25.25 C 9.160156 -24.664062 8.828125 -23.90625 8.828125 -22.96875 C 8.828125 -22.382812 8.960938 -21.875 9.234375 -21.4375 C 9.503906 -21.007812 9.929688 -20.59375 10.515625 -20.1875 C 11.109375 -19.78125 12.507812 -19.050781 14.71875 -18 C 17.625 -16.601562 19.617188 -15.203125 20.703125 -13.796875 C 21.785156 -12.398438 22.328125 -10.6875 22.328125 -8.65625 Z M 22.328125 -8.65625 "/></g></g><g transform="translate(233.28675, 76.761931)"><g><path d="M 25.421875 0 L 18.921875 0 L 18.921875 -13.921875 C 18.921875 -17.359375 17.640625 -19.078125 15.078125 -19.078125 C 13.253906 -19.078125 11.9375 -18.457031 11.125 -17.21875 C 10.320312 -15.988281 9.921875 -13.988281 9.921875 -11.21875 L 9.921875 0 L 3.40625 0 L 3.40625 -33.1875 L 9.921875 -33.1875 L 9.921875 -26.421875 C 9.921875 -25.890625 9.867188 -24.648438 9.765625 -22.703125 L 9.625 -20.796875 L 9.953125 -20.796875 C 11.410156 -23.117188 13.71875 -24.28125 16.875 -24.28125 C 19.664062 -24.28125 21.785156 -23.523438 23.234375 -22.015625 C 24.691406 -20.515625 25.421875 -18.359375 25.421875 -15.546875 Z M 25.421875 0 "/></g></g><g transform="translate(261.991052, 76.761931)"><g><path d="M 8.59375 -11.96875 C 8.59375 -9.601562 8.976562 -7.816406 9.75 -6.609375 C 10.53125 -5.398438 11.796875 -4.796875 13.546875 -4.796875 C 15.273438 -4.796875 16.519531 -5.394531 17.28125 -6.59375 C 18.039062 -7.800781 18.421875 -9.59375 18.421875 -11.96875 C 18.421875 -14.320312 18.035156 -16.085938 17.265625 -17.265625 C 16.503906 -18.453125 15.25 -19.046875 13.5 -19.046875 C 11.757812 -19.046875 10.503906 -18.457031 9.734375 -17.28125 C 8.972656 -16.113281 8.59375 -14.34375 8.59375 -11.96875 Z M 25.078125 -11.96875 C 25.078125 -8.082031 24.050781 -5.046875 22 -2.859375 C 19.957031 -0.671875 17.109375 0.421875 13.453125 0.421875 C 11.160156 0.421875 9.140625 -0.078125 7.390625 -1.078125 C 5.648438 -2.078125 4.3125 -3.515625 3.375 -5.390625 C 2.4375 -7.265625 1.96875 -9.457031 1.96875 -11.96875 C 1.96875 -15.863281 2.984375 -18.890625 5.015625 -21.046875 C 7.046875 -23.203125 9.898438 -24.28125 13.578125 -24.28125 C 15.867188 -24.28125 17.890625 -23.78125 19.640625 -22.78125 C 21.390625 -21.789062 22.734375 -20.363281 23.671875 -18.5 C 24.609375 -16.644531 25.078125 -14.46875 25.078125 -11.96875 Z M 25.078125 -11.96875 "/></g></g><g transform="translate(289.031955, 76.761931)"><g><path d="M 23.015625 0 L 21.171875 -8.34375 L 18.75 -18.875 L 18.546875 -18.875 L 14.203125 0 L 7.203125 0 L 0.421875 -23.84375 L 6.90625 -23.84375 L 9.65625 -13.28125 C 9.96875 -12.03125 10.398438 -9.421875 10.953125 -5.453125 L 11.125 -5.453125 C 11.1875 -6.535156 11.4375 -8.25 11.875 -10.59375 L 12.21875 -12.40625 L 15.15625 -23.84375 L 22.328125 -23.84375 L 25.125 -12.40625 C 25.289062 -11.625 25.5 -10.476562 25.75 -8.96875 C 26 -7.457031 26.140625 -6.285156 26.171875 -5.453125 L 26.328125 -5.453125 C 26.484375 -6.722656 26.703125 -8.164062 26.984375 -9.78125 C 27.273438 -11.394531 27.519531 -12.5625 27.71875 -13.28125 L 30.578125 -23.84375 L 36.953125 -23.84375 L 30.09375 0 Z M 23.015625 0 "/></g></g><g transform="translate(326.41579, 76.761931)"><g><path d="M 20.046875 -7.078125 C 20.046875 -4.628906 19.195312 -2.765625 17.5 -1.484375 C 15.800781 -0.210938 13.257812 0.421875 9.875 0.421875 C 8.132812 0.421875 6.65625 0.300781 5.4375 0.0625 C 4.21875 -0.164062 3.070312 -0.503906 2 -0.953125 L 2 -6.328125 C 3.207031 -5.765625 4.566406 -5.289062 6.078125 -4.90625 C 7.597656 -4.519531 8.9375 -4.328125 10.09375 -4.328125 C 12.445312 -4.328125 13.625 -5.007812 13.625 -6.375 C 13.625 -6.882812 13.46875 -7.300781 13.15625 -7.625 C 12.84375 -7.945312 12.300781 -8.304688 11.53125 -8.703125 C 10.769531 -9.109375 9.75 -9.582031 8.46875 -10.125 C 6.632812 -10.894531 5.285156 -11.609375 4.421875 -12.265625 C 3.566406 -12.921875 2.941406 -13.671875 2.546875 -14.515625 C 2.160156 -15.359375 1.96875 -16.398438 1.96875 -17.640625 C 1.96875 -19.753906 2.785156 -21.390625 4.421875 -22.546875 C 6.066406 -23.703125 8.394531 -24.28125 11.40625 -24.28125 C 14.28125 -24.28125 17.070312 -23.65625 19.78125 -22.40625 L 17.828125 -17.71875 C 16.628906 -18.226562 15.507812 -18.644531 14.46875 -18.96875 C 13.4375 -19.300781 12.378906 -19.46875 11.296875 -19.46875 C 9.378906 -19.46875 8.421875 -18.945312 8.421875 -17.90625 C 8.421875 -17.320312 8.726562 -16.816406 9.34375 -16.390625 C 9.96875 -15.972656 11.320312 -15.34375 13.40625 -14.5 C 15.269531 -13.75 16.632812 -13.046875 17.5 -12.390625 C 18.375 -11.734375 19.015625 -10.976562 19.421875 -10.125 C 19.835938 -9.269531 20.046875 -8.253906 20.046875 -7.078125 Z M 20.046875 -7.078125 "/></g></g></g></svg>