<svg xmlns="http://www.w3.org/2000/svg" xmlns:xlink="http://www.w3.org/1999/xlink" width="102" zoomAndPan="magnify" viewBox="0 0 76.5 36.000001" height="48" preserveAspectRatio="xMidYMid meet" version="1.0"><defs><g/><clipPath id="b0db163ba7"><path d="M 44 6 L 73 6 L 73 34 L 44 34 Z M 44 6 " clip-rule="nonzero"/></clipPath><clipPath id="12a8cc759c"><path d="M 41.792969 9.226562 L 72.191406 5.773438 L 75.058594 30.984375 L 44.65625 34.4375 Z M 41.792969 9.226562 " clip-rule="nonzero"/></clipPath><clipPath id="571a0c212e"><path d="M 41.792969 9.226562 L 72.191406 5.773438 L 75.058594 30.984375 L 44.65625 34.4375 Z M 41.792969 9.226562 " clip-rule="nonzero"/></clipPath><clipPath id="bbe07f678e"><path d="M 0.789062 8 L 22 8 L 22 26 L 0.789062 26 Z M 0.789062 8 " clip-rule="nonzero"/></clipPath></defs><g clip-path="url(#b0db163ba7)"><g clip-path="url(#12a8cc759c)"><g clip-path="url(#571a0c212e)"><path fill="#e08264" d="M 68.742188 7.824219 C 68.683594 8.136719 68.605469 8.449219 68.515625 8.765625 C 68.339844 8.71875 68.164062 8.675781 67.988281 8.628906 C 68.09375 8.316406 68.179688 8.003906 68.253906 7.699219 C 68.414062 7.742188 68.578125 7.785156 68.742188 7.824219 Z M 71.402344 9.164062 C 71.292969 11.414062 70.375 13.796875 68.4375 16.0625 C 67.167969 15.734375 65.898438 15.40625 64.628906 15.078125 C 67.015625 12.929688 68.371094 10.65625 68.863281 8.507812 C 69.710938 8.726562 70.554688 8.945312 71.402344 9.164062 Z M 72.15625 8.707031 C 72.175781 9.039062 72.179688 9.371094 72.167969 9.707031 C 71.992188 9.664062 71.816406 9.617188 71.644531 9.574219 C 71.667969 9.238281 71.671875 8.910156 71.667969 8.582031 C 71.832031 8.625 71.992188 8.664062 72.15625 8.707031 Z M 72.121094 10.410156 C 72.085938 10.75 72.03125 11.09375 71.960938 11.4375 C 71.765625 11.386719 71.574219 11.335938 71.378906 11.285156 C 71.460938 10.945312 71.523438 10.605469 71.570312 10.269531 C 71.753906 10.316406 71.9375 10.363281 72.121094 10.410156 Z M 71.789062 12.152344 C 71.691406 12.5 71.574219 12.84375 71.4375 13.191406 C 71.222656 13.136719 71.007812 13.078125 70.789062 13.023438 C 70.941406 12.679688 71.070312 12.335938 71.179688 11.996094 C 71.382812 12.046875 71.585938 12.101562 71.789062 12.152344 Z M 71.125 13.910156 C 70.960938 14.253906 70.777344 14.597656 70.570312 14.941406 C 70.332031 14.882812 70.09375 14.820312 69.855469 14.757812 C 70.074219 14.417969 70.273438 14.078125 70.453125 13.734375 C 70.675781 13.792969 70.902344 13.851562 71.125 13.910156 Z M 70.113281 15.652344 C 69.878906 15.996094 69.625 16.335938 69.351562 16.671875 C 69.089844 16.605469 68.832031 16.539062 68.570312 16.472656 C 68.855469 16.136719 69.125 15.800781 69.371094 15.460938 C 69.617188 15.527344 69.867188 15.589844 70.113281 15.652344 Z M 68.757812 17.371094 C 68.460938 17.707031 68.144531 18.039062 67.8125 18.367188 C 67.53125 18.296875 67.246094 18.222656 66.964844 18.148438 C 67.308594 17.820312 67.636719 17.492188 67.949219 17.160156 C 68.21875 17.230469 68.488281 17.300781 68.757812 17.371094 Z M 67.105469 19.050781 C 66.753906 19.375 66.386719 19.699219 66.011719 20.023438 C 65.707031 19.945312 65.398438 19.863281 65.09375 19.785156 C 65.480469 19.464844 65.859375 19.144531 66.226562 18.824219 C 66.519531 18.898438 66.8125 18.972656 67.105469 19.050781 Z M 65.21875 20.6875 C 64.832031 21.003906 64.4375 21.320312 64.035156 21.636719 C 63.707031 21.550781 63.378906 21.464844 63.046875 21.378906 C 63.460938 21.070312 63.871094 20.757812 64.273438 20.441406 C 64.589844 20.523438 64.902344 20.605469 65.21875 20.6875 Z M 63.207031 22.285156 C 62.804688 22.597656 62.402344 22.910156 62.007812 23.21875 C 61.652344 23.125 61.300781 23.035156 60.949219 22.945312 C 61.359375 22.640625 61.773438 22.332031 62.191406 22.023438 C 62.53125 22.109375 62.867188 22.199219 63.207031 22.285156 Z M 61.191406 23.859375 C 60.804688 24.167969 60.425781 24.472656 60.058594 24.78125 C 59.683594 24.683594 59.308594 24.585938 58.933594 24.492188 C 59.3125 24.1875 59.703125 23.882812 60.105469 23.578125 C 60.46875 23.671875 60.832031 23.765625 61.191406 23.859375 Z M 59.320312 25.417969 C 58.972656 25.726562 58.644531 26.035156 58.339844 26.34375 C 57.941406 26.242188 57.546875 26.140625 57.148438 26.035156 C 57.464844 25.730469 57.808594 25.425781 58.167969 25.121094 C 58.550781 25.21875 58.933594 25.320312 59.320312 25.417969 Z M 57.742188 26.988281 C 57.46875 27.296875 57.222656 27.613281 57.007812 27.925781 C 56.585938 27.816406 56.167969 27.710938 55.75 27.601562 C 55.976562 27.289062 56.238281 26.980469 56.523438 26.671875 C 56.929688 26.777344 57.335938 26.882812 57.742188 26.988281 Z M 56.605469 28.582031 C 56.433594 28.898438 56.296875 29.222656 56.199219 29.546875 C 55.757812 29.433594 55.320312 29.316406 54.878906 29.203125 C 54.992188 28.882812 55.140625 28.566406 55.324219 28.25 C 55.75 28.359375 56.179688 28.472656 56.605469 28.582031 Z M 56.046875 30.21875 C 56.003906 30.550781 56 30.878906 56.035156 31.214844 C 55.578125 31.097656 55.121094 30.976562 54.660156 30.859375 C 54.632812 30.527344 54.648438 30.199219 54.707031 29.875 C 55.152344 29.988281 55.601562 30.105469 56.046875 30.21875 Z M 47.269531 28.296875 C 47.871094 26.175781 50.546875 24.246094 53.75 22.308594 C 55.5625 22.773438 57.371094 23.242188 59.183594 23.710938 C 56.433594 25.769531 54.191406 27.8125 53.972656 30.03125 C 51.738281 29.453125 49.503906 28.875 47.269531 28.296875 Z M 45.070312 28.378906 C 45.121094 28.070312 45.214844 27.761719 45.355469 27.457031 C 45.800781 27.570312 46.25 27.6875 46.695312 27.804688 C 46.570312 28.109375 46.484375 28.421875 46.445312 28.738281 C 45.988281 28.617188 45.527344 28.5 45.070312 28.378906 Z M 45.699219 26.832031 C 45.890625 26.53125 46.125 26.234375 46.390625 25.941406 C 46.820312 26.050781 47.246094 26.164062 47.675781 26.273438 C 47.417969 26.570312 47.195312 26.867188 47.015625 27.171875 C 46.574219 27.058594 46.136719 26.945312 45.699219 26.832031 Z M 46.996094 25.339844 C 47.3125 25.050781 47.660156 24.761719 48.03125 24.476562 C 48.4375 24.582031 48.84375 24.6875 49.25 24.792969 C 48.890625 25.082031 48.554688 25.371094 48.253906 25.664062 C 47.835938 25.554688 47.414062 25.449219 46.996094 25.339844 Z M 48.84375 23.890625 C 49.253906 23.605469 49.683594 23.324219 50.132812 23.042969 C 50.519531 23.144531 50.902344 23.242188 51.285156 23.34375 C 50.851562 23.625 50.429688 23.910156 50.035156 24.199219 C 49.636719 24.09375 49.242188 23.992188 48.84375 23.890625 Z M 51.089844 22.464844 C 51.5625 22.183594 52.050781 21.902344 52.542969 21.621094 C 52.90625 21.714844 53.269531 21.808594 53.628906 21.902344 C 53.148438 22.1875 52.675781 22.46875 52.214844 22.753906 C 51.839844 22.65625 51.464844 22.5625 51.089844 22.464844 Z M 53.582031 21.039062 C 54.085938 20.757812 54.597656 20.476562 55.105469 20.191406 C 55.445312 20.277344 55.785156 20.367188 56.121094 20.453125 C 55.625 20.742188 55.128906 21.027344 54.636719 21.3125 C 54.285156 21.222656 53.933594 21.132812 53.582031 21.039062 Z M 56.160156 19.601562 C 56.667969 19.3125 57.175781 19.027344 57.671875 18.734375 C 57.988281 18.816406 58.300781 18.898438 58.617188 18.980469 C 58.136719 19.273438 57.644531 19.566406 57.148438 19.855469 C 56.820312 19.769531 56.492188 19.6875 56.160156 19.601562 Z M 58.6875 18.128906 C 59.171875 17.835938 59.648438 17.539062 60.109375 17.242188 C 60.402344 17.316406 60.695312 17.390625 60.988281 17.46875 C 60.539062 17.769531 60.078125 18.070312 59.609375 18.367188 C 59.300781 18.289062 58.996094 18.210938 58.6875 18.128906 Z M 63.945312 15.679688 C 65.257812 16.015625 66.570312 16.355469 67.878906 16.695312 C 65.824219 18.953125 62.789062 21.078125 59.957031 23.136719 C 58.1875 22.679688 56.417969 22.222656 54.648438 21.765625 C 57.933594 19.824219 61.4375 17.820312 63.945312 15.679688 Z M 61.042969 16.617188 C 61.480469 16.316406 61.90625 16.011719 62.3125 15.703125 C 62.582031 15.773438 62.851562 15.84375 63.121094 15.914062 C 62.730469 16.222656 62.316406 16.53125 61.890625 16.839844 C 61.609375 16.765625 61.324219 16.691406 61.042969 16.617188 Z M 63.128906 15.066406 C 63.507812 14.753906 63.867188 14.441406 64.207031 14.128906 C 64.457031 14.191406 64.703125 14.253906 64.949219 14.320312 C 64.621094 14.636719 64.273438 14.953125 63.910156 15.265625 C 63.648438 15.199219 63.386719 15.132812 63.128906 15.066406 Z M 64.882812 13.472656 C 65.195312 13.15625 65.484375 12.839844 65.75 12.519531 C 65.976562 12.578125 66.199219 12.636719 66.425781 12.691406 C 66.171875 13.015625 65.894531 13.335938 65.597656 13.65625 C 65.359375 13.597656 65.121094 13.535156 64.882812 13.472656 Z M 66.273438 11.855469 C 66.515625 11.535156 66.730469 11.214844 66.925781 10.894531 C 67.128906 10.949219 67.332031 11 67.535156 11.054688 C 67.351562 11.378906 67.148438 11.699219 66.921875 12.023438 C 66.707031 11.96875 66.492188 11.914062 66.273438 11.855469 Z M 67.304688 10.234375 C 67.472656 9.914062 67.621094 9.597656 67.75 9.28125 C 67.929688 9.328125 68.113281 9.375 68.296875 9.421875 C 68.179688 9.742188 68.042969 10.0625 67.886719 10.386719 C 67.691406 10.335938 67.5 10.285156 67.304688 10.234375 Z M 68.480469 6.273438 C 68.414062 6.253906 68.34375 6.238281 68.277344 6.21875 C 68.078125 8.125 67.300781 10.25 65.53125 12.324219 C 63.800781 14.40625 61.015625 16.425781 57.746094 18.320312 C 54.511719 20.226562 50.8125 22.007812 48.140625 23.847656 C 45.449219 25.683594 43.878906 27.601562 44.507812 29.71875 C 44.730469 29.777344 44.953125 29.835938 45.175781 29.894531 C 45.089844 29.601562 45.039062 29.316406 45.03125 29.03125 C 45.496094 29.152344 45.960938 29.273438 46.429688 29.394531 C 46.449219 29.679688 46.507812 29.96875 46.601562 30.261719 C 46.84375 30.324219 47.085938 30.386719 47.328125 30.449219 C 47.148438 29.921875 47.089844 29.402344 47.148438 28.890625 C 49.417969 29.480469 51.6875 30.066406 53.960938 30.652344 C 53.992188 31.183594 54.132812 31.726562 54.398438 32.277344 C 54.640625 32.339844 54.882812 32.402344 55.125 32.464844 C 54.972656 32.15625 54.859375 31.855469 54.78125 31.554688 C 55.246094 31.671875 55.710938 31.792969 56.179688 31.914062 C 56.265625 32.21875 56.390625 32.523438 56.550781 32.832031 C 56.773438 32.890625 56.996094 32.949219 57.21875 33.007812 C 55.984375 30.730469 56.851562 28.632812 58.792969 26.601562 C 60.714844 24.566406 63.617188 22.578125 66.054688 20.46875 C 68.527344 18.367188 70.515625 16.144531 71.496094 13.867188 C 72.515625 11.597656 72.59375 9.292969 72.179688 7.230469 C 72.113281 7.210938 72.042969 7.195312 71.976562 7.175781 C 72.027344 7.457031 72.070312 7.742188 72.101562 8.03125 C 71.945312 7.992188 71.789062 7.949219 71.632812 7.910156 C 71.609375 7.625 71.578125 7.339844 71.539062 7.0625 C 71.464844 7.042969 71.390625 7.023438 71.316406 7.003906 C 71.378906 7.503906 71.417969 8.019531 71.417969 8.542969 C 70.609375 8.332031 69.796875 8.125 68.988281 7.914062 C 69.074219 7.414062 69.125 6.921875 69.144531 6.445312 C 69.070312 6.425781 68.996094 6.40625 68.921875 6.386719 C 68.90625 6.648438 68.878906 6.917969 68.84375 7.191406 C 68.691406 7.148438 68.535156 7.109375 68.378906 7.070312 C 68.421875 6.800781 68.457031 6.535156 68.480469 6.273438 " fill-opacity="1" fill-rule="nonzero"/></g></g></g><g fill="#e08264" fill-opacity="0.7686"><g transform="translate(3.441073, 26.271809)"><g><path d="M 16.375 -6.734375 C 15.789062 -4.585938 14.910156 -3.574219 14.074219 -3.503906 C 13.71875 -3.472656 13.46875 -3.683594 13.4375 -4.039062 C 13.421875 -4.199219 13.457031 -4.398438 13.511719 -4.617188 L 15.695312 -12.699219 C 15.804688 -13.082031 15.855469 -13.5 15.8125 -14 C 15.667969 -15.671875 14.332031 -16.808594 12.515625 -16.652344 C 11.449219 -16.558594 10.207031 -16.019531 9.445312 -15.074219 C 8.820312 -15.863281 8.246094 -16.28125 7.035156 -16.175781 C 5.898438 -16.074219 5.210938 -15.300781 5.148438 -15.203125 C 4.96875 -15.636719 4.4375 -15.949219 3.761719 -15.890625 C 3.246094 -15.84375 2.554688 -15.570312 2.363281 -14.855469 L -1.09375 -1.644531 C -1.148438 -1.460938 -1.136719 -1.300781 -1.121094 -1.140625 C -1.054688 -0.355469 -0.390625 0.0351562 0.300781 -0.0273438 C 0.90625 -0.078125 1.535156 -0.492188 1.75 -1.300781 L 4.351562 -11.171875 C 4.675781 -12.402344 5.28125 -13.082031 6.082031 -13.152344 C 7.003906 -13.230469 7.316406 -12.542969 6.9375 -11.109375 L 4.570312 -2.28125 C 4.503906 -2.023438 4.46875 -1.789062 4.488281 -1.59375 C 4.554688 -0.828125 5.214844 -0.453125 5.890625 -0.511719 C 6.511719 -0.566406 7.140625 -0.980469 7.355469 -1.804688 L 9.871094 -11.417969 C 10.191406 -12.667969 10.832031 -13.546875 11.703125 -13.625 C 12.398438 -13.683594 12.914062 -13.117188 12.667969 -12.21875 L 10.777344 -5.117188 C 10.660156 -4.640625 10.613281 -4.132812 10.648438 -3.722656 C 10.800781 -1.960938 12.296875 -1.070312 14.023438 -1.222656 C 15.980469 -1.390625 17.734375 -2.835938 18.539062 -6.402344 C 18.558594 -6.546875 18.585938 -6.675781 18.574219 -6.796875 C 18.519531 -7.421875 17.957031 -7.730469 17.421875 -7.683594 C 16.957031 -7.644531 16.539062 -7.339844 16.375 -6.734375 Z M 16.375 -6.734375 "/></g></g></g><g fill="#e08264" fill-opacity="0.7686"><g transform="translate(19.651618, 24.860478)"><g><path d="M 7.203125 -4.375 C 7.203125 -4.355469 7.179688 -4.640625 7.078125 -4.972656 C 7.195312 -5.074219 7.308594 -5.226562 7.402344 -5.394531 C 7.664062 -5.867188 8.0625 -7.460938 8.003906 -8.171875 C 7.84375 -9.988281 6.242188 -11.066406 4.320312 -10.902344 C 2.648438 -10.753906 1.144531 -9.691406 0.714844 -8.058594 L -0.265625 -4.28125 C -0.386719 -3.820312 -0.417969 -3.371094 -0.386719 -2.980469 C -0.222656 -1.109375 1.476562 -0.128906 3.292969 -0.285156 C 4.679688 -0.40625 5.90625 -0.960938 6.539062 -2.308594 C 6.867188 -2.246094 7.246094 -2.226562 7.621094 -2.257812 C 9.71875 -2.441406 11.246094 -4.082031 11.6875 -6 C 11.722656 -6.203125 11.742188 -6.382812 11.730469 -6.542969 C 11.671875 -7.203125 11.160156 -7.535156 10.644531 -7.488281 C 10.164062 -7.445312 9.691406 -7.117188 9.550781 -6.445312 C 9.253906 -5.304688 8.503906 -4.46875 7.453125 -4.378906 C 7.382812 -4.371094 7.277344 -4.363281 7.203125 -4.375 Z M 5.308594 -6.96875 C 5.269531 -6.804688 5.230469 -6.660156 5.222656 -6.515625 C 4.234375 -6.535156 3.433594 -5.660156 3.527344 -4.59375 C 3.597656 -3.988281 3.925781 -3.695312 4.289062 -3.4375 C 4.113281 -2.796875 3.625 -2.449219 3.070312 -2.402344 C 2.378906 -2.339844 2.164062 -2.753906 2.125 -3.179688 C 2.097656 -3.515625 2.15625 -3.84375 2.214844 -4.03125 L 3.160156 -7.75 C 3.324219 -8.359375 3.917969 -8.75 4.46875 -8.796875 C 5.019531 -8.847656 5.410156 -8.503906 5.445312 -8.09375 C 5.472656 -7.773438 5.402344 -7.355469 5.308594 -6.96875 Z M 5.308594 -6.96875 "/></g></g></g><g fill="#e08264" fill-opacity="0.7686"><g transform="translate(28.940205, 24.051791)"><g><path d="M 9.398438 -6.144531 C 9.167969 -5.28125 8.765625 -4.761719 8.105469 -4.703125 C 7.519531 -4.652344 7.183594 -5 7.144531 -5.480469 C 7.128906 -5.621094 7.152344 -5.804688 7.191406 -5.96875 C 8 -7.796875 8.539062 -8.792969 8.453125 -9.773438 C 8.378906 -10.644531 7.828125 -11.207031 6.847656 -11.121094 C 5.050781 -10.964844 3.992188 -8.324219 4.15625 -6.441406 C 4.191406 -6.011719 4.296875 -5.628906 4.46875 -5.285156 L 3.621094 -3.722656 C 3.386719 -3.308594 2.847656 -2.523438 2.597656 -2.503906 C 2.542969 -2.5 2.503906 -2.546875 2.492188 -2.65625 C 2.480469 -2.816406 2.484375 -2.976562 2.519531 -3.179688 L 3.375 -9.007812 C 3.410156 -9.207031 3.414062 -9.386719 3.398438 -9.546875 C 3.324219 -10.402344 2.703125 -10.757812 2.078125 -10.707031 C 1.441406 -10.648438 0.835938 -10.183594 0.722656 -9.402344 L -0.0703125 -3.488281 C -0.113281 -3.164062 -0.121094 -2.839844 -0.0976562 -2.554688 C 0.0390625 -0.972656 1.140625 -0.0976562 2.527344 -0.21875 C 3.789062 -0.328125 4.328125 -0.96875 5.382812 -2.421875 L 5.972656 -3.28125 C 6.519531 -2.738281 7.332031 -2.46875 8.277344 -2.550781 C 10.003906 -2.699219 11.199219 -3.96875 11.59375 -5.851562 C 11.621094 -5.960938 11.613281 -6.050781 11.605469 -6.136719 C 11.550781 -6.726562 10.96875 -7.03125 10.417969 -6.984375 C 9.957031 -6.945312 9.53125 -6.675781 9.398438 -6.144531 Z M 9.398438 -6.144531 "/></g></g></g><g fill="#e08264" fill-opacity="0.7686"><g transform="translate(38.17541, 23.247751)"><g><path d="M 3.734375 -12.5 C 4.535156 -12.570312 5.136719 -13.285156 5.066406 -14.101562 C 4.996094 -14.902344 4.28125 -15.488281 3.480469 -15.417969 C 2.679688 -15.347656 2.078125 -14.648438 2.148438 -13.847656 C 2.21875 -13.03125 2.933594 -12.429688 3.734375 -12.5 Z M 2.121094 -3.214844 L 3.59375 -8.972656 C 3.644531 -9.210938 3.710938 -9.46875 3.695312 -9.644531 C 3.628906 -10.429688 3.003906 -10.785156 2.398438 -10.734375 C 1.847656 -10.683594 1.296875 -10.242188 1.082031 -9.382812 C 0.660156 -7.660156 0.0976562 -5.476562 -0.328125 -3.773438 C -0.402344 -3.40625 -0.503906 -2.914062 -0.476562 -2.613281 C -0.332031 -0.9375 1.140625 -0.0976562 2.777344 -0.242188 C 4.519531 -0.394531 6.347656 -1.628906 7.273438 -5.421875 C 7.300781 -5.53125 7.308594 -5.636719 7.300781 -5.746094 C 7.25 -6.296875 6.6875 -6.589844 6.152344 -6.542969 C 5.671875 -6.5 5.214844 -6.210938 5.050781 -5.640625 C 4.414062 -3.253906 3.535156 -2.441406 2.824219 -2.378906 C 2.414062 -2.34375 2.125 -2.585938 2.09375 -2.925781 C 2.085938 -3.015625 2.097656 -3.105469 2.121094 -3.214844 Z M 2.121094 -3.214844 "/></g></g></g><g fill="#e08264" fill-opacity="0.7686"><g transform="translate(43.086618, 22.820169)"><g><path d="M 8.566406 -5.800781 C 7.964844 -3.667969 6.167969 -2.671875 4.65625 -2.539062 C 3.355469 -2.425781 2.484375 -2.976562 2.414062 -3.796875 C 2.398438 -3.957031 2.402344 -4.117188 2.457031 -4.300781 L 2.570312 -4.652344 C 3.113281 -4.378906 3.773438 -4.21875 4.484375 -4.28125 C 6.105469 -4.421875 7.441406 -5.558594 7.78125 -7.203125 C 7.839844 -7.550781 7.863281 -7.890625 7.839844 -8.195312 C 7.691406 -9.886719 6.242188 -11.066406 4.234375 -10.894531 C 2.648438 -10.753906 1.183594 -9.695312 0.714844 -7.863281 L -0.0703125 -4.726562 C -0.175781 -4.289062 -0.226562 -3.851562 -0.191406 -3.445312 C -0.0078125 -1.324219 2.101562 -0.183594 4.699219 -0.410156 C 7.171875 -0.625 9.878906 -2.078125 10.753906 -5.582031 C 10.796875 -5.726562 10.804688 -5.851562 10.792969 -5.960938 C 10.746094 -6.511719 10.222656 -6.769531 9.6875 -6.722656 C 9.191406 -6.679688 8.679688 -6.367188 8.566406 -5.800781 Z M 4.363281 -8.789062 C 4.859375 -8.832031 5.214844 -8.449219 5.261719 -7.933594 C 5.273438 -7.792969 5.269531 -7.648438 5.226562 -7.5 C 5.101562 -6.898438 4.585938 -6.636719 4.050781 -6.59375 C 3.714844 -6.5625 3.371094 -6.605469 3.109375 -6.726562 L 3.386719 -7.824219 C 3.535156 -8.394531 3.953125 -8.753906 4.363281 -8.789062 Z M 4.363281 -8.789062 "/></g></g></g><g fill="#e08264" fill-opacity="0.7686"><g transform="translate(51.521082, 22.085843)"><g><path d="M 1.019531 -8.480469 L -2.566406 5.316406 C -2.621094 5.515625 -2.640625 5.714844 -2.625 5.894531 C -2.558594 6.640625 -1.894531 7.066406 -1.238281 7.011719 C -0.683594 6.960938 -0.144531 6.574219 0.0664062 5.714844 L 3.757812 -8.71875 L 5.054688 -8.847656 C 5.890625 -8.941406 6.230469 -9.578125 6.183594 -10.09375 C 6.140625 -10.59375 5.726562 -11.023438 5.070312 -10.964844 L 4.339844 -10.902344 L 5.09375 -13.78125 C 5.199219 -14.222656 5.511719 -14.519531 5.816406 -14.542969 C 6.1875 -14.578125 6.351562 -14.375 6.375 -14.074219 C 6.386719 -13.96875 6.378906 -13.859375 6.351562 -13.730469 C 6.277344 -13.546875 6.257812 -13.382812 6.273438 -13.222656 C 6.324219 -12.597656 6.96875 -12.226562 7.589844 -12.277344 C 8.160156 -12.328125 8.714844 -12.734375 8.835938 -13.625 C 8.867188 -13.878906 8.882812 -14.113281 8.863281 -14.34375 C 8.726562 -15.910156 7.414062 -16.980469 5.867188 -16.84375 C 4.355469 -16.710938 2.914062 -15.726562 2.417969 -13.820312 L 1.597656 -10.664062 L 1.136719 -10.625 C 0.0351562 -10.527344 -0.375 -9.863281 -0.324219 -9.292969 C -0.28125 -8.796875 0.09375 -8.398438 0.644531 -8.445312 Z M 1.019531 -8.480469 "/></g></g></g><g fill="#e08264" fill-opacity="0.7686"><g transform="translate(57.215236, 21.590096)"><g><path d="M 2.1875 -3.273438 L 3.675781 -9.050781 C 3.730469 -9.253906 3.75 -9.433594 3.734375 -9.613281 C 3.671875 -10.34375 2.988281 -10.785156 2.328125 -10.726562 C 1.832031 -10.683594 1.324219 -10.335938 1.136719 -9.601562 L -0.484375 -3.292969 C -0.578125 -2.945312 -0.601562 -2.601562 -0.574219 -2.28125 C -0.46875 -1.070312 0.460938 -0.273438 1.636719 -0.140625 C -0.492188 0.527344 -2.566406 1.605469 -2.378906 3.792969 C -2.226562 5.519531 -0.527344 6.519531 1.21875 6.367188 C 2.980469 6.214844 4.550781 5.125 5.121094 2.996094 C 5.304688 2.226562 5.519531 1.417969 5.722656 0.667969 C 8.199219 -0.355469 10.695312 -1.972656 11.597656 -5.816406 C 11.636719 -5.960938 11.640625 -6.105469 11.632812 -6.230469 C 11.578125 -6.835938 11.085938 -7.152344 10.550781 -7.105469 C 10.070312 -7.0625 9.582031 -6.714844 9.390625 -6 C 8.890625 -4.125 7.792969 -2.957031 6.46875 -2.121094 L 8.34375 -9.582031 C 8.386719 -9.75 8.390625 -9.890625 8.378906 -10.015625 C 8.316406 -10.746094 7.632812 -11.1875 6.972656 -11.132812 C 6.476562 -11.089844 5.96875 -10.738281 5.78125 -10.003906 L 4.257812 -3.8125 C 3.773438 -2.800781 3.179688 -2.390625 2.699219 -2.351562 C 2.378906 -2.324219 2.167969 -2.5 2.140625 -2.820312 C 2.128906 -2.945312 2.148438 -3.109375 2.1875 -3.273438 Z M 2.539062 1.769531 L 2.21875 3.015625 C 2.023438 3.695312 1.503906 4.082031 0.96875 4.128906 C 0.558594 4.164062 0.359375 3.929688 0.332031 3.609375 C 0.324219 3.503906 0.328125 3.359375 0.371094 3.230469 C 0.566406 2.585938 1.410156 2.171875 2.539062 1.769531 Z M 2.539062 1.769531 "/></g></g></g><g fill="#e08264" fill-opacity="0.7686"><g transform="translate(66.468239, 20.784506)"><g><path d="M 3.554688 -3.25 C 2.734375 -3.179688 2.152344 -2.480469 2.222656 -1.664062 C 2.292969 -0.863281 2.988281 -0.261719 3.808594 -0.332031 C 4.609375 -0.402344 5.210938 -1.117188 5.140625 -1.917969 C 5.070312 -2.734375 4.355469 -3.320312 3.554688 -3.25 Z M 3.554688 -3.25 "/></g></g></g><g clip-path="url(#bbe07f678e)"><g fill="#fffad7" fill-opacity="1"><g transform="translate(2.969244, 25.765406)"><g><path d="M 16.375 -6.734375 C 15.789062 -4.585938 14.910156 -3.574219 14.074219 -3.503906 C 13.71875 -3.472656 13.46875 -3.683594 13.4375 -4.039062 C 13.421875 -4.199219 13.457031 -4.398438 13.511719 -4.617188 L 15.695312 -12.699219 C 15.804688 -13.082031 15.855469 -13.5 15.8125 -14 C 15.667969 -15.671875 14.332031 -16.808594 12.515625 -16.652344 C 11.449219 -16.558594 10.207031 -16.019531 9.445312 -15.074219 C 8.820312 -15.863281 8.246094 -16.28125 7.035156 -16.175781 C 5.898438 -16.074219 5.210938 -15.300781 5.148438 -15.203125 C 4.96875 -15.636719 4.4375 -15.949219 3.761719 -15.890625 C 3.246094 -15.84375 2.554688 -15.570312 2.363281 -14.855469 L -1.09375 -1.644531 C -1.148438 -1.460938 -1.136719 -1.300781 -1.121094 -1.140625 C -1.054688 -0.355469 -0.390625 0.0351562 0.300781 -0.0273438 C 0.90625 -0.078125 1.535156 -0.492188 1.75 -1.300781 L 4.351562 -11.171875 C 4.675781 -12.402344 5.28125 -13.082031 6.082031 -13.152344 C 7.003906 -13.230469 7.316406 -12.542969 6.9375 -11.109375 L 4.570312 -2.28125 C 4.503906 -2.023438 4.46875 -1.789062 4.488281 -1.59375 C 4.554688 -0.828125 5.214844 -0.453125 5.890625 -0.511719 C 6.511719 -0.566406 7.140625 -0.980469 7.355469 -1.804688 L 9.871094 -11.417969 C 10.191406 -12.667969 10.832031 -13.546875 11.703125 -13.625 C 12.398438 -13.683594 12.914062 -13.117188 12.667969 -12.21875 L 10.777344 -5.117188 C 10.660156 -4.640625 10.613281 -4.132812 10.648438 -3.722656 C 10.800781 -1.960938 12.296875 -1.070312 14.023438 -1.222656 C 15.980469 -1.390625 17.734375 -2.835938 18.539062 -6.402344 C 18.558594 -6.546875 18.585938 -6.675781 18.574219 -6.796875 C 18.519531 -7.421875 17.957031 -7.730469 17.421875 -7.683594 C 16.957031 -7.644531 16.539062 -7.339844 16.375 -6.734375 Z M 16.375 -6.734375 "/></g></g></g></g><g fill="#fffad7" fill-opacity="1"><g transform="translate(19.179789, 24.354075)"><g><path d="M 7.203125 -4.375 C 7.203125 -4.355469 7.179688 -4.640625 7.078125 -4.972656 C 7.195312 -5.074219 7.308594 -5.226562 7.402344 -5.394531 C 7.664062 -5.867188 8.0625 -7.460938 8.003906 -8.171875 C 7.84375 -9.988281 6.242188 -11.066406 4.320312 -10.902344 C 2.648438 -10.753906 1.144531 -9.691406 0.714844 -8.058594 L -0.265625 -4.28125 C -0.386719 -3.820312 -0.417969 -3.371094 -0.386719 -2.980469 C -0.222656 -1.109375 1.476562 -0.128906 3.292969 -0.285156 C 4.679688 -0.40625 5.90625 -0.960938 6.539062 -2.308594 C 6.867188 -2.246094 7.246094 -2.226562 7.621094 -2.257812 C 9.71875 -2.441406 11.246094 -4.082031 11.6875 -6 C 11.722656 -6.203125 11.742188 -6.382812 11.730469 -6.542969 C 11.671875 -7.203125 11.160156 -7.535156 10.644531 -7.488281 C 10.164062 -7.445312 9.691406 -7.117188 9.550781 -6.445312 C 9.253906 -5.304688 8.503906 -4.46875 7.453125 -4.378906 C 7.382812 -4.371094 7.277344 -4.363281 7.203125 -4.375 Z M 5.308594 -6.96875 C 5.269531 -6.804688 5.230469 -6.660156 5.222656 -6.515625 C 4.234375 -6.535156 3.433594 -5.660156 3.527344 -4.59375 C 3.597656 -3.988281 3.925781 -3.695312 4.289062 -3.4375 C 4.113281 -2.796875 3.625 -2.449219 3.070312 -2.402344 C 2.378906 -2.339844 2.164062 -2.753906 2.125 -3.179688 C 2.097656 -3.515625 2.15625 -3.84375 2.214844 -4.03125 L 3.160156 -7.75 C 3.324219 -8.359375 3.917969 -8.75 4.46875 -8.796875 C 5.019531 -8.847656 5.410156 -8.503906 5.445312 -8.09375 C 5.472656 -7.773438 5.402344 -7.355469 5.308594 -6.96875 Z M 5.308594 -6.96875 "/></g></g></g><g fill="#fffad7" fill-opacity="1"><g transform="translate(28.468376, 23.545387)"><g><path d="M 9.398438 -6.144531 C 9.167969 -5.28125 8.765625 -4.761719 8.105469 -4.703125 C 7.519531 -4.652344 7.183594 -5 7.144531 -5.480469 C 7.128906 -5.621094 7.152344 -5.804688 7.191406 -5.96875 C 8 -7.796875 8.539062 -8.792969 8.453125 -9.773438 C 8.378906 -10.644531 7.828125 -11.207031 6.847656 -11.121094 C 5.050781 -10.964844 3.992188 -8.324219 4.15625 -6.441406 C 4.191406 -6.011719 4.296875 -5.628906 4.46875 -5.285156 L 3.621094 -3.722656 C 3.386719 -3.308594 2.847656 -2.523438 2.597656 -2.503906 C 2.542969 -2.5 2.503906 -2.546875 2.492188 -2.65625 C 2.480469 -2.816406 2.484375 -2.976562 2.519531 -3.179688 L 3.375 -9.007812 C 3.410156 -9.207031 3.414062 -9.386719 3.398438 -9.546875 C 3.324219 -10.402344 2.703125 -10.757812 2.078125 -10.707031 C 1.441406 -10.648438 0.835938 -10.183594 0.722656 -9.402344 L -0.0703125 -3.488281 C -0.113281 -3.164062 -0.121094 -2.839844 -0.0976562 -2.554688 C 0.0390625 -0.972656 1.140625 -0.0976562 2.527344 -0.21875 C 3.789062 -0.328125 4.328125 -0.96875 5.382812 -2.421875 L 5.972656 -3.28125 C 6.519531 -2.738281 7.332031 -2.46875 8.277344 -2.550781 C 10.003906 -2.699219 11.199219 -3.96875 11.59375 -5.851562 C 11.621094 -5.960938 11.613281 -6.050781 11.605469 -6.136719 C 11.550781 -6.726562 10.96875 -7.03125 10.417969 -6.984375 C 9.957031 -6.945312 9.53125 -6.675781 9.398438 -6.144531 Z M 9.398438 -6.144531 "/></g></g></g><g fill="#fffad7" fill-opacity="1"><g transform="translate(37.703581, 22.741347)"><g><path d="M 3.734375 -12.5 C 4.535156 -12.570312 5.136719 -13.285156 5.066406 -14.101562 C 4.996094 -14.902344 4.28125 -15.488281 3.480469 -15.417969 C 2.679688 -15.347656 2.078125 -14.648438 2.148438 -13.847656 C 2.21875 -13.03125 2.933594 -12.429688 3.734375 -12.5 Z M 2.121094 -3.214844 L 3.59375 -8.972656 C 3.644531 -9.210938 3.710938 -9.46875 3.695312 -9.644531 C 3.628906 -10.429688 3.003906 -10.785156 2.398438 -10.734375 C 1.847656 -10.683594 1.296875 -10.242188 1.082031 -9.382812 C 0.660156 -7.660156 0.0976562 -5.476562 -0.328125 -3.773438 C -0.402344 -3.40625 -0.503906 -2.914062 -0.476562 -2.613281 C -0.332031 -0.9375 1.140625 -0.0976562 2.777344 -0.242188 C 4.519531 -0.394531 6.347656 -1.628906 7.273438 -5.421875 C 7.300781 -5.53125 7.308594 -5.636719 7.300781 -5.746094 C 7.25 -6.296875 6.6875 -6.589844 6.152344 -6.542969 C 5.671875 -6.5 5.214844 -6.210938 5.050781 -5.640625 C 4.414062 -3.253906 3.535156 -2.441406 2.824219 -2.378906 C 2.414062 -2.34375 2.125 -2.585938 2.09375 -2.925781 C 2.085938 -3.015625 2.097656 -3.105469 2.121094 -3.214844 Z M 2.121094 -3.214844 "/></g></g></g><g fill="#fffad7" fill-opacity="1"><g transform="translate(42.614789, 22.313765)"><g><path d="M 8.566406 -5.800781 C 7.964844 -3.667969 6.167969 -2.671875 4.65625 -2.539062 C 3.355469 -2.425781 2.484375 -2.976562 2.414062 -3.796875 C 2.398438 -3.957031 2.402344 -4.117188 2.457031 -4.300781 L 2.570312 -4.652344 C 3.113281 -4.378906 3.773438 -4.21875 4.484375 -4.28125 C 6.105469 -4.421875 7.441406 -5.558594 7.78125 -7.203125 C 7.839844 -7.550781 7.863281 -7.890625 7.839844 -8.195312 C 7.691406 -9.886719 6.242188 -11.066406 4.234375 -10.894531 C 2.648438 -10.753906 1.183594 -9.695312 0.714844 -7.863281 L -0.0703125 -4.726562 C -0.175781 -4.289062 -0.226562 -3.851562 -0.191406 -3.445312 C -0.0078125 -1.324219 2.101562 -0.183594 4.699219 -0.410156 C 7.171875 -0.625 9.878906 -2.078125 10.753906 -5.582031 C 10.796875 -5.726562 10.804688 -5.851562 10.792969 -5.960938 C 10.746094 -6.511719 10.222656 -6.769531 9.6875 -6.722656 C 9.191406 -6.679688 8.679688 -6.367188 8.566406 -5.800781 Z M 4.363281 -8.789062 C 4.859375 -8.832031 5.214844 -8.449219 5.261719 -7.933594 C 5.273438 -7.792969 5.269531 -7.648438 5.226562 -7.5 C 5.101562 -6.898438 4.585938 -6.636719 4.050781 -6.59375 C 3.714844 -6.5625 3.371094 -6.605469 3.109375 -6.726562 L 3.386719 -7.824219 C 3.535156 -8.394531 3.953125 -8.753906 4.363281 -8.789062 Z M 4.363281 -8.789062 "/></g></g></g><g fill="#fffad7" fill-opacity="1"><g transform="translate(51.049253, 21.57944)"><g><path d="M 1.019531 -8.480469 L -2.566406 5.316406 C -2.621094 5.515625 -2.640625 5.714844 -2.625 5.894531 C -2.558594 6.640625 -1.894531 7.066406 -1.238281 7.011719 C -0.683594 6.960938 -0.144531 6.574219 0.0664062 5.714844 L 3.757812 -8.71875 L 5.054688 -8.847656 C 5.890625 -8.941406 6.230469 -9.578125 6.183594 -10.09375 C 6.140625 -10.59375 5.726562 -11.023438 5.070312 -10.964844 L 4.339844 -10.902344 L 5.09375 -13.78125 C 5.199219 -14.222656 5.511719 -14.519531 5.816406 -14.542969 C 6.1875 -14.578125 6.351562 -14.375 6.375 -14.074219 C 6.386719 -13.96875 6.378906 -13.859375 6.351562 -13.730469 C 6.277344 -13.546875 6.257812 -13.382812 6.273438 -13.222656 C 6.324219 -12.597656 6.96875 -12.226562 7.589844 -12.277344 C 8.160156 -12.328125 8.714844 -12.734375 8.835938 -13.625 C 8.867188 -13.878906 8.882812 -14.113281 8.863281 -14.34375 C 8.726562 -15.910156 7.414062 -16.980469 5.867188 -16.84375 C 4.355469 -16.710938 2.914062 -15.726562 2.417969 -13.820312 L 1.597656 -10.664062 L 1.136719 -10.625 C 0.0351562 -10.527344 -0.375 -9.863281 -0.324219 -9.292969 C -0.28125 -8.796875 0.09375 -8.398438 0.644531 -8.445312 Z M 1.019531 -8.480469 "/></g></g></g><g fill="#fffad7" fill-opacity="1"><g transform="translate(56.743407, 21.083692)"><g><path d="M 2.1875 -3.273438 L 3.675781 -9.050781 C 3.730469 -9.253906 3.75 -9.433594 3.734375 -9.613281 C 3.671875 -10.34375 2.988281 -10.785156 2.328125 -10.726562 C 1.832031 -10.683594 1.324219 -10.335938 1.136719 -9.601562 L -0.484375 -3.292969 C -0.578125 -2.945312 -0.601562 -2.601562 -0.574219 -2.28125 C -0.46875 -1.070312 0.460938 -0.273438 1.636719 -0.140625 C -0.492188 0.527344 -2.566406 1.605469 -2.378906 3.792969 C -2.226562 5.519531 -0.527344 6.519531 1.21875 6.367188 C 2.980469 6.214844 4.550781 5.125 5.121094 2.996094 C 5.304688 2.226562 5.519531 1.417969 5.722656 0.667969 C 8.199219 -0.355469 10.695312 -1.972656 11.597656 -5.816406 C 11.636719 -5.960938 11.640625 -6.105469 11.632812 -6.230469 C 11.578125 -6.835938 11.085938 -7.152344 10.550781 -7.105469 C 10.070312 -7.0625 9.582031 -6.714844 9.390625 -6 C 8.890625 -4.125 7.792969 -2.957031 6.46875 -2.121094 L 8.34375 -9.582031 C 8.386719 -9.75 8.390625 -9.890625 8.378906 -10.015625 C 8.316406 -10.746094 7.632812 -11.1875 6.972656 -11.132812 C 6.476562 -11.089844 5.96875 -10.738281 5.78125 -10.003906 L 4.257812 -3.8125 C 3.773438 -2.800781 3.179688 -2.390625 2.699219 -2.351562 C 2.378906 -2.324219 2.167969 -2.5 2.140625 -2.820312 C 2.128906 -2.945312 2.148438 -3.109375 2.1875 -3.273438 Z M 2.539062 1.769531 L 2.21875 3.015625 C 2.023438 3.695312 1.503906 4.082031 0.96875 4.128906 C 0.558594 4.164062 0.359375 3.929688 0.332031 3.609375 C 0.324219 3.503906 0.328125 3.359375 0.371094 3.230469 C 0.566406 2.585938 1.410156 2.171875 2.539062 1.769531 Z M 2.539062 1.769531 "/></g></g></g><g fill="#fffad7" fill-opacity="1"><g transform="translate(65.99641, 20.278103)"><g><path d="M 3.554688 -3.25 C 2.734375 -3.179688 2.152344 -2.480469 2.222656 -1.664062 C 2.292969 -0.863281 2.988281 -0.261719 3.808594 -0.332031 C 4.609375 -0.402344 5.210938 -1.117188 5.140625 -1.917969 C 5.070312 -2.734375 4.355469 -3.320312 3.554688 -3.25 Z M 3.554688 -3.25 "/></g></g></g></svg>