<svg xmlns="http://www.w3.org/2000/svg" xmlns:xlink="http://www.w3.org/1999/xlink" width="80" zoomAndPan="magnify" viewBox="0 0 60 59.249999" height="79" preserveAspectRatio="xMidYMid meet" version="1.0"><defs><g/><clipPath id="5ea30f80e2"><path d="M 0.46875 0.40625 L 58.238281 0.40625 L 58.238281 58.175781 L 0.46875 58.175781 Z M 0.46875 0.40625 " clip-rule="nonzero"/></clipPath></defs><g clip-path="url(#5ea30f80e2)"><path fill="#e08264" d="M 14.777344 0.40625 L 43.933594 0.40625 C 44.871094 0.40625 45.804688 0.496094 46.722656 0.679688 C 47.644531 0.863281 48.539062 1.136719 49.40625 1.496094 C 50.277344 1.855469 51.101562 2.292969 51.882812 2.816406 C 52.664062 3.339844 53.386719 3.929688 54.050781 4.597656 C 54.714844 5.261719 55.304688 5.984375 55.828125 6.765625 C 56.351562 7.542969 56.789062 8.371094 57.148438 9.238281 C 57.507812 10.105469 57.78125 11 57.964844 11.921875 C 58.148438 12.84375 58.238281 13.773438 58.238281 14.710938 L 58.238281 43.867188 C 58.238281 44.808594 58.148438 45.738281 57.964844 46.660156 C 57.78125 47.582031 57.511719 48.476562 57.148438 49.34375 C 56.789062 50.210938 56.351562 51.035156 55.828125 51.816406 C 55.304688 52.597656 54.714844 53.320312 54.050781 53.984375 C 53.386719 54.648438 52.664062 55.242188 51.882812 55.761719 C 51.101562 56.285156 50.277344 56.726562 49.40625 57.085938 C 48.539062 57.445312 47.644531 57.714844 46.722656 57.898438 C 45.804688 58.082031 44.871094 58.175781 43.933594 58.175781 L 14.777344 58.175781 C 13.835938 58.175781 12.90625 58.082031 11.984375 57.898438 C 11.0625 57.714844 10.167969 57.445312 9.300781 57.085938 C 8.433594 56.726562 7.609375 56.285156 6.828125 55.761719 C 6.046875 55.242188 5.324219 54.648438 4.660156 53.984375 C 3.996094 53.320312 3.402344 52.597656 2.882812 51.816406 C 2.359375 51.035156 1.917969 50.210938 1.558594 49.34375 C 1.199219 48.476562 0.929688 47.582031 0.746094 46.660156 C 0.5625 45.738281 0.46875 44.808594 0.46875 43.867188 L 0.46875 14.710938 C 0.46875 13.773438 0.5625 12.84375 0.746094 11.921875 C 0.929688 11 1.199219 10.105469 1.558594 9.238281 C 1.917969 8.371094 2.359375 7.542969 2.882812 6.765625 C 3.402344 5.984375 3.996094 5.261719 4.660156 4.597656 C 5.324219 3.929688 6.046875 3.339844 6.828125 2.816406 C 7.609375 2.292969 8.433594 1.855469 9.300781 1.496094 C 10.167969 1.136719 11.0625 0.863281 11.984375 0.679688 C 12.90625 0.496094 13.835938 0.40625 14.777344 0.40625 Z M 14.777344 0.40625 " fill-opacity="1" fill-rule="nonzero"/></g><g fill="#fffad7" fill-opacity="1"><g transform="translate(7.294997, 28.342757)"><g><path d="M 8.296875 0 L 4.859375 0 L 4.859375 -13.34375 L 0.453125 -13.34375 L 0.453125 -16.203125 L 12.6875 -16.203125 L 12.6875 -13.34375 L 8.296875 -13.34375 Z M 8.296875 0 "/></g></g><g transform="translate(20.444969, 28.342757)"><g><path d="M 16.75 -8.125 C 16.75 -5.445312 16.082031 -3.382812 14.75 -1.9375 C 13.425781 -0.5 11.519531 0.21875 9.03125 0.21875 C 6.550781 0.21875 4.644531 -0.5 3.3125 -1.9375 C 1.976562 -3.382812 1.3125 -5.453125 1.3125 -8.140625 C 1.3125 -10.835938 1.976562 -12.898438 3.3125 -14.328125 C 4.65625 -15.753906 6.570312 -16.46875 9.0625 -16.46875 C 11.550781 -16.46875 13.453125 -15.75 14.765625 -14.3125 C 16.085938 -12.875 16.75 -10.8125 16.75 -8.125 Z M 4.921875 -8.125 C 4.921875 -6.3125 5.265625 -4.945312 5.953125 -4.03125 C 6.640625 -3.113281 7.664062 -2.65625 9.03125 -2.65625 C 11.769531 -2.65625 13.140625 -4.476562 13.140625 -8.125 C 13.140625 -11.78125 11.78125 -13.609375 9.0625 -13.609375 C 7.6875 -13.609375 6.648438 -13.144531 5.953125 -12.21875 C 5.265625 -11.300781 4.921875 -9.9375 4.921875 -8.125 Z M 4.921875 -8.125 "/></g></g><g transform="translate(38.517866, 28.342757)"><g><path d="M 5.46875 -8.578125 L 6.609375 -8.578125 C 7.660156 -8.578125 8.445312 -8.785156 8.96875 -9.203125 C 9.5 -9.617188 9.765625 -10.226562 9.765625 -11.03125 C 9.765625 -11.832031 9.546875 -12.425781 9.109375 -12.8125 C 8.671875 -13.195312 7.984375 -13.390625 7.046875 -13.390625 L 5.46875 -13.390625 Z M 13.234375 -11.15625 C 13.234375 -9.40625 12.6875 -8.066406 11.59375 -7.140625 C 10.507812 -6.222656 8.960938 -5.765625 6.953125 -5.765625 L 5.46875 -5.765625 L 5.46875 0 L 2.046875 0 L 2.046875 -16.203125 L 7.21875 -16.203125 C 9.1875 -16.203125 10.679688 -15.78125 11.703125 -14.9375 C 12.722656 -14.09375 13.234375 -12.832031 13.234375 -11.15625 Z M 13.234375 -11.15625 "/></g></g></g><g fill="#fffad7" fill-opacity="1"><g transform="translate(17.052143, 47.705732)"><g><path d="M 9.375 0 L 5.953125 0 L 5.953125 -9.375 L 5.984375 -10.921875 L 6.046875 -12.609375 C 5.472656 -12.035156 5.078125 -11.660156 4.859375 -11.484375 L 3 -9.984375 L 1.34375 -12.046875 L 6.5625 -16.203125 L 9.375 -16.203125 Z M 9.375 0 "/></g></g><g transform="translate(30.035801, 47.705732)"><g><path d="M 12.15625 -8.109375 C 12.15625 -5.273438 11.691406 -3.175781 10.765625 -1.8125 C 9.835938 -0.457031 8.40625 0.21875 6.46875 0.21875 C 4.601562 0.21875 3.195312 -0.476562 2.25 -1.875 C 1.300781 -3.28125 0.828125 -5.359375 0.828125 -8.109375 C 0.828125 -10.960938 1.285156 -13.066406 2.203125 -14.421875 C 3.128906 -15.785156 4.550781 -16.46875 6.46875 -16.46875 C 8.34375 -16.46875 9.757812 -15.753906 10.71875 -14.328125 C 11.675781 -12.910156 12.15625 -10.835938 12.15625 -8.109375 Z M 4.21875 -8.109375 C 4.21875 -6.117188 4.390625 -4.691406 4.734375 -3.828125 C 5.078125 -2.960938 5.65625 -2.53125 6.46875 -2.53125 C 7.269531 -2.53125 7.847656 -2.96875 8.203125 -3.84375 C 8.554688 -4.71875 8.734375 -6.140625 8.734375 -8.109375 C 8.734375 -10.085938 8.550781 -11.507812 8.1875 -12.375 C 7.832031 -13.25 7.257812 -13.6875 6.46875 -13.6875 C 5.664062 -13.6875 5.085938 -13.25 4.734375 -12.375 C 4.390625 -11.507812 4.21875 -10.085938 4.21875 -8.109375 Z M 4.21875 -8.109375 "/></g></g></g></svg>