<svg xmlns="http://www.w3.org/2000/svg" xmlns:xlink="http://www.w3.org/1999/xlink" width="100" zoomAndPan="magnify" viewBox="0 0 75 37.5" height="50" preserveAspectRatio="xMidYMid meet" version="1.0"><defs><clipPath id="0241174dbd"><path d="M 41.238281 8.542969 L 71.023438 8.542969 L 71.023438 36.976562 L 41.238281 36.976562 Z M 41.238281 8.542969 " clip-rule="nonzero"/></clipPath><clipPath id="8aa5e763d2"><path d="M 38.648438 11.851562 L 70.789062 8.195312 L 73.804688 34.71875 L 41.660156 38.371094 Z M 38.648438 11.851562 " clip-rule="nonzero"/></clipPath><clipPath id="dc71088f72"><path d="M 38.648438 11.851562 L 70.789062 8.195312 L 73.804688 34.71875 L 41.660156 38.371094 Z M 38.648438 11.851562 " clip-rule="nonzero"/></clipPath></defs><g clip-path="url(#0241174dbd)"><g clip-path="url(#8aa5e763d2)"><g clip-path="url(#dc71088f72)"><path fill="#e08264" d="M 67.140625 10.355469 C 67.078125 10.683594 67 11.011719 66.898438 11.34375 C 66.714844 11.296875 66.53125 11.25 66.347656 11.203125 C 66.457031 10.871094 66.546875 10.546875 66.625 10.222656 C 66.796875 10.269531 66.96875 10.3125 67.140625 10.355469 Z M 69.953125 11.765625 C 69.835938 14.128906 68.863281 16.640625 66.8125 19.023438 C 65.472656 18.679688 64.128906 18.335938 62.789062 17.992188 C 65.316406 15.726562 66.746094 13.335938 67.269531 11.074219 C 68.164062 11.304688 69.058594 11.535156 69.953125 11.765625 Z M 70.75 11.285156 C 70.769531 11.628906 70.773438 11.980469 70.761719 12.335938 C 70.578125 12.289062 70.390625 12.242188 70.207031 12.195312 C 70.230469 11.84375 70.238281 11.496094 70.234375 11.148438 C 70.40625 11.195312 70.578125 11.238281 70.75 11.285156 Z M 70.710938 13.074219 C 70.671875 13.433594 70.617188 13.792969 70.542969 14.15625 C 70.335938 14.101562 70.132812 14.050781 69.925781 13.996094 C 70.011719 13.640625 70.082031 13.28125 70.128906 12.925781 C 70.324219 12.976562 70.515625 13.023438 70.710938 13.074219 Z M 70.359375 14.910156 C 70.257812 15.273438 70.132812 15.636719 69.988281 16 C 69.761719 15.941406 69.53125 15.882812 69.304688 15.824219 C 69.460938 15.464844 69.597656 15.101562 69.714844 14.742188 C 69.929688 14.796875 70.144531 14.851562 70.359375 14.910156 Z M 69.660156 16.753906 C 69.484375 17.121094 69.289062 17.484375 69.070312 17.84375 C 68.816406 17.78125 68.566406 17.714844 68.316406 17.652344 C 68.546875 17.292969 68.757812 16.933594 68.945312 16.574219 C 69.183594 16.632812 69.421875 16.695312 69.660156 16.753906 Z M 68.585938 18.59375 C 68.339844 18.953125 68.070312 19.3125 67.78125 19.667969 C 67.503906 19.597656 67.230469 19.523438 66.953125 19.453125 C 67.257812 19.101562 67.542969 18.746094 67.804688 18.390625 C 68.0625 18.457031 68.324219 18.527344 68.585938 18.59375 Z M 67.152344 20.402344 C 66.839844 20.753906 66.503906 21.101562 66.152344 21.453125 C 65.851562 21.375 65.554688 21.296875 65.253906 21.21875 C 65.621094 20.875 65.96875 20.53125 66.300781 20.179688 C 66.582031 20.253906 66.867188 20.328125 67.152344 20.402344 Z M 65.402344 22.167969 C 65.03125 22.511719 64.644531 22.851562 64.246094 23.191406 C 63.921875 23.109375 63.597656 23.027344 63.277344 22.941406 C 63.6875 22.609375 64.089844 22.269531 64.476562 21.929688 C 64.785156 22.007812 65.09375 22.089844 65.402344 22.167969 Z M 63.410156 23.890625 C 63 24.226562 62.582031 24.558594 62.160156 24.890625 C 61.8125 24.800781 61.460938 24.714844 61.113281 24.625 C 61.550781 24.296875 61.984375 23.964844 62.410156 23.632812 C 62.742188 23.71875 63.074219 23.804688 63.410156 23.890625 Z M 61.28125 25.574219 C 60.855469 25.902344 60.429688 26.230469 60.011719 26.558594 C 59.636719 26.460938 59.265625 26.367188 58.894531 26.269531 C 59.328125 25.949219 59.765625 25.625 60.207031 25.300781 C 60.5625 25.390625 60.921875 25.484375 61.28125 25.574219 Z M 59.148438 27.230469 C 58.738281 27.554688 58.335938 27.878906 57.949219 28.203125 C 57.554688 28.101562 57.15625 28 56.761719 27.898438 C 57.164062 27.578125 57.578125 27.257812 58.003906 26.9375 C 58.386719 27.035156 58.769531 27.132812 59.148438 27.230469 Z M 57.167969 28.875 C 56.804688 29.199219 56.457031 29.523438 56.132812 29.847656 C 55.714844 29.742188 55.292969 29.632812 54.871094 29.523438 C 55.210938 29.203125 55.570312 28.882812 55.949219 28.5625 C 56.355469 28.664062 56.761719 28.769531 57.167969 28.875 Z M 55.5 30.527344 C 55.210938 30.855469 54.949219 31.183594 54.722656 31.515625 C 54.28125 31.402344 53.835938 31.289062 53.394531 31.171875 C 53.636719 30.84375 53.910156 30.519531 54.210938 30.195312 C 54.640625 30.304688 55.070312 30.414062 55.5 30.527344 Z M 54.296875 32.203125 C 54.117188 32.539062 53.972656 32.878906 53.867188 33.21875 C 53.402344 33.097656 52.9375 32.980469 52.472656 32.859375 C 52.589844 32.523438 52.75 32.1875 52.941406 31.855469 C 53.394531 31.972656 53.847656 32.089844 54.296875 32.203125 Z M 53.707031 33.929688 C 53.660156 34.273438 53.65625 34.625 53.695312 34.976562 C 53.210938 34.851562 52.726562 34.726562 52.242188 34.601562 C 52.210938 34.253906 52.230469 33.90625 52.289062 33.566406 C 52.761719 33.6875 53.234375 33.808594 53.707031 33.929688 Z M 44.425781 31.910156 C 45.066406 29.679688 47.894531 27.648438 51.28125 25.601562 C 53.195312 26.09375 55.113281 26.585938 57.027344 27.078125 C 54.117188 29.246094 51.746094 31.394531 51.515625 33.730469 C 49.152344 33.125 46.789062 32.515625 44.425781 31.910156 Z M 42.101562 32 C 42.15625 31.671875 42.257812 31.347656 42.402344 31.027344 C 42.875 31.148438 43.347656 31.269531 43.820312 31.390625 C 43.6875 31.714844 43.597656 32.042969 43.558594 32.371094 C 43.070312 32.25 42.585938 32.125 42.101562 32 Z M 42.765625 30.367188 C 42.972656 30.050781 43.21875 29.742188 43.5 29.433594 C 43.953125 29.546875 44.40625 29.664062 44.855469 29.78125 C 44.585938 30.09375 44.351562 30.40625 44.160156 30.726562 C 43.695312 30.605469 43.230469 30.488281 42.765625 30.367188 Z M 44.140625 28.796875 C 44.472656 28.492188 44.839844 28.191406 45.238281 27.890625 C 45.664062 28 46.09375 28.113281 46.523438 28.222656 C 46.140625 28.523438 45.789062 28.832031 45.46875 29.136719 C 45.027344 29.023438 44.585938 28.910156 44.140625 28.796875 Z M 46.09375 27.269531 C 46.527344 26.972656 46.984375 26.675781 47.460938 26.382812 C 47.867188 26.484375 48.273438 26.589844 48.679688 26.695312 C 48.214844 26.992188 47.773438 27.292969 47.355469 27.59375 C 46.933594 27.488281 46.515625 27.378906 46.09375 27.269531 Z M 48.46875 25.769531 C 48.96875 25.472656 49.484375 25.179688 50.007812 24.882812 C 50.390625 24.980469 50.773438 25.082031 51.15625 25.179688 C 50.644531 25.476562 50.144531 25.777344 49.660156 26.074219 C 49.261719 25.972656 48.867188 25.871094 48.46875 25.769531 Z M 51.105469 24.269531 C 51.640625 23.972656 52.179688 23.675781 52.71875 23.375 C 53.074219 23.46875 53.433594 23.558594 53.792969 23.652344 C 53.265625 23.957031 52.742188 24.257812 52.222656 24.558594 C 51.851562 24.460938 51.476562 24.367188 51.105469 24.269531 Z M 53.832031 22.753906 C 54.371094 22.453125 54.90625 22.148438 55.429688 21.84375 C 55.761719 21.929688 56.097656 22.015625 56.429688 22.101562 C 55.921875 22.410156 55.402344 22.71875 54.878906 23.023438 C 54.53125 22.933594 54.183594 22.84375 53.832031 22.753906 Z M 56.507812 21.207031 C 57.019531 20.894531 57.519531 20.582031 58.007812 20.269531 C 58.316406 20.347656 58.625 20.425781 58.9375 20.507812 C 58.464844 20.824219 57.976562 21.140625 57.476562 21.453125 C 57.152344 21.371094 56.832031 21.289062 56.507812 21.207031 Z M 62.066406 18.621094 C 63.453125 18.976562 64.839844 19.332031 66.226562 19.691406 C 64.050781 22.066406 60.839844 24.304688 57.847656 26.472656 C 55.976562 25.992188 54.105469 25.511719 52.234375 25.03125 C 55.707031 22.988281 59.414062 20.878906 62.066406 18.621094 Z M 58.996094 19.613281 C 59.460938 19.296875 59.910156 18.972656 60.339844 18.652344 C 60.625 18.722656 60.910156 18.796875 61.195312 18.871094 C 60.777344 19.199219 60.34375 19.523438 59.894531 19.84375 C 59.59375 19.765625 59.292969 19.691406 58.996094 19.613281 Z M 61.203125 17.976562 C 61.601562 17.648438 61.984375 17.320312 62.34375 16.988281 C 62.605469 17.058594 62.867188 17.125 63.128906 17.191406 C 62.78125 17.527344 62.414062 17.859375 62.027344 18.1875 C 61.75 18.117188 61.476562 18.046875 61.203125 17.976562 Z M 63.058594 16.300781 C 63.386719 15.96875 63.691406 15.632812 63.976562 15.296875 C 64.214844 15.359375 64.453125 15.417969 64.6875 15.480469 C 64.417969 15.820312 64.125 16.15625 63.8125 16.496094 C 63.5625 16.429688 63.308594 16.367188 63.058594 16.300781 Z M 64.53125 14.601562 C 64.785156 14.261719 65.011719 13.925781 65.21875 13.589844 C 65.433594 13.644531 65.648438 13.699219 65.863281 13.753906 C 65.671875 14.09375 65.453125 14.433594 65.214844 14.777344 C 64.988281 14.71875 64.757812 14.660156 64.53125 14.601562 Z M 65.617188 12.890625 C 65.796875 12.554688 65.953125 12.222656 66.089844 11.886719 C 66.28125 11.9375 66.476562 11.988281 66.671875 12.039062 C 66.546875 12.375 66.402344 12.710938 66.238281 13.050781 C 66.03125 12.996094 65.824219 12.945312 65.617188 12.890625 Z M 66.867188 8.722656 C 66.792969 8.703125 66.722656 8.6875 66.648438 8.667969 C 66.4375 10.671875 65.617188 12.90625 63.746094 15.09375 C 61.914062 17.285156 58.964844 19.410156 55.511719 21.40625 C 52.089844 23.410156 48.175781 25.289062 45.351562 27.226562 C 42.503906 29.160156 40.84375 31.179688 41.503906 33.410156 C 41.742188 33.46875 41.976562 33.53125 42.210938 33.589844 C 42.121094 33.285156 42.070312 32.984375 42.058594 32.6875 C 42.550781 32.8125 43.046875 32.9375 43.539062 33.066406 C 43.558594 33.367188 43.621094 33.671875 43.722656 33.976562 C 43.976562 34.042969 44.230469 34.109375 44.488281 34.175781 C 44.296875 33.617188 44.238281 33.070312 44.300781 32.535156 C 46.699219 33.152344 49.101562 33.769531 51.5 34.386719 C 51.53125 34.945312 51.683594 35.515625 51.960938 36.09375 C 52.21875 36.160156 52.472656 36.226562 52.730469 36.289062 C 52.570312 35.96875 52.449219 35.648438 52.367188 35.332031 C 52.859375 35.457031 53.351562 35.585938 53.84375 35.710938 C 53.9375 36.03125 54.070312 36.351562 54.238281 36.679688 C 54.472656 36.738281 54.710938 36.800781 54.945312 36.859375 C 53.640625 34.464844 54.558594 32.253906 56.613281 30.117188 C 58.644531 27.976562 61.714844 25.882812 64.292969 23.660156 C 66.90625 21.449219 69.011719 19.109375 70.050781 16.710938 C 71.128906 14.324219 71.210938 11.898438 70.777344 9.726562 C 70.707031 9.710938 70.632812 9.691406 70.5625 9.671875 C 70.613281 9.96875 70.660156 10.265625 70.691406 10.570312 C 70.527344 10.527344 70.363281 10.488281 70.199219 10.445312 C 70.175781 10.144531 70.140625 9.84375 70.097656 9.554688 C 70.019531 9.53125 69.941406 9.511719 69.863281 9.492188 C 69.929688 10.019531 69.96875 10.558594 69.96875 11.109375 C 69.113281 10.890625 68.257812 10.667969 67.402344 10.449219 C 67.496094 9.921875 67.546875 9.40625 67.566406 8.902344 C 67.488281 8.882812 67.410156 8.863281 67.332031 8.84375 C 67.316406 9.121094 67.289062 9.402344 67.25 9.6875 C 67.085938 9.644531 66.921875 9.601562 66.757812 9.5625 C 66.804688 9.277344 66.839844 9 66.867188 8.722656 " fill-opacity="1" fill-rule="nonzero"/></g></g></g><path fill="#e08264" d="M 20.375 17.296875 C 19.929688 19.40625 19.140625 20.429688 18.335938 20.546875 C 17.992188 20.597656 17.738281 20.410156 17.6875 20.066406 C 17.667969 19.914062 17.691406 19.71875 17.726562 19.503906 L 19.378906 11.578125 C 19.460938 11.199219 19.488281 10.796875 19.417969 10.316406 C 19.183594 8.710938 17.828125 7.6875 16.085938 7.941406 C 15.058594 8.09375 13.890625 8.683594 13.210938 9.636719 C 12.5625 8.914062 11.984375 8.542969 10.820312 8.714844 C 9.726562 8.875 9.109375 9.664062 9.054688 9.757812 C 8.855469 9.351562 8.328125 9.078125 7.675781 9.175781 C 7.183594 9.246094 6.527344 9.554688 6.386719 10.253906 L 3.796875 23.203125 C 3.753906 23.382812 3.777344 23.539062 3.800781 23.691406 C 3.910156 24.445312 4.570312 24.785156 5.238281 24.6875 C 5.820312 24.601562 6.402344 24.167969 6.566406 23.375 L 8.515625 13.695312 C 8.757812 12.492188 9.300781 11.800781 10.070312 11.6875 C 10.960938 11.554688 11.300781 12.203125 11.015625 13.609375 L 9.230469 22.265625 C 9.179688 22.519531 9.160156 22.75 9.1875 22.9375 C 9.296875 23.671875 9.953125 23.992188 10.605469 23.898438 C 11.203125 23.8125 11.785156 23.375 11.945312 22.566406 L 13.828125 13.144531 C 14.066406 11.921875 14.636719 11.035156 15.472656 10.914062 C 16.140625 10.816406 16.667969 11.332031 16.484375 12.214844 L 15.0625 19.175781 C 14.972656 19.644531 14.957031 20.136719 15.015625 20.527344 C 15.265625 22.21875 16.757812 22.996094 18.414062 22.753906 C 20.292969 22.476562 21.910156 20.984375 22.480469 17.496094 C 22.492188 17.355469 22.511719 17.230469 22.492188 17.109375 C 22.40625 16.511719 21.84375 16.246094 21.328125 16.320312 C 20.882812 16.386719 20.496094 16.703125 20.375 17.296875 Z M 20.375 17.296875 " fill-opacity="0.7686" fill-rule="nonzero"/><path fill="#e08264" d="M 27.222656 17.8125 C 27.222656 17.832031 27.183594 17.558594 27.066406 17.242188 C 27.175781 17.140625 27.273438 16.984375 27.355469 16.816406 C 27.582031 16.347656 27.878906 14.785156 27.777344 14.101562 C 27.519531 12.359375 25.914062 11.40625 24.070312 11.675781 C 22.464844 11.910156 21.074219 13.023438 20.75 14.625 L 20.019531 18.328125 C 19.925781 18.777344 19.921875 19.214844 19.976562 19.589844 C 20.238281 21.386719 21.933594 22.238281 23.679688 21.980469 C 25.011719 21.785156 26.160156 21.179688 26.699219 19.84375 C 27.019531 19.886719 27.386719 19.882812 27.746094 19.832031 C 29.761719 19.535156 31.140625 17.867188 31.457031 15.988281 C 31.480469 15.792969 31.492188 15.617188 31.46875 15.460938 C 31.375 14.828125 30.863281 14.539062 30.367188 14.613281 C 29.902344 14.679688 29.464844 15.023438 29.371094 15.683594 C 29.148438 16.796875 28.472656 17.648438 27.464844 17.796875 C 27.394531 17.804688 27.292969 17.820312 27.222656 17.8125 Z M 25.246094 15.414062 C 25.21875 15.574219 25.1875 15.71875 25.191406 15.859375 C 24.234375 15.894531 23.511719 16.785156 23.660156 17.8125 C 23.761719 18.390625 24.097656 18.65625 24.460938 18.882812 C 24.328125 19.511719 23.875 19.875 23.347656 19.953125 C 22.679688 20.050781 22.449219 19.664062 22.386719 19.253906 C 22.339844 18.929688 22.378906 18.609375 22.425781 18.429688 L 23.128906 14.78125 C 23.25 14.1875 23.800781 13.777344 24.332031 13.699219 C 24.859375 13.621094 25.253906 13.929688 25.3125 14.324219 C 25.359375 14.628906 25.3125 15.039062 25.246094 15.414062 Z M 25.246094 15.414062 " fill-opacity="0.7686" fill-rule="nonzero"/><path fill="#e08264" d="M 38.160156 14.671875 C 37.988281 15.519531 37.628906 16.042969 36.996094 16.136719 C 36.433594 16.21875 36.089844 15.902344 36.019531 15.441406 C 36 15.304688 36.011719 15.128906 36.039062 14.964844 C 36.714844 13.15625 37.183594 12.164062 37.042969 11.222656 C 36.921875 10.386719 36.359375 9.875 35.417969 10.011719 C 33.691406 10.265625 32.816406 12.871094 33.082031 14.683594 C 33.144531 15.09375 33.265625 15.460938 33.453125 15.78125 L 32.722656 17.339844 C 32.519531 17.753906 32.042969 18.539062 31.800781 18.574219 C 31.75 18.582031 31.710938 18.535156 31.695312 18.433594 C 31.671875 18.277344 31.667969 18.121094 31.691406 17.925781 L 32.183594 12.25 C 32.207031 12.054688 32.199219 11.878906 32.179688 11.726562 C 32.058594 10.90625 31.4375 10.597656 30.835938 10.683594 C 30.222656 10.773438 29.664062 11.257812 29.601562 12.015625 L 29.171875 17.773438 C 29.148438 18.089844 29.160156 18.402344 29.199219 18.675781 C 29.421875 20.195312 30.53125 20.976562 31.863281 20.78125 C 33.078125 20.601562 33.558594 19.957031 34.496094 18.492188 L 35.015625 17.628906 C 35.578125 18.125 36.375 18.339844 37.28125 18.207031 C 38.941406 17.960938 40.023438 16.667969 40.296875 14.832031 C 40.316406 14.722656 40.304688 14.636719 40.289062 14.550781 C 40.207031 13.988281 39.628906 13.722656 39.097656 13.800781 C 38.652344 13.867188 38.257812 14.152344 38.160156 14.671875 Z M 38.160156 14.671875 " fill-opacity="0.7686" fill-rule="nonzero"/><path fill="#e08264" d="M 41.203125 7.558594 C 41.972656 7.445312 42.511719 6.71875 42.394531 5.933594 C 42.28125 5.164062 41.558594 4.644531 40.792969 4.753906 C 40.023438 4.867188 39.480469 5.574219 39.59375 6.34375 C 39.707031 7.132812 40.433594 7.671875 41.203125 7.558594 Z M 40.171875 16.613281 L 41.265625 10.96875 C 41.300781 10.738281 41.351562 10.484375 41.328125 10.316406 C 41.21875 9.5625 40.59375 9.253906 40.015625 9.339844 C 39.484375 9.417969 38.976562 9.875 38.820312 10.71875 C 38.507812 12.40625 38.089844 14.542969 37.777344 16.214844 C 37.722656 16.570312 37.652344 17.050781 37.695312 17.34375 C 37.933594 18.949219 39.402344 19.675781 40.972656 19.445312 C 42.648438 19.199219 44.34375 17.902344 45.019531 14.191406 C 45.039062 14.082031 45.042969 13.976562 45.027344 13.875 C 44.949219 13.347656 44.386719 13.097656 43.875 13.171875 C 43.414062 13.238281 42.988281 13.546875 42.859375 14.105469 C 42.382812 16.445312 41.582031 17.277344 40.898438 17.378906 C 40.503906 17.4375 40.210938 17.21875 40.164062 16.894531 C 40.148438 16.808594 40.152344 16.71875 40.171875 16.613281 Z M 40.171875 16.613281 " fill-opacity="0.7686" fill-rule="nonzero"/><path fill="#e08264" d="M 50.964844 13.058594 C 50.503906 15.148438 48.828125 16.214844 47.375 16.429688 C 46.125 16.613281 45.253906 16.128906 45.136719 15.34375 C 45.113281 15.1875 45.109375 15.03125 45.152344 14.851562 L 45.242188 14.507812 C 45.78125 14.742188 46.425781 14.859375 47.109375 14.757812 C 48.667969 14.527344 49.890625 13.355469 50.125 11.75 C 50.164062 11.410156 50.167969 11.078125 50.125 10.789062 C 49.886719 9.164062 48.421875 8.105469 46.492188 8.386719 C 44.96875 8.613281 43.613281 9.71875 43.265625 11.515625 L 42.6875 14.585938 C 42.609375 15.015625 42.585938 15.4375 42.644531 15.832031 C 42.941406 17.863281 45.039062 18.847656 47.535156 18.484375 C 49.910156 18.132812 52.441406 16.578125 53.089844 13.148438 C 53.121094 13.003906 53.121094 12.878906 53.105469 12.777344 C 53.027344 12.25 52.507812 12.027344 51.996094 12.101562 C 51.515625 12.171875 51.039062 12.503906 50.964844 13.058594 Z M 46.734375 10.414062 C 47.214844 10.34375 47.578125 10.691406 47.652344 11.1875 C 47.671875 11.324219 47.675781 11.460938 47.644531 11.605469 C 47.554688 12.195312 47.074219 12.476562 46.558594 12.550781 C 46.234375 12.597656 45.902344 12.578125 45.640625 12.476562 L 45.851562 11.398438 C 45.960938 10.839844 46.34375 10.46875 46.734375 10.414062 Z M 46.734375 10.414062 " fill-opacity="0.7686" fill-rule="nonzero"/><path fill="#e08264" d="M 51.625 9.710938 L 48.949219 23.234375 C 48.90625 23.429688 48.902344 23.625 48.925781 23.796875 C 49.03125 24.511719 49.695312 24.886719 50.328125 24.792969 C 50.859375 24.714844 51.359375 24.3125 51.511719 23.46875 L 54.257812 9.328125 L 55.503906 9.128906 C 56.304688 8.992188 56.59375 8.355469 56.523438 7.859375 C 56.453125 7.382812 56.027344 6.992188 55.394531 7.082031 L 54.695312 7.183594 L 55.257812 4.363281 C 55.335938 3.933594 55.621094 3.628906 55.910156 3.585938 C 56.269531 3.535156 56.4375 3.71875 56.480469 4.007812 C 56.496094 4.109375 56.492188 4.214844 56.476562 4.339844 C 56.417969 4.523438 56.40625 4.683594 56.425781 4.835938 C 56.515625 5.433594 57.15625 5.761719 57.753906 5.671875 C 58.300781 5.59375 58.816406 5.167969 58.878906 4.300781 C 58.894531 4.054688 58.898438 3.828125 58.867188 3.605469 C 58.644531 2.101562 57.316406 1.144531 55.832031 1.363281 C 54.378906 1.578125 53.046875 2.609375 52.671875 4.480469 L 52.0625 7.570312 L 51.617188 7.636719 C 50.558594 7.792969 50.203125 8.457031 50.28125 9.003906 C 50.351562 9.480469 50.738281 9.84375 51.265625 9.765625 Z M 51.625 9.710938 " fill-opacity="0.7686" fill-rule="nonzero"/><path fill="#e08264" d="M 58.519531 13.871094 L 59.628906 8.207031 C 59.667969 8.011719 59.679688 7.835938 59.652344 7.664062 C 59.550781 6.960938 58.863281 6.574219 58.234375 6.667969 C 57.753906 6.738281 57.285156 7.101562 57.144531 7.820312 L 55.9375 14.003906 C 55.867188 14.34375 55.863281 14.679688 55.910156 14.984375 C 56.078125 16.148438 57.023438 16.863281 58.164062 16.925781 C 56.148438 17.691406 54.207031 18.847656 54.511719 20.953125 C 54.757812 22.609375 56.457031 23.476562 58.128906 23.230469 C 59.820312 22.984375 61.277344 21.84375 61.707031 19.757812 C 61.839844 19.003906 62.003906 18.210938 62.15625 17.472656 C 64.488281 16.347656 66.804688 14.644531 67.457031 10.882812 C 67.488281 10.738281 67.484375 10.597656 67.46875 10.480469 C 67.382812 9.898438 66.886719 9.621094 66.375 9.699219 C 65.914062 9.765625 65.460938 10.128906 65.320312 10.828125 C 64.941406 12.667969 63.949219 13.859375 62.714844 14.738281 L 64.105469 7.429688 C 64.132812 7.269531 64.128906 7.128906 64.113281 7.007812 C 64.011719 6.308594 63.324219 5.921875 62.691406 6.011719 C 62.214844 6.082031 61.746094 6.449219 61.605469 7.167969 L 60.488281 13.230469 C 60.074219 14.234375 59.527344 14.664062 59.066406 14.734375 C 58.757812 14.777344 58.542969 14.617188 58.496094 14.308594 C 58.480469 14.191406 58.492188 14.03125 58.519531 13.871094 Z M 59.144531 18.71875 L 58.902344 19.941406 C 58.757812 20.609375 58.277344 21.011719 57.761719 21.085938 C 57.371094 21.144531 57.164062 20.929688 57.117188 20.621094 C 57.105469 20.519531 57.101562 20.378906 57.132812 20.253906 C 57.285156 19.621094 58.074219 19.171875 59.144531 18.71875 Z M 59.144531 18.71875 " fill-opacity="0.7686" fill-rule="nonzero"/><path fill="#e08264" d="M 68.726562 12.511719 C 67.941406 12.628906 67.414062 13.332031 67.53125 14.117188 C 67.640625 14.886719 68.351562 15.429688 69.136719 15.316406 C 69.90625 15.203125 70.445312 14.476562 70.332031 13.707031 C 70.21875 12.921875 69.496094 12.398438 68.726562 12.511719 Z M 68.726562 12.511719 " fill-opacity="0.7686" fill-rule="nonzero"/><path fill="#fffad7" d="M 19.890625 16.835938 C 19.445312 18.945312 18.65625 19.96875 17.851562 20.085938 C 17.511719 20.136719 17.253906 19.945312 17.203125 19.605469 C 17.183594 19.449219 17.207031 19.253906 17.242188 19.039062 L 18.894531 11.117188 C 18.976562 10.738281 19.003906 10.332031 18.933594 9.855469 C 18.699219 8.246094 17.34375 7.226562 15.601562 7.480469 C 14.574219 7.628906 13.40625 8.222656 12.726562 9.175781 C 12.078125 8.449219 11.5 8.082031 10.335938 8.253906 C 9.246094 8.414062 8.625 9.199219 8.570312 9.296875 C 8.371094 8.890625 7.84375 8.617188 7.195312 8.714844 C 6.699219 8.785156 6.042969 9.089844 5.902344 9.792969 L 3.316406 22.742188 C 3.273438 22.921875 3.292969 23.074219 3.316406 23.230469 C 3.425781 23.980469 4.085938 24.320312 4.753906 24.222656 C 5.335938 24.136719 5.917969 23.703125 6.082031 22.910156 L 8.03125 13.234375 C 8.273438 12.027344 8.816406 11.335938 9.585938 11.226562 C 10.476562 11.09375 10.816406 11.742188 10.53125 13.148438 L 8.746094 21.804688 C 8.695312 22.058594 8.675781 22.285156 8.703125 22.476562 C 8.8125 23.210938 9.472656 23.53125 10.121094 23.4375 C 10.71875 23.347656 11.300781 22.914062 11.460938 22.105469 L 13.34375 12.679688 C 13.585938 11.460938 14.152344 10.574219 14.988281 10.449219 C 15.65625 10.351562 16.183594 10.867188 16 11.75 L 14.578125 18.714844 C 14.488281 19.183594 14.472656 19.671875 14.53125 20.066406 C 14.78125 21.757812 16.273438 22.535156 17.929688 22.292969 C 19.808594 22.015625 21.425781 20.523438 21.996094 17.035156 C 22.007812 16.894531 22.027344 16.769531 22.007812 16.648438 C 21.921875 16.050781 21.359375 15.785156 20.84375 15.859375 C 20.402344 15.925781 20.011719 16.242188 19.890625 16.835938 Z M 19.890625 16.835938 " fill-opacity="1" fill-rule="nonzero"/><path fill="#fffad7" d="M 26.738281 17.351562 C 26.738281 17.367188 26.699219 17.09375 26.582031 16.78125 C 26.691406 16.675781 26.789062 16.523438 26.871094 16.355469 C 27.097656 15.882812 27.394531 14.324219 27.292969 13.636719 C 27.039062 11.894531 25.429688 10.945312 23.585938 11.214844 C 21.980469 11.449219 20.589844 12.5625 20.265625 14.164062 L 19.535156 17.867188 C 19.441406 18.316406 19.4375 18.753906 19.492188 19.128906 C 19.753906 20.921875 21.449219 21.773438 23.195312 21.519531 C 24.527344 21.324219 25.679688 20.71875 26.214844 19.382812 C 26.535156 19.421875 26.902344 19.421875 27.261719 19.371094 C 29.277344 19.074219 30.65625 17.40625 30.972656 15.523438 C 30.996094 15.328125 31.007812 15.152344 30.984375 15 C 30.890625 14.367188 30.378906 14.078125 29.882812 14.148438 C 29.421875 14.214844 28.980469 14.558594 28.886719 15.222656 C 28.667969 16.335938 27.988281 17.183594 26.980469 17.332031 C 26.910156 17.34375 26.808594 17.359375 26.738281 17.351562 Z M 24.761719 14.953125 C 24.734375 15.113281 24.703125 15.257812 24.707031 15.398438 C 23.75 15.433594 23.027344 16.324219 23.175781 17.351562 C 23.277344 17.929688 23.613281 18.191406 23.980469 18.417969 C 23.84375 19.050781 23.390625 19.414062 22.863281 19.492188 C 22.195312 19.589844 21.964844 19.203125 21.902344 18.792969 C 21.855469 18.46875 21.894531 18.148438 21.941406 17.96875 L 22.644531 14.320312 C 22.765625 13.726562 23.316406 13.3125 23.847656 13.234375 C 24.375 13.15625 24.769531 13.46875 24.828125 13.859375 C 24.875 14.167969 24.828125 14.578125 24.761719 14.953125 Z M 24.761719 14.953125 " fill-opacity="1" fill-rule="nonzero"/><path fill="#fffad7" d="M 37.675781 14.210938 C 37.503906 15.054688 37.144531 15.582031 36.511719 15.671875 C 35.949219 15.757812 35.605469 15.441406 35.535156 14.980469 C 35.515625 14.84375 35.527344 14.664062 35.554688 14.503906 C 36.230469 12.695312 36.699219 11.699219 36.558594 10.761719 C 36.4375 9.921875 35.875 9.414062 34.933594 9.550781 C 33.207031 9.804688 32.332031 12.410156 32.597656 14.222656 C 32.660156 14.632812 32.78125 15 32.96875 15.320312 L 32.238281 16.875 C 32.035156 17.289062 31.558594 18.074219 31.316406 18.109375 C 31.265625 18.117188 31.226562 18.070312 31.210938 17.96875 C 31.1875 17.816406 31.183594 17.660156 31.207031 17.464844 L 31.699219 11.789062 C 31.722656 11.59375 31.714844 11.417969 31.695312 11.265625 C 31.574219 10.445312 30.953125 10.132812 30.351562 10.222656 C 29.738281 10.3125 29.179688 10.796875 29.117188 11.554688 L 28.6875 17.308594 C 28.664062 17.628906 28.675781 17.941406 28.714844 18.214844 C 28.9375 19.734375 30.046875 20.515625 31.378906 20.320312 C 32.59375 20.140625 33.074219 19.496094 34.011719 18.03125 L 34.53125 17.167969 C 35.09375 17.664062 35.890625 17.875 36.796875 17.742188 C 38.457031 17.5 39.539062 16.207031 39.8125 14.367188 C 39.832031 14.261719 39.820312 14.175781 39.804688 14.089844 C 39.722656 13.527344 39.144531 13.261719 38.613281 13.339844 C 38.167969 13.40625 37.773438 13.691406 37.675781 14.210938 Z M 37.675781 14.210938 " fill-opacity="1" fill-rule="nonzero"/><path fill="#fffad7" d="M 40.71875 7.097656 C 41.488281 6.984375 42.027344 6.257812 41.910156 5.472656 C 41.796875 4.703125 41.074219 4.179688 40.308594 4.292969 C 39.539062 4.40625 38.996094 5.113281 39.109375 5.882812 C 39.222656 6.667969 39.949219 7.207031 40.71875 7.097656 Z M 39.6875 16.148438 L 40.78125 10.507812 C 40.816406 10.277344 40.867188 10.023438 40.84375 9.851562 C 40.734375 9.101562 40.109375 8.792969 39.53125 8.875 C 39 8.953125 38.492188 9.414062 38.335938 10.257812 C 38.023438 11.941406 37.605469 14.082031 37.292969 15.75 C 37.238281 16.109375 37.171875 16.589844 37.210938 16.878906 C 37.449219 18.484375 38.917969 19.214844 40.488281 18.984375 C 42.164062 18.738281 43.859375 17.441406 44.535156 13.730469 C 44.554688 13.621094 44.558594 13.515625 44.542969 13.414062 C 44.464844 12.882812 43.902344 12.632812 43.390625 12.710938 C 42.929688 12.777344 42.503906 13.085938 42.375 13.644531 C 41.898438 15.984375 41.097656 16.816406 40.414062 16.917969 C 40.019531 16.972656 39.726562 16.757812 39.679688 16.429688 C 39.664062 16.347656 39.671875 16.257812 39.6875 16.148438 Z M 39.6875 16.148438 " fill-opacity="1" fill-rule="nonzero"/><path fill="#fffad7" d="M 50.480469 12.59375 C 50.019531 14.6875 48.34375 15.753906 46.890625 15.96875 C 45.640625 16.148438 44.769531 15.667969 44.652344 14.882812 C 44.628906 14.726562 44.625 14.570312 44.667969 14.390625 L 44.757812 14.046875 C 45.296875 14.28125 45.941406 14.394531 46.628906 14.292969 C 48.183594 14.066406 49.40625 12.890625 49.640625 11.285156 C 49.679688 10.949219 49.683594 10.617188 49.640625 10.328125 C 49.402344 8.703125 47.9375 7.644531 46.007812 7.925781 C 44.488281 8.148438 43.128906 9.257812 42.78125 11.054688 L 42.203125 14.125 C 42.125 14.554688 42.101562 14.976562 42.160156 15.371094 C 42.457031 17.402344 44.554688 18.386719 47.050781 18.019531 C 49.425781 17.671875 51.957031 16.113281 52.605469 12.683594 C 52.636719 12.539062 52.636719 12.417969 52.621094 12.316406 C 52.542969 11.785156 52.023438 11.566406 51.511719 11.640625 C 51.03125 11.710938 50.558594 12.042969 50.480469 12.59375 Z M 46.25 9.949219 C 46.730469 9.878906 47.09375 10.230469 47.167969 10.722656 C 47.1875 10.859375 47.191406 11 47.160156 11.144531 C 47.070312 11.734375 46.589844 12.011719 46.078125 12.089844 C 45.753906 12.136719 45.417969 12.113281 45.15625 12.015625 L 45.367188 10.9375 C 45.476562 10.378906 45.859375 10.007812 46.25 9.949219 Z M 46.25 9.949219 " fill-opacity="1" fill-rule="nonzero"/><path fill="#fffad7" d="M 51.140625 9.25 L 48.464844 22.769531 C 48.421875 22.96875 48.417969 23.164062 48.441406 23.332031 C 48.546875 24.050781 49.210938 24.425781 49.84375 24.332031 C 50.375 24.253906 50.875 23.847656 51.027344 23.007812 L 53.773438 8.867188 L 55.019531 8.664062 C 55.820312 8.53125 56.109375 7.894531 56.039062 7.398438 C 55.96875 6.917969 55.542969 6.527344 54.910156 6.621094 L 54.210938 6.722656 L 54.773438 3.898438 C 54.851562 3.46875 55.136719 3.167969 55.429688 3.125 C 55.785156 3.070312 55.953125 3.253906 55.996094 3.546875 C 56.011719 3.648438 56.007812 3.753906 55.992188 3.878906 C 55.933594 4.0625 55.921875 4.222656 55.941406 4.375 C 56.03125 4.972656 56.671875 5.296875 57.269531 5.210938 C 57.816406 5.128906 58.332031 4.707031 58.394531 3.839844 C 58.414062 3.59375 58.414062 3.367188 58.382812 3.144531 C 58.160156 1.640625 56.832031 0.683594 55.347656 0.902344 C 53.894531 1.113281 52.5625 2.148438 52.191406 4.015625 L 51.578125 7.109375 L 51.132812 7.175781 C 50.074219 7.332031 49.71875 7.992188 49.796875 8.539062 C 49.867188 9.019531 50.253906 9.382812 50.78125 9.304688 Z M 51.140625 9.25 " fill-opacity="1" fill-rule="nonzero"/><path fill="#fffad7" d="M 58.035156 13.40625 L 59.144531 7.746094 C 59.183594 7.546875 59.195312 7.371094 59.167969 7.203125 C 59.066406 6.5 58.378906 6.113281 57.75 6.203125 C 57.269531 6.273438 56.800781 6.640625 56.660156 7.359375 L 55.453125 13.542969 C 55.382812 13.882812 55.378906 14.214844 55.425781 14.523438 C 55.59375 15.683594 56.539062 16.402344 57.679688 16.460938 C 55.664062 17.230469 53.722656 18.386719 54.027344 20.488281 C 54.273438 22.148438 55.972656 23.015625 57.644531 22.769531 C 59.335938 22.519531 60.792969 21.382812 61.222656 19.292969 C 61.355469 18.542969 61.519531 17.75 61.671875 17.011719 C 64.003906 15.882812 66.320312 14.183594 66.972656 10.421875 C 67.003906 10.277344 67 10.136719 66.984375 10.019531 C 66.898438 9.4375 66.402344 9.160156 65.890625 9.234375 C 65.429688 9.304688 64.976562 9.667969 64.835938 10.367188 C 64.457031 12.203125 63.464844 13.398438 62.230469 14.277344 L 63.621094 6.96875 C 63.648438 6.804688 63.644531 6.667969 63.628906 6.546875 C 63.527344 5.847656 62.839844 5.457031 62.207031 5.550781 C 61.730469 5.621094 61.261719 5.988281 61.121094 6.703125 L 60.003906 12.769531 C 59.589844 13.773438 59.042969 14.203125 58.582031 14.269531 C 58.273438 14.316406 58.058594 14.15625 58.011719 13.847656 C 57.996094 13.726562 58.007812 13.570312 58.035156 13.40625 Z M 58.660156 18.257812 L 58.417969 19.476562 C 58.273438 20.144531 57.792969 20.546875 57.277344 20.625 C 56.886719 20.679688 56.679688 20.464844 56.632812 20.160156 C 56.621094 20.058594 56.617188 19.917969 56.648438 19.789062 C 56.800781 19.15625 57.589844 18.710938 58.660156 18.257812 Z M 58.660156 18.257812 " fill-opacity="1" fill-rule="nonzero"/><path fill="#fffad7" d="M 68.242188 12.050781 C 67.457031 12.164062 66.929688 12.871094 67.046875 13.65625 C 67.160156 14.425781 67.867188 14.96875 68.652344 14.851562 C 69.421875 14.742188 69.960938 14.015625 69.847656 13.246094 C 69.734375 12.460938 69.011719 11.9375 68.242188 12.050781 Z M 68.242188 12.050781 " fill-opacity="1" fill-rule="nonzero"/></svg>