<svg xmlns="http://www.w3.org/2000/svg" xmlns:xlink="http://www.w3.org/1999/xlink" width="500" zoomAndPan="magnify" viewBox="0 0 375 374.999991" height="500" preserveAspectRatio="xMidYMid meet" version="1.0"><defs><clipPath id="78e20ae4be"><path d="M 1.523438 308 L 373.523438 308 L 373.523438 362 L 1.523438 362 Z M 1.523438 308 " clip-rule="nonzero"/></clipPath><clipPath id="0ba1752ae8"><path d="M 61 12.679688 L 120 12.679688 L 120 74 L 61 74 Z M 61 12.679688 " clip-rule="nonzero"/></clipPath></defs><path fill="#fffad7" d="M 181.300781 317.871094 L 181.300781 218.828125 C 135.839844 174.394531 48.105469 213.648438 31.941406 221.449219 L 9.957031 324.316406 C 22.78125 317.777344 46.15625 308.25 85.550781 299.367188 C 133.792969 288.457031 165.675781 305.636719 181.300781 317.871094 " fill-opacity="1" fill-rule="nonzero"/><path fill="#fffad7" d="M 193.851562 218.828125 L 193.851562 317.890625 C 205.96875 308.367188 227.9375 295.902344 259.738281 295.902344 C 268.890625 295.902344 278.839844 296.933594 289.613281 299.367188 C 329.007812 308.25 352.386719 317.777344 365.199219 324.328125 L 343.222656 221.449219 C 327.046875 213.648438 239.285156 174.394531 193.851562 218.828125 " fill-opacity="1" fill-rule="nonzero"/><g clip-path="url(#78e20ae4be)"><path fill="#fffad7" d="M 369.230469 341.179688 C 364.457031 337.832031 342.472656 324.140625 286.84375 311.59375 C 224.582031 297.542969 192.769531 335.90625 192.453125 336.296875 C 192.074219 336.765625 191.484375 336.917969 191.007812 337.246094 C 190.546875 337.574219 190.230469 338.058594 189.679688 338.253906 C 189.609375 338.28125 189.539062 338.238281 189.464844 338.261719 C 188.859375 338.453125 188.226562 338.324219 187.578125 338.328125 C 186.941406 338.324219 186.320312 338.460938 185.71875 338.273438 C 185.640625 338.25 185.5625 338.292969 185.476562 338.269531 C 184.894531 338.058594 184.546875 337.546875 184.066406 337.191406 C 183.621094 336.875 183.066406 336.746094 182.710938 336.304688 C 181.398438 334.726562 150.265625 297.691406 88.320312 311.59375 C 32.691406 324.136719 10.726562 337.824219 5.917969 341.199219 L 1.835938 358.066406 C 1.554688 359.222656 1.957031 360.4375 2.863281 361.207031 C 3.441406 361.683594 4.164062 361.941406 4.886719 361.941406 C 5.300781 361.941406 5.730469 361.855469 6.132812 361.683594 C 7.3125 361.167969 124.226562 311.285156 162.296875 356.613281 C 162.898438 357.324219 163.765625 357.726562 164.695312 357.726562 L 210.453125 357.726562 C 211.386719 357.726562 212.253906 357.324219 212.855469 356.613281 C 250.917969 311.320312 367.839844 361.167969 369.011719 361.683594 C 370.128906 362.160156 371.382812 361.964844 372.289062 361.207031 C 373.195312 360.4375 373.597656 359.222656 373.3125 358.066406 L 369.230469 341.179688 " fill-opacity="1" fill-rule="nonzero"/></g><path fill="#fffad7" d="M 147.789062 56.558594 L 326.214844 160.152344 C 328.554688 161.484375 331.125 162.171875 333.75 162.171875 C 335.132812 162.171875 336.53125 161.988281 337.902344 161.597656 C 341.875 160.472656 345.144531 157.859375 347.105469 154.226562 C 349.0625 150.597656 349.472656 146.421875 348.230469 142.492188 C 346.996094 138.558594 344.300781 135.371094 340.609375 133.511719 L 156.660156 41.242188 L 156.132812 40.921875 C 154.050781 39.792969 151.613281 39.523438 149.378906 40.222656 C 147.113281 40.898438 145.238281 42.414062 144.113281 44.496094 C 141.785156 48.796875 143.386719 54.1875 147.789062 56.558594 " fill-opacity="1" fill-rule="nonzero"/><g clip-path="url(#0ba1752ae8)"><path fill="#fffad7" d="M 79.046875 52.753906 L 81.273438 71.789062 C 81.347656 72.371094 81.742188 72.875 82.304688 73.085938 C 82.476562 73.144531 82.660156 73.167969 82.832031 73.167969 C 83.238281 73.167969 83.628906 73.011719 83.925781 72.726562 L 97.679688 59.378906 L 116.480469 63.140625 C 117.082031 63.234375 117.667969 63.027344 118.027344 62.550781 C 118.390625 62.074219 118.453125 61.433594 118.195312 60.90625 L 109.742188 43.714844 L 119.125 26.996094 C 119.410156 26.46875 119.386719 25.835938 119.050781 25.34375 C 118.695312 24.851562 118.132812 24.570312 117.535156 24.667969 L 98.554688 27.398438 L 85.5625 13.304688 C 85.171875 12.875 84.558594 12.726562 83.96875 12.863281 C 83.398438 13.03125 82.964844 13.511719 82.871094 14.097656 L 79.574219 32.984375 L 62.160156 40.996094 C 61.621094 41.242188 61.265625 41.78125 61.253906 42.375 C 61.238281 42.964844 61.5625 43.515625 62.089844 43.800781 L 79.046875 52.753906 " fill-opacity="1" fill-rule="nonzero"/></g><path fill="#fffad7" d="M 32.46875 106.089844 L 34.089844 119.917969 C 34.164062 120.507812 34.554688 121.007812 35.113281 121.214844 C 35.289062 121.277344 35.472656 121.300781 35.640625 121.300781 C 36.050781 121.300781 36.441406 121.144531 36.734375 120.859375 L 46.734375 111.160156 L 60.382812 113.894531 C 60.972656 113.964844 61.574219 113.78125 61.925781 113.304688 C 62.292969 112.828125 62.355469 112.1875 62.097656 111.664062 L 55.972656 99.171875 L 62.785156 87.03125 C 63.066406 86.503906 63.042969 85.871094 62.710938 85.378906 C 62.367188 84.890625 61.765625 84.632812 61.195312 84.707031 L 47.394531 86.691406 L 37.957031 76.453125 C 37.554688 76.035156 36.953125 75.890625 36.367188 76.011719 C 35.789062 76.179688 35.363281 76.660156 35.261719 77.246094 L 32.875 90.964844 L 20.230469 96.785156 C 19.691406 97.027344 19.335938 97.566406 19.324219 98.167969 C 19.308594 98.757812 19.628906 99.304688 20.15625 99.585938 L 32.46875 106.089844 " fill-opacity="1" fill-rule="nonzero"/><path fill="#fffad7" d="M 103.125 125.882812 C 103.109375 126.480469 103.429688 127.035156 103.957031 127.3125 L 126.589844 139.269531 L 129.566406 164.671875 C 129.640625 165.257812 130.03125 165.757812 130.597656 165.96875 C 130.769531 166.03125 130.949219 166.054688 131.125 166.054688 C 131.527344 166.054688 131.917969 165.894531 132.214844 165.613281 L 150.570312 147.792969 L 175.652344 152.816406 C 176.253906 152.886719 176.84375 152.707031 177.195312 152.226562 C 177.5625 151.75 177.625 151.113281 177.367188 150.585938 L 166.09375 127.636719 L 178.617188 105.332031 C 178.898438 104.804688 178.875 104.167969 178.542969 103.675781 C 178.203125 103.1875 177.636719 102.90625 177.023438 103.003906 L 151.699219 106.640625 L 134.355469 87.832031 C 133.964844 87.398438 133.339844 87.253906 132.765625 87.386719 C 132.191406 87.558594 131.761719 88.035156 131.664062 88.625 L 127.273438 113.832031 L 104.042969 124.507812 C 103.492188 124.757812 103.136719 125.292969 103.125 125.882812 " fill-opacity="1" fill-rule="nonzero"/></svg>