<svg xmlns="http://www.w3.org/2000/svg" xmlns:xlink="http://www.w3.org/1999/xlink" width="500" zoomAndPan="magnify" viewBox="0 0 375 374.999991" height="500" preserveAspectRatio="xMidYMid meet" version="1.0"><defs><clipPath id="dad39118b8"><path d="M 3 4.820312 L 371.972656 4.820312 L 371.972656 370 L 3 370 Z M 3 4.820312 " clip-rule="nonzero"/></clipPath></defs><g clip-path="url(#dad39118b8)"><path fill="#fffad7" d="M 331.75 4.820312 L 151.433594 4.820312 C 129.90625 4.820312 112.394531 21.78125 112.394531 42.625 L 112.394531 134.449219 L 43.160156 134.449219 C 21.144531 134.449219 3.21875 151.410156 3.21875 172.253906 L 3.21875 287.671875 C 3.21875 308.515625 21.144531 325.476562 43.160156 325.476562 L 44.160156 325.476562 L 44.160156 361.757812 C 44.160156 364.941406 45.949219 367.789062 48.816406 369.164062 C 49.964844 369.710938 51.191406 369.992188 52.414062 369.992188 C 54.242188 369.992188 56.035156 369.390625 57.542969 368.183594 L 111.152344 325.476562 L 223.042969 325.476562 C 244.835938 325.476562 262.554688 308.308594 262.554688 287.21875 L 262.554688 195.851562 L 263.835938 195.851562 L 317.445312 238.558594 C 318.933594 239.746094 320.742188 240.347656 322.550781 240.347656 C 323.757812 240.347656 324.984375 240.082031 326.152344 239.519531 C 329.015625 238.125 330.808594 235.296875 330.808594 232.109375 L 330.808594 195.832031 L 331.808594 195.832031 C 353.824219 195.832031 371.75 178.871094 371.75 158.023438 L 371.75 42.625 C 371.691406 21.78125 353.765625 4.820312 331.75 4.820312 Z M 248.867188 287.21875 C 248.867188 300.789062 237.273438 311.832031 223.007812 311.832031 L 109.605469 311.832031 C 107.511719 311.832031 105.457031 312.550781 103.800781 313.867188 L 57.804688 350.523438 L 57.804688 320.917969 C 57.804688 315.921875 53.679688 311.851562 48.625 311.851562 L 43.160156 311.851562 C 28.664062 311.851562 16.863281 301.015625 16.863281 287.691406 L 16.863281 172.253906 C 16.863281 158.929688 28.664062 148.09375 43.160156 148.09375 L 112.394531 148.09375 L 112.394531 158.042969 C 112.394531 178.886719 129.90625 195.851562 151.433594 195.851562 L 248.867188 195.851562 Z M 358.046875 158.042969 C 358.046875 171.367188 346.246094 182.203125 331.75 182.203125 L 326.285156 182.203125 C 321.214844 182.203125 317.085938 186.277344 317.085938 191.269531 L 317.085938 220.878906 L 271.074219 184.222656 C 269.433594 182.921875 267.378906 182.203125 265.285156 182.203125 L 151.433594 182.203125 C 137.429688 182.203125 126.042969 171.367188 126.042969 158.042969 L 126.042969 42.625 C 126.042969 29.300781 137.429688 18.464844 151.433594 18.464844 L 331.75 18.464844 C 346.246094 18.464844 358.046875 29.300781 358.046875 42.625 Z M 358.046875 158.042969 " fill-opacity="1" fill-rule="nonzero"/></g><path fill="#fffad7" d="M 95.335938 229.960938 C 95.335938 230.632812 95.269531 231.300781 95.140625 231.960938 C 95.007812 232.617188 94.8125 233.257812 94.558594 233.878906 C 94.300781 234.5 93.984375 235.089844 93.613281 235.648438 C 93.238281 236.207031 92.8125 236.722656 92.339844 237.199219 C 91.863281 237.675781 91.347656 238.097656 90.789062 238.472656 C 90.230469 238.84375 89.640625 239.160156 89.019531 239.417969 C 88.398438 239.675781 87.757812 239.867188 87.097656 240 C 86.4375 240.132812 85.773438 240.195312 85.101562 240.195312 C 84.429688 240.195312 83.761719 240.132812 83.105469 240 C 82.445312 239.867188 81.804688 239.675781 81.183594 239.417969 C 80.5625 239.160156 79.972656 238.84375 79.414062 238.472656 C 78.855469 238.097656 78.339844 237.675781 77.863281 237.199219 C 77.386719 236.722656 76.964844 236.207031 76.589844 235.648438 C 76.21875 235.089844 75.902344 234.5 75.644531 233.878906 C 75.386719 233.257812 75.191406 232.617188 75.0625 231.960938 C 74.929688 231.300781 74.867188 230.632812 74.867188 229.960938 C 74.867188 229.289062 74.929688 228.625 75.0625 227.964844 C 75.191406 227.308594 75.386719 226.667969 75.644531 226.046875 C 75.902344 225.425781 76.21875 224.835938 76.589844 224.277344 C 76.964844 223.71875 77.386719 223.203125 77.863281 222.726562 C 78.339844 222.25 78.855469 221.828125 79.414062 221.453125 C 79.972656 221.082031 80.5625 220.765625 81.183594 220.507812 C 81.804688 220.25 82.445312 220.058594 83.105469 219.925781 C 83.761719 219.792969 84.429688 219.730469 85.101562 219.730469 C 85.773438 219.730469 86.4375 219.792969 87.097656 219.925781 C 87.757812 220.058594 88.398438 220.25 89.019531 220.507812 C 89.640625 220.765625 90.230469 221.082031 90.789062 221.453125 C 91.347656 221.828125 91.863281 222.25 92.339844 222.726562 C 92.8125 223.203125 93.238281 223.71875 93.613281 224.277344 C 93.984375 224.835938 94.300781 225.425781 94.558594 226.046875 C 94.8125 226.667969 95.007812 227.308594 95.140625 227.964844 C 95.269531 228.625 95.335938 229.289062 95.335938 229.960938 Z M 95.335938 229.960938 " fill-opacity="1" fill-rule="nonzero"/><path fill="#fffad7" d="M 143.101562 229.960938 C 143.101562 230.632812 143.035156 231.300781 142.90625 231.960938 C 142.773438 232.617188 142.578125 233.257812 142.324219 233.878906 C 142.066406 234.5 141.75 235.089844 141.375 235.648438 C 141.003906 236.207031 140.578125 236.722656 140.105469 237.199219 C 139.628906 237.675781 139.113281 238.097656 138.554688 238.472656 C 137.992188 238.84375 137.402344 239.160156 136.785156 239.417969 C 136.164062 239.675781 135.523438 239.867188 134.863281 240 C 134.203125 240.132812 133.539062 240.195312 132.867188 240.195312 C 132.195312 240.195312 131.527344 240.132812 130.871094 240 C 130.210938 239.867188 129.570312 239.675781 128.949219 239.417969 C 128.328125 239.160156 127.738281 238.84375 127.179688 238.472656 C 126.621094 238.097656 126.105469 237.675781 125.628906 237.199219 C 125.152344 236.722656 124.730469 236.207031 124.355469 235.648438 C 123.984375 235.089844 123.667969 234.5 123.410156 233.878906 C 123.152344 233.257812 122.957031 232.617188 122.828125 231.960938 C 122.695312 231.300781 122.632812 230.632812 122.632812 229.960938 C 122.632812 229.289062 122.695312 228.625 122.828125 227.964844 C 122.957031 227.308594 123.152344 226.667969 123.410156 226.046875 C 123.667969 225.425781 123.984375 224.835938 124.355469 224.277344 C 124.730469 223.71875 125.152344 223.203125 125.628906 222.726562 C 126.105469 222.25 126.621094 221.828125 127.179688 221.453125 C 127.738281 221.082031 128.328125 220.765625 128.949219 220.507812 C 129.570312 220.25 130.210938 220.058594 130.871094 219.925781 C 131.527344 219.792969 132.195312 219.730469 132.867188 219.730469 C 133.539062 219.730469 134.203125 219.792969 134.863281 219.925781 C 135.523438 220.058594 136.164062 220.25 136.785156 220.507812 C 137.402344 220.765625 137.992188 221.082031 138.554688 221.453125 C 139.113281 221.828125 139.628906 222.25 140.105469 222.726562 C 140.578125 223.203125 141.003906 223.71875 141.375 224.277344 C 141.75 224.835938 142.066406 225.425781 142.324219 226.046875 C 142.578125 226.667969 142.773438 227.308594 142.90625 227.964844 C 143.035156 228.625 143.101562 229.289062 143.101562 229.960938 Z M 143.101562 229.960938 " fill-opacity="1" fill-rule="nonzero"/><path fill="#fffad7" d="M 190.867188 229.960938 C 190.867188 230.632812 190.800781 231.300781 190.671875 231.960938 C 190.539062 232.617188 190.34375 233.257812 190.089844 233.878906 C 189.832031 234.5 189.515625 235.089844 189.140625 235.648438 C 188.769531 236.207031 188.34375 236.722656 187.871094 237.199219 C 187.394531 237.675781 186.878906 238.097656 186.316406 238.472656 C 185.757812 238.84375 185.167969 239.160156 184.546875 239.417969 C 183.925781 239.675781 183.289062 239.867188 182.628906 240 C 181.96875 240.132812 181.304688 240.195312 180.632812 240.195312 C 179.960938 240.195312 179.292969 240.132812 178.636719 240 C 177.976562 239.867188 177.335938 239.675781 176.714844 239.417969 C 176.09375 239.160156 175.503906 238.84375 174.945312 238.472656 C 174.386719 238.097656 173.871094 237.675781 173.394531 237.199219 C 172.917969 236.722656 172.496094 236.207031 172.121094 235.648438 C 171.746094 235.089844 171.433594 234.5 171.175781 233.878906 C 170.917969 233.257812 170.722656 232.617188 170.59375 231.960938 C 170.460938 231.300781 170.394531 230.632812 170.394531 229.960938 C 170.394531 229.289062 170.460938 228.625 170.59375 227.964844 C 170.722656 227.308594 170.917969 226.667969 171.175781 226.046875 C 171.433594 225.425781 171.746094 224.835938 172.121094 224.277344 C 172.496094 223.71875 172.917969 223.203125 173.394531 222.726562 C 173.871094 222.25 174.386719 221.828125 174.945312 221.453125 C 175.503906 221.082031 176.09375 220.765625 176.714844 220.507812 C 177.335938 220.25 177.976562 220.058594 178.636719 219.925781 C 179.292969 219.792969 179.960938 219.730469 180.632812 219.730469 C 181.304688 219.730469 181.96875 219.792969 182.628906 219.925781 C 183.289062 220.058594 183.925781 220.25 184.546875 220.507812 C 185.167969 220.765625 185.757812 221.082031 186.316406 221.453125 C 186.878906 221.828125 187.394531 222.25 187.871094 222.726562 C 188.34375 223.203125 188.769531 223.71875 189.140625 224.277344 C 189.515625 224.835938 189.832031 225.425781 190.089844 226.046875 C 190.34375 226.667969 190.539062 227.308594 190.671875 227.964844 C 190.800781 228.625 190.867188 229.289062 190.867188 229.960938 Z M 190.867188 229.960938 " fill-opacity="1" fill-rule="nonzero"/><path fill="#fffad7" d="M 238.21875 123.328125 C 234.691406 123.328125 231.714844 120.632812 231.414062 117.070312 C 230.28125 103.21875 235.636719 92.269531 247.304688 84.578125 C 256.878906 78.265625 259.480469 74.457031 258.386719 68.371094 C 257.238281 61.960938 252.429688 59.117188 248.585938 57.855469 C 241.460938 55.515625 232.714844 56.96875 228.226562 61.226562 C 225.589844 63.753906 224.835938 66.957031 225.964844 71.046875 C 226.964844 74.683594 224.835938 78.433594 221.195312 79.433594 C 217.597656 80.433594 213.808594 78.304688 212.808594 74.664062 C 210.339844 65.675781 212.46875 57.382812 218.820312 51.332031 C 226.925781 43.625 240.894531 40.949219 252.84375 44.867188 C 263.117188 48.242188 270.035156 55.914062 271.828125 65.957031 C 274.824219 82.769531 261.816406 91.34375 254.824219 95.960938 C 247.210938 100.976562 244.289062 106.96875 245.023438 115.957031 C 245.324219 119.710938 242.535156 123.007812 238.765625 123.308594 C 238.59375 123.328125 238.40625 123.328125 238.21875 123.328125 Z M 238.21875 123.328125 " fill-opacity="1" fill-rule="nonzero"/><path fill="#fffad7" d="M 247.566406 141.910156 C 247.566406 142.492188 247.511719 143.066406 247.398438 143.636719 C 247.285156 144.203125 247.117188 144.757812 246.894531 145.292969 C 246.671875 145.828125 246.398438 146.339844 246.078125 146.820312 C 245.753906 147.304688 245.386719 147.75 244.976562 148.160156 C 244.566406 148.570312 244.121094 148.9375 243.636719 149.261719 C 243.15625 149.582031 242.644531 149.855469 242.109375 150.078125 C 241.574219 150.300781 241.019531 150.464844 240.453125 150.578125 C 239.882812 150.691406 239.308594 150.75 238.726562 150.75 C 238.144531 150.75 237.570312 150.691406 237.003906 150.578125 C 236.433594 150.464844 235.878906 150.300781 235.34375 150.078125 C 234.808594 149.855469 234.296875 149.582031 233.816406 149.261719 C 233.332031 148.9375 232.886719 148.570312 232.476562 148.160156 C 232.066406 147.75 231.699219 147.304688 231.375 146.820312 C 231.054688 146.339844 230.78125 145.828125 230.558594 145.292969 C 230.335938 144.757812 230.167969 144.203125 230.054688 143.636719 C 229.941406 143.066406 229.886719 142.492188 229.886719 141.910156 C 229.886719 141.332031 229.941406 140.753906 230.054688 140.1875 C 230.167969 139.617188 230.335938 139.0625 230.558594 138.527344 C 230.78125 137.992188 231.054688 137.484375 231.375 137 C 231.699219 136.515625 232.066406 136.070312 232.476562 135.660156 C 232.886719 135.25 233.332031 134.882812 233.816406 134.5625 C 234.296875 134.238281 234.808594 133.964844 235.34375 133.746094 C 235.878906 133.523438 236.433594 133.355469 237.003906 133.242188 C 237.570312 133.128906 238.144531 133.070312 238.726562 133.070312 C 239.308594 133.070312 239.882812 133.128906 240.453125 133.242188 C 241.019531 133.355469 241.574219 133.523438 242.109375 133.746094 C 242.644531 133.964844 243.15625 134.238281 243.636719 134.5625 C 244.121094 134.882812 244.566406 135.25 244.976562 135.660156 C 245.386719 136.070312 245.753906 136.515625 246.078125 137 C 246.398438 137.484375 246.671875 137.992188 246.894531 138.527344 C 247.117188 139.0625 247.285156 139.617188 247.398438 140.1875 C 247.511719 140.753906 247.566406 141.332031 247.566406 141.910156 Z M 247.566406 141.910156 " fill-opacity="1" fill-rule="nonzero"/></svg>