<svg xmlns="http://www.w3.org/2000/svg" xmlns:xlink="http://www.w3.org/1999/xlink" width="500" zoomAndPan="magnify" viewBox="0 0 375 374.999991" height="500" preserveAspectRatio="xMidYMid meet" version="1.0"><defs><clipPath id="9496227c73"><path d="M 22 2 L 353.734375 2 L 353.734375 373 L 22 373 Z M 22 2 " clip-rule="nonzero"/></clipPath></defs><g clip-path="url(#9496227c73)"><path fill="#fffad7" d="M 303.113281 49.421875 C 270.6875 18.003906 227.820312 1.773438 182.632812 2.8125 C 94.839844 5.464844 22.828125 79.019531 22.085938 166.78125 C 21.769531 204.851562 34.773438 242.132812 58.648438 271.804688 C 65.589844 280.410156 69.421875 290.917969 69.421875 301.414062 L 69.421875 317.878906 C 69.421875 318.242188 69.578125 318.574219 69.628906 318.917969 C 69.707031 319.5 69.769531 320.085938 69.976562 320.636719 C 70.164062 321.15625 70.480469 321.566406 70.761719 322.019531 C 70.984375 322.351562 71.082031 322.746094 71.347656 323.046875 C 72.925781 324.832031 73.679688 329.128906 74.4375 333.273438 C 76.066406 342.222656 78.257812 354.5 91.496094 359.507812 C 97.636719 361.839844 103.566406 358.5 109.277344 355.238281 C 112.089844 353.632812 117.339844 350.308594 118.367188 350.8125 C 119.34375 351.457031 121.394531 354.464844 122.765625 356.457031 C 126.761719 362.253906 131.714844 369.464844 139.921875 370.429688 C 146.796875 371.269531 152.304688 366.410156 157.257812 362.125 C 159.355469 360.296875 163.285156 356.878906 164.058594 356.5625 C 165.210938 357.066406 168.003906 360.058594 169.660156 361.855469 C 174.253906 366.816406 179.949219 373 187.742188 373 C 195.539062 373 201.214844 366.816406 205.824219 361.839844 C 207.46875 360.046875 210.242188 357.050781 210.652344 356.671875 C 212.183594 356.859375 216.128906 360.28125 218.226562 362.125 C 223.148438 366.394531 228.828125 371.3125 235.535156 370.429688 C 243.753906 369.449219 248.742188 362.234375 252.75 356.457031 C 254.136719 354.464844 256.222656 351.441406 256.425781 351.078125 C 258.511719 350.746094 263.339844 353.519531 266.304688 355.207031 C 272.03125 358.46875 277.964844 361.792969 284.085938 359.476562 C 297.261719 354.464844 299.472656 342.207031 301.0625 333.257812 C 301.808594 329.101562 302.582031 324.808594 304.125 323.046875 C 304.378906 322.765625 304.457031 322.417969 304.660156 322.101562 C 304.976562 321.609375 305.324219 321.140625 305.53125 320.585938 C 305.71875 320.066406 305.765625 319.546875 305.84375 319.011719 C 305.90625 318.617188 306.082031 318.257812 306.082031 317.84375 L 306.082031 302.277344 C 306.082031 291.25 310.007812 280.277344 317.140625 271.390625 C 340.871094 241.800781 353.417969 206.097656 353.417969 168.152344 C 353.433594 123.039062 335.554688 80.871094 303.113281 49.421875 Z M 108.867188 223.335938 C 87.109375 223.335938 69.421875 205.660156 69.421875 183.945312 C 69.421875 162.230469 87.113281 144.550781 108.867188 144.550781 C 130.625 144.550781 148.3125 162.230469 148.3125 183.945312 C 148.3125 205.660156 130.625 223.335938 108.867188 223.335938 Z M 203.539062 302.121094 C 197.890625 302.121094 192.175781 299.996094 187.761719 296.164062 C 183.34375 300.011719 177.628906 302.121094 171.980469 302.121094 C 156.285156 302.121094 148.3125 294.164062 148.3125 278.488281 C 148.3125 261.8125 174.175781 233.894531 182.097656 225.730469 C 182.125 225.699219 182.191406 225.683594 182.222656 225.636719 C 182.253906 225.605469 182.253906 225.574219 182.285156 225.558594 C 182.617188 225.226562 183.042969 225.089844 183.421875 224.832031 C 183.878906 224.519531 184.304688 224.140625 184.808594 223.949219 C 185.328125 223.746094 185.867188 223.714844 186.402344 223.625 C 186.859375 223.539062 187.320312 223.382812 187.773438 223.382812 C 188.246094 223.382812 188.675781 223.539062 189.148438 223.625 C 189.683594 223.714844 190.238281 223.746094 190.757812 223.96875 C 191.246094 224.167969 191.65625 224.53125 192.117188 224.832031 C 192.496094 225.089844 192.921875 225.242188 193.269531 225.570312 C 193.300781 225.605469 193.300781 225.636719 193.328125 225.652344 C 193.363281 225.683594 193.421875 225.699219 193.457031 225.746094 C 201.375 233.910156 227.234375 261.832031 227.234375 278.5 C 227.203125 294.164062 219.238281 302.121094 203.539062 302.121094 Z M 266.652344 223.335938 C 244.890625 223.335938 227.203125 205.660156 227.203125 183.945312 C 227.203125 162.230469 244.890625 144.550781 266.652344 144.550781 C 288.410156 144.550781 306.097656 162.230469 306.097656 183.945312 C 306.097656 205.660156 288.410156 223.335938 266.652344 223.335938 Z M 266.652344 223.335938 " fill-opacity="1" fill-rule="nonzero"/></g></svg>