<svg xmlns="http://www.w3.org/2000/svg" xmlns:xlink="http://www.w3.org/1999/xlink" width="500" zoomAndPan="magnify" viewBox="0 0 375 374.999991" height="500" preserveAspectRatio="xMidYMid meet" version="1.0"><defs><clipPath id="67797b2731"><path d="M 3.867188 3.867188 L 371.367188 3.867188 L 371.367188 371.367188 L 3.867188 371.367188 Z M 3.867188 3.867188 " clip-rule="nonzero"/></clipPath></defs><g clip-path="url(#67797b2731)"><path fill="#fffad7" d="M 306.421875 25.519531 L 319.941406 39.050781 L 288.566406 70.421875 C 276.007812 62.289062 261.109375 57.460938 245.035156 57.460938 C 222.542969 57.460938 202.207031 66.742188 187.613281 81.625 C 173.019531 66.734375 152.695312 57.476562 130.191406 57.476562 C 85.800781 57.464844 49.800781 93.46875 49.804688 137.855469 C 49.804688 176.808594 73.382812 213.277344 114.375 244.609375 L 87.144531 271.839844 L 57.464844 271.839844 L 3.867188 325.445312 L 49.8125 325.429688 L 49.804688 371.367188 L 103.402344 317.773438 L 103.402344 288.09375 L 133.46875 258.019531 C 149.585938 268.453125 167.671875 278.234375 187.625 287.179688 C 272.828125 248.976562 325.421875 196.171875 325.421875 137.867188 C 325.421875 127.609375 323.386719 117.902344 319.8125 108.949219 L 249.574219 163.574219 L 238.75 152.746094 L 336.191406 55.296875 L 349.75 68.855469 L 371.367188 3.867188 Z M 306.421875 25.519531 " fill-opacity="1" fill-rule="nonzero"/></g></svg>