<svg xmlns="http://www.w3.org/2000/svg" xmlns:xlink="http://www.w3.org/1999/xlink" width="500" zoomAndPan="magnify" viewBox="0 0 375 374.999991" height="500" preserveAspectRatio="xMidYMid meet" version="1.0"><defs><clipPath id="cda6aa127b"><path d="M 224 225 L 370 225 L 370 370.800781 L 224 370.800781 Z M 224 225 " clip-rule="nonzero"/></clipPath></defs><path fill="#fffad7" d="M 149.855469 294.800781 C 146.910156 294.800781 143.96875 294.710938 141.027344 294.53125 C 138.085938 294.351562 135.15625 294.082031 132.230469 293.722656 C 129.304688 293.363281 126.398438 292.917969 123.5 292.378906 C 120.605469 291.839844 117.726562 291.214844 114.867188 290.5 C 112.011719 289.785156 109.179688 288.984375 106.371094 288.09375 C 103.5625 287.207031 100.78125 286.230469 98.03125 285.171875 C 95.285156 284.113281 92.570312 282.972656 89.890625 281.746094 C 87.214844 280.519531 84.574219 279.210938 81.976562 277.824219 C 79.378906 276.4375 76.824219 274.972656 74.316406 273.425781 C 71.808594 271.882812 69.347656 270.261719 66.941406 268.566406 C 64.53125 266.871094 62.175781 265.101562 59.875 263.261719 C 57.574219 261.421875 55.332031 259.511719 53.148438 257.535156 C 50.964844 255.558594 48.847656 253.515625 46.789062 251.40625 C 44.730469 249.300781 42.738281 247.128906 40.816406 244.898438 C 38.890625 242.667969 37.035156 240.382812 35.25 238.039062 C 33.46875 235.695312 31.757812 233.296875 30.121094 230.847656 C 28.484375 228.398438 26.921875 225.902344 25.4375 223.359375 C 23.953125 220.8125 22.550781 218.226562 21.226562 215.59375 C 19.902344 212.960938 18.65625 210.292969 17.496094 207.585938 C 16.335938 204.878906 15.257812 202.136719 14.265625 199.363281 C 13.273438 196.589844 12.367188 193.789062 11.546875 190.960938 C 10.726562 188.132812 9.992188 185.28125 9.347656 182.40625 C 8.699219 179.53125 8.144531 176.640625 7.675781 173.730469 C 7.207031 170.824219 6.828125 167.902344 6.539062 164.972656 C 6.25 162.039062 6.054688 159.101562 5.945312 156.15625 C 5.835938 153.214844 5.816406 150.269531 5.890625 147.324219 C 5.964844 144.378906 6.125 141.441406 6.378906 138.503906 C 6.632812 135.570312 6.972656 132.644531 7.40625 129.730469 C 7.839844 126.816406 8.359375 123.917969 8.96875 121.039062 C 9.582031 118.15625 10.277344 115.296875 11.066406 112.457031 C 11.851562 109.617188 12.722656 106.804688 13.679688 104.019531 C 14.640625 101.234375 15.683594 98.480469 16.8125 95.757812 C 17.9375 93.039062 19.148438 90.351562 20.441406 87.707031 C 21.734375 85.058594 23.105469 82.453125 24.558594 79.890625 C 26.011719 77.328125 27.539062 74.8125 29.148438 72.34375 C 30.753906 69.875 32.433594 67.457031 34.191406 65.089844 C 35.945312 62.726562 37.773438 60.414062 39.667969 58.160156 C 41.566406 55.90625 43.53125 53.714844 45.5625 51.582031 C 47.59375 49.449219 49.691406 47.378906 51.847656 45.375 C 54.007812 43.371094 56.226562 41.433594 58.503906 39.566406 C 60.78125 37.699219 63.113281 35.902344 65.5 34.175781 C 67.890625 32.453125 70.328125 30.800781 72.816406 29.226562 C 75.308594 27.652344 77.84375 26.152344 80.421875 24.734375 C 83.003906 23.316406 85.628906 21.976562 88.289062 20.71875 C 90.953125 19.457031 93.652344 18.28125 96.390625 17.191406 C 99.125 16.097656 101.890625 15.089844 104.6875 14.164062 C 107.488281 13.242188 110.308594 12.40625 113.160156 11.65625 C 116.007812 10.90625 118.875 10.246094 121.765625 9.671875 C 124.65625 9.097656 127.558594 8.613281 130.480469 8.21875 C 133.398438 7.824219 136.328125 7.519531 139.265625 7.304688 C 142.203125 7.089844 145.144531 6.964844 148.089844 6.929688 C 151.035156 6.894531 153.980469 6.949219 156.921875 7.09375 C 159.863281 7.242188 162.800781 7.476562 165.726562 7.804688 C 168.65625 8.128906 171.570312 8.546875 174.472656 9.050781 C 177.375 9.554688 180.257812 10.148438 183.125 10.832031 C 185.988281 11.515625 188.832031 12.285156 191.648438 13.140625 C 194.46875 13.996094 197.257812 14.941406 200.019531 15.96875 C 202.78125 16.996094 205.507812 18.109375 208.199219 19.304688 C 210.890625 20.5 213.542969 21.773438 216.160156 23.132812 C 218.773438 24.492188 221.34375 25.929688 223.867188 27.445312 C 226.394531 28.960938 228.871094 30.554688 231.296875 32.222656 C 233.726562 33.890625 236.101562 35.632812 238.421875 37.445312 C 240.742188 39.257812 243.007812 41.140625 245.210938 43.09375 C 247.417969 45.046875 249.5625 47.066406 251.640625 49.152344 C 254.144531 51.648438 256.550781 54.234375 258.859375 56.910156 C 261.167969 59.585938 263.378906 62.34375 265.484375 65.179688 C 267.59375 68.019531 269.59375 70.929688 271.484375 73.914062 C 273.375 76.902344 275.15625 79.953125 276.824219 83.070312 C 278.492188 86.1875 280.042969 89.359375 281.476562 92.589844 C 282.910156 95.820312 284.222656 99.101562 285.414062 102.429688 C 286.605469 105.753906 287.671875 109.121094 288.617188 112.527344 C 289.5625 115.933594 290.378906 119.371094 291.070312 122.839844 C 291.757812 126.304688 292.320312 129.792969 292.753906 133.300781 C 293.1875 136.808594 293.492188 140.328125 293.664062 143.859375 C 293.839844 147.386719 293.882812 150.921875 293.796875 154.453125 C 293.710938 157.988281 293.492188 161.511719 293.148438 165.03125 C 292.800781 168.546875 292.328125 172.046875 291.722656 175.53125 C 291.117188 179.015625 290.386719 182.46875 289.527344 185.898438 C 288.667969 189.328125 287.683594 192.71875 286.574219 196.074219 C 285.464844 199.429688 284.234375 202.742188 282.882812 206.007812 C 281.527344 209.273438 280.058594 212.484375 278.46875 215.640625 C 276.878906 218.796875 275.175781 221.890625 273.355469 224.925781 C 271.539062 227.957031 269.613281 230.914062 267.574219 233.804688 C 265.539062 236.695312 263.398438 239.503906 261.15625 242.238281 C 258.914062 244.96875 256.574219 247.613281 254.132812 250.171875 C 251.695312 252.730469 249.167969 255.199219 246.546875 257.570312 C 243.925781 259.941406 241.222656 262.214844 238.4375 264.390625 C 235.648438 266.5625 232.785156 268.628906 229.84375 270.59375 C 226.90625 272.554688 223.898438 274.40625 220.820312 276.148438 C 217.746094 277.886719 214.609375 279.511719 211.410156 281.023438 C 208.214844 282.53125 204.96875 283.921875 201.667969 285.191406 C 198.371094 286.460938 195.03125 287.609375 191.648438 288.632812 C 188.265625 289.65625 184.847656 290.554688 181.398438 291.324219 C 177.949219 292.097656 174.476562 292.742188 170.980469 293.257812 C 167.480469 293.773438 163.972656 294.160156 160.445312 294.417969 C 156.921875 294.675781 153.390625 294.800781 149.855469 294.800781 Z M 149.855469 38.632812 C 147.710938 38.628906 145.566406 38.683594 143.425781 38.804688 C 141.28125 38.921875 139.144531 39.101562 137.011719 39.339844 C 134.878906 39.582031 132.757812 39.882812 130.640625 40.246094 C 128.527344 40.605469 126.425781 41.03125 124.332031 41.511719 C 122.242188 41.996094 120.167969 42.539062 118.109375 43.140625 C 116.046875 43.742188 114.007812 44.402344 111.984375 45.121094 C 109.964844 45.839844 107.964844 46.613281 105.988281 47.449219 C 104.011719 48.28125 102.058594 49.171875 100.132812 50.117188 C 98.207031 51.0625 96.308594 52.0625 94.441406 53.113281 C 92.570312 54.167969 90.734375 55.273438 88.929688 56.433594 C 87.121094 57.59375 85.351562 58.804688 83.617188 60.066406 C 81.878906 61.324219 80.179688 62.636719 78.519531 63.992188 C 76.859375 65.351562 75.238281 66.753906 73.65625 68.207031 C 72.074219 69.65625 70.539062 71.152344 69.042969 72.691406 C 67.546875 74.230469 66.097656 75.8125 64.695312 77.433594 C 63.289062 79.054688 61.933594 80.71875 60.625 82.417969 C 59.316406 84.117188 58.054688 85.855469 56.847656 87.625 C 55.636719 89.398438 54.480469 91.203125 53.371094 93.042969 C 52.265625 94.878906 51.214844 96.75 50.214844 98.648438 C 49.214844 100.546875 48.273438 102.472656 47.382812 104.425781 C 46.496094 106.378906 45.664062 108.355469 44.886719 110.355469 C 44.113281 112.355469 43.394531 114.378906 42.734375 116.421875 C 42.074219 118.460938 41.476562 120.519531 40.933594 122.597656 C 40.390625 124.671875 39.910156 126.765625 39.488281 128.867188 C 39.066406 130.972656 38.707031 133.085938 38.40625 135.210938 C 38.105469 137.335938 37.867188 139.464844 37.6875 141.605469 C 37.507812 143.742188 37.390625 145.882812 37.335938 148.027344 C 37.28125 150.175781 37.289062 152.320312 37.355469 154.464844 C 37.421875 156.609375 37.550781 158.75 37.742188 160.886719 C 37.929688 163.023438 38.183594 165.152344 38.492188 167.277344 C 38.804688 169.398438 39.179688 171.511719 39.613281 173.613281 C 40.046875 175.714844 40.539062 177.800781 41.089844 179.875 C 41.644531 181.949219 42.253906 184.003906 42.925781 186.042969 C 43.597656 188.078125 44.324219 190.097656 45.113281 192.09375 C 45.898438 194.089844 46.742188 196.0625 47.640625 198.011719 C 48.539062 199.957031 49.496094 201.878906 50.503906 203.773438 C 51.511719 205.664062 52.574219 207.527344 53.691406 209.359375 C 54.808594 211.195312 55.976562 212.992188 57.195312 214.757812 C 58.414062 216.523438 59.683594 218.253906 61.003906 219.945312 C 62.320312 221.636719 63.6875 223.292969 65.101562 224.90625 C 66.511719 226.519531 67.972656 228.09375 69.476562 229.625 C 70.976562 231.15625 72.523438 232.640625 74.113281 234.085938 C 75.699219 235.527344 77.328125 236.921875 79 238.273438 C 80.667969 239.621094 82.371094 240.921875 84.117188 242.171875 C 85.859375 243.421875 87.636719 244.625 89.449219 245.773438 C 91.261719 246.921875 93.101562 248.019531 94.976562 249.0625 C 96.851562 250.105469 98.757812 251.09375 100.6875 252.03125 C 102.617188 252.964844 104.574219 253.84375 106.558594 254.664062 C 108.539062 255.488281 110.542969 256.253906 112.570312 256.960938 C 114.59375 257.667969 116.636719 258.316406 118.699219 258.90625 C 120.765625 259.496094 122.84375 260.027344 124.933594 260.5 C 127.027344 260.972656 129.132812 261.382812 131.25 261.734375 C 133.367188 262.082031 135.492188 262.375 137.625 262.601562 C 139.757812 262.832031 141.898438 263 144.039062 263.105469 C 146.183594 263.210938 148.328125 263.257812 150.472656 263.238281 C 152.617188 263.222656 154.761719 263.144531 156.902344 263.003906 C 159.042969 262.867188 161.179688 262.664062 163.308594 262.402344 C 165.4375 262.140625 167.558594 261.820312 169.671875 261.433594 C 171.78125 261.050781 173.878906 260.609375 175.964844 260.105469 C 178.050781 259.601562 180.121094 259.039062 182.175781 258.414062 C 184.226562 257.792969 186.261719 257.113281 188.277344 256.375 C 190.289062 255.636719 192.28125 254.839844 194.25 253.984375 C 196.21875 253.132812 198.164062 252.226562 200.078125 251.261719 C 201.996094 250.296875 203.882812 249.277344 205.742188 248.203125 C 207.601562 247.132812 209.425781 246.007812 211.222656 244.832031 C 213.015625 243.652344 214.773438 242.425781 216.496094 241.148438 C 218.21875 239.871094 219.90625 238.542969 221.554688 237.167969 C 223.199219 235.792969 224.808594 234.371094 226.375 232.90625 C 227.941406 231.441406 229.460938 229.929688 230.941406 228.375 C 232.421875 226.820312 233.855469 225.226562 235.242188 223.589844 C 236.632812 221.953125 237.972656 220.277344 239.261719 218.566406 C 240.554688 216.851562 241.796875 215.105469 242.988281 213.320312 C 244.179688 211.535156 245.320312 209.71875 246.410156 207.871094 C 247.496094 206.019531 248.53125 204.140625 249.511719 202.230469 C 250.492188 200.324219 251.414062 198.386719 252.285156 196.425781 C 253.152344 194.464844 253.964844 192.480469 254.722656 190.472656 C 255.476562 188.460938 256.171875 186.433594 256.8125 184.386719 C 257.453125 182.339844 258.03125 180.273438 258.550781 178.191406 C 259.074219 176.109375 259.535156 174.015625 259.933594 171.90625 C 260.335938 169.800781 260.675781 167.683594 260.953125 165.554688 C 261.234375 163.425781 261.453125 161.292969 261.609375 159.152344 C 261.765625 157.011719 261.859375 154.871094 261.894531 152.726562 C 261.929688 150.578125 261.902344 148.433594 261.8125 146.292969 C 261.722656 144.148438 261.574219 142.007812 261.363281 139.871094 C 261.152344 137.738281 260.878906 135.609375 260.546875 133.492188 C 260.210938 131.371094 259.820312 129.261719 259.363281 127.164062 C 258.910156 125.070312 258.394531 122.988281 257.824219 120.917969 C 257.25 118.851562 256.617188 116.800781 255.925781 114.769531 C 255.234375 112.738281 254.488281 110.730469 253.679688 108.742188 C 252.875 106.753906 252.011719 104.789062 251.09375 102.847656 C 250.175781 100.910156 249.199219 99 248.171875 97.117188 C 247.144531 95.234375 246.0625 93.378906 244.929688 91.558594 C 243.792969 89.738281 242.609375 87.949219 241.371094 86.199219 C 240.132812 84.445312 238.847656 82.726562 237.511719 81.046875 C 236.175781 79.367188 234.796875 77.730469 233.367188 76.128906 C 231.9375 74.527344 230.460938 72.96875 228.945312 71.453125 C 226.355469 68.863281 223.644531 66.40625 220.8125 64.078125 C 217.980469 61.753906 215.042969 59.574219 211.996094 57.535156 C 208.949219 55.5 205.8125 53.617188 202.582031 51.886719 C 199.351562 50.15625 196.046875 48.589844 192.660156 47.1875 C 189.277344 45.78125 185.832031 44.546875 182.328125 43.480469 C 178.820312 42.414062 175.273438 41.523438 171.679688 40.804688 C 168.085938 40.085938 164.46875 39.546875 160.820312 39.183594 C 157.175781 38.820312 153.519531 38.636719 149.855469 38.632812 Z M 149.855469 38.632812 " fill-opacity="1" fill-rule="nonzero"/><g clip-path="url(#cda6aa127b)"><path fill="#fffad7" d="M 353.902344 370.800781 C 351.808594 370.792969 349.796875 370.386719 347.863281 369.578125 C 345.933594 368.769531 344.226562 367.621094 342.75 366.136719 L 229.261719 252.722656 C 228.894531 252.359375 228.546875 251.972656 228.21875 251.574219 C 227.890625 251.171875 227.582031 250.757812 227.292969 250.324219 C 227.003906 249.894531 226.738281 249.449219 226.492188 248.992188 C 226.25 248.535156 226.027344 248.070312 225.828125 247.589844 C 225.632812 247.109375 225.457031 246.625 225.304688 246.128906 C 225.15625 245.632812 225.03125 245.128906 224.929688 244.621094 C 224.828125 244.113281 224.753906 243.601562 224.703125 243.085938 C 224.652344 242.570312 224.625 242.050781 224.625 241.535156 C 224.625 241.015625 224.652344 240.496094 224.703125 239.980469 C 224.753906 239.464844 224.828125 238.953125 224.929688 238.445312 C 225.03125 237.9375 225.15625 237.433594 225.304688 236.9375 C 225.457031 236.441406 225.632812 235.957031 225.828125 235.476562 C 226.027344 234.996094 226.25 234.53125 226.492188 234.074219 C 226.738281 233.617188 227.003906 233.171875 227.292969 232.742188 C 227.582031 232.308594 227.890625 231.894531 228.21875 231.492188 C 228.546875 231.09375 228.894531 230.707031 229.261719 230.34375 C 229.628906 229.976562 230.011719 229.628906 230.410156 229.300781 C 230.8125 228.96875 231.226562 228.660156 231.660156 228.375 C 232.089844 228.085938 232.535156 227.820312 232.992188 227.574219 C 233.449219 227.332031 233.917969 227.109375 234.394531 226.910156 C 234.875 226.714844 235.363281 226.539062 235.855469 226.386719 C 236.351562 226.238281 236.855469 226.113281 237.363281 226.011719 C 237.871094 225.910156 238.382812 225.832031 238.898438 225.78125 C 239.417969 225.730469 239.933594 225.707031 240.453125 225.707031 C 240.96875 225.707031 241.488281 225.730469 242.003906 225.78125 C 242.519531 225.832031 243.03125 225.910156 243.539062 226.011719 C 244.046875 226.113281 244.550781 226.238281 245.046875 226.386719 C 245.542969 226.539062 246.027344 226.714844 246.507812 226.910156 C 246.988281 227.109375 247.453125 227.332031 247.910156 227.574219 C 248.371094 227.820312 248.8125 228.085938 249.246094 228.375 C 249.675781 228.660156 250.089844 228.96875 250.492188 229.300781 C 250.890625 229.628906 251.277344 229.976562 251.640625 230.34375 L 365.054688 343.832031 C 365.601562 344.382812 366.105469 344.96875 366.566406 345.59375 C 367.027344 346.21875 367.4375 346.875 367.800781 347.558594 C 368.167969 348.242188 368.476562 348.949219 368.738281 349.679688 C 369 350.410156 369.203125 351.15625 369.355469 351.917969 C 369.503906 352.679688 369.597656 353.445312 369.636719 354.21875 C 369.671875 354.996094 369.652344 355.769531 369.578125 356.539062 C 369.5 357.3125 369.371094 358.074219 369.179688 358.824219 C 368.992188 359.578125 368.75 360.3125 368.453125 361.027344 C 368.15625 361.746094 367.8125 362.4375 367.414062 363.101562 C 367.015625 363.769531 366.570312 364.402344 366.078125 365 C 365.589844 365.601562 365.054688 366.164062 364.480469 366.683594 C 363.910156 367.207031 363.300781 367.683594 362.65625 368.117188 C 362.011719 368.546875 361.339844 368.929688 360.640625 369.265625 C 359.941406 369.597656 359.21875 369.878906 358.476562 370.105469 C 357.738281 370.335938 356.984375 370.507812 356.214844 370.621094 C 355.449219 370.738281 354.679688 370.800781 353.902344 370.800781 Z M 353.902344 370.800781 " fill-opacity="1" fill-rule="nonzero"/></g></svg>