<svg xmlns="http://www.w3.org/2000/svg" xmlns:xlink="http://www.w3.org/1999/xlink" width="500" zoomAndPan="magnify" viewBox="0 0 375 374.999991" height="500" preserveAspectRatio="xMidYMid meet" version="1.0"><defs><clipPath id="1231f311c4"><path d="M 5 29.863281 L 370.953125 29.863281 L 370.953125 344 L 5 344 Z M 5 29.863281 " clip-rule="nonzero"/></clipPath></defs><g clip-path="url(#1231f311c4)"><path fill="#fffad7" d="M 169.152344 99.808594 C 164.425781 99.808594 160.589844 95.976562 160.589844 91.257812 C 160.589844 86.539062 164.425781 82.707031 169.152344 82.707031 L 256.808594 82.707031 L 256.808594 38.464844 C 256.808594 33.746094 260.644531 29.914062 265.367188 29.914062 C 268.023438 29.914062 270.402344 31.113281 271.960938 33.011719 L 367.765625 133.222656 C 370.917969 136.523438 370.882812 141.703125 367.765625 144.972656 L 271.550781 245.609375 C 268.296875 249.03125 262.902344 249.152344 259.480469 245.917969 C 257.714844 244.242188 256.824219 241.984375 256.824219 239.746094 L 256.808594 239.746094 L 256.808594 195.503906 L 109.820312 195.503906 C 105.09375 195.503906 101.257812 191.675781 101.257812 186.953125 L 101.257812 155.453125 L 25.402344 234.800781 L 101.257812 314.152344 L 101.257812 282.652344 C 101.257812 277.929688 105.09375 274.101562 109.820312 274.101562 L 206.035156 274.101562 C 210.761719 274.101562 214.597656 277.929688 214.597656 282.652344 C 214.597656 287.371094 210.761719 291.203125 206.035156 291.203125 L 118.382812 291.203125 L 118.382812 335.441406 L 118.367188 335.441406 C 118.367188 337.699219 117.476562 339.9375 115.710938 341.617188 C 112.285156 344.863281 106.894531 344.726562 103.640625 341.324219 L 7.425781 240.683594 C 4.308594 237.417969 4.273438 232.238281 7.425781 228.9375 L 103.210938 128.726562 C 104.785156 126.828125 107.148438 125.628906 109.804688 125.628906 C 114.53125 125.628906 118.367188 129.460938 118.367188 134.179688 L 118.367188 178.421875 L 265.351562 178.421875 C 270.078125 178.421875 273.914062 182.25 273.914062 186.972656 L 273.914062 218.472656 L 349.769531 139.121094 L 273.914062 59.773438 L 273.914062 91.273438 C 273.914062 95.992188 270.078125 99.824219 265.351562 99.824219 L 169.136719 99.824219 Z M 169.152344 99.808594 " fill-opacity="1" fill-rule="nonzero"/></g></svg>